<?xml version="1.0" encoding="utf-8" standalone="no"?>
<!DOCTYPE svg PUBLIC "-//W3C//DTD SVG 1.1//EN"
  "http://www.w3.org/Graphics/SVG/1.1/DTD/svg11.dtd">
<svg height="345.6pt" version="1.1" viewBox="0 0 460.8 345.6" width="460.8pt" xmlns="http://www.w3.org/2000/svg" xmlns:xlink="http://www.w3.org/1999/xlink">
 <metadata>
  <rdf:RDF xmlns:cc="http://creativecommons.org/ns#" xmlns:dc="http://purl.org/dc/elements/1.1/" xmlns:rdf="http://www.w3.org/1999/02/22-rdf-syntax-ns#">
   <cc:Work>
    <dc:type rdf:resource="http://purl.org/dc/dcmitype/StillImage"/>
    <dc:date>2022-01-11T21:37:03.453595</dc:date>
    <dc:format>image/svg+xml</dc:format>
    <dc:creator>
     <cc:Agent>
      <dc:title>Matplotlib v3.4.3, https://matplotlib.org/</dc:title>
     </cc:Agent>
    </dc:creator>
   </cc:Work>
  </rdf:RDF>
 </metadata>
 <defs>
  <style type="text/css">*{stroke-linecap:butt;stroke-linejoin:round;}</style>
 </defs>
 <g id="figure_1">
  <g id="patch_1">
   <path d="M 0 345.6 
L 460.8 345.6 
L 460.8 0 
L 0 0 
z
" style="fill:#ffffff;"/>
  </g>
  <g id="axes_1">
   <g id="patch_2">
    <path d="M 57.6 307.584 
L 414.72 307.584 
L 414.72 41.472 
L 57.6 41.472 
z
" style="fill:#ffffff;"/>
   </g>
   <g id="PathCollection_1">
    <defs>
     <path d="M 0 3 
C 0.795609 3 1.55874 2.683901 2.12132 2.12132 
C 2.683901 1.55874 3 0.795609 3 0 
C 3 -0.795609 2.683901 -1.55874 2.12132 -2.12132 
C 1.55874 -2.683901 0.795609 -3 0 -3 
C -0.795609 -3 -1.55874 -2.683901 -2.12132 -2.12132 
C -2.683901 -1.55874 -3 -0.795609 -3 0 
C -3 0.795609 -2.683901 1.55874 -2.12132 2.12132 
C -1.55874 2.683901 -0.795609 3 0 3 
z
" id="mf3840a8a94" style="stroke:#4169e1;"/>
    </defs>
    <g clip-path="url(#p594db56c35)">
     <use style="fill:#4169e1;stroke:#4169e1;" x="145.978182" xlink:href="#mf3840a8a94" y="144.288"/>
     <use style="fill:#4169e1;stroke:#4169e1;" x="127.941818" xlink:href="#mf3840a8a94" y="194.688"/>
     <use style="fill:#4169e1;stroke:#4169e1;" x="109.905455" xlink:href="#mf3840a8a94" y="174.528"/>
     <use style="fill:#4169e1;stroke:#4169e1;" x="100.887273" xlink:href="#mf3840a8a94" y="184.608"/>
     <use style="fill:#4169e1;stroke:#4169e1;" x="136.96" xlink:href="#mf3840a8a94" y="134.208"/>
     <use style="fill:#4169e1;stroke:#4169e1;" x="173.032727" xlink:href="#mf3840a8a94" y="103.968"/>
     <use style="fill:#4169e1;stroke:#4169e1;" x="100.887273" xlink:href="#mf3840a8a94" y="154.368"/>
     <use style="fill:#4169e1;stroke:#4169e1;" x="136.96" xlink:href="#mf3840a8a94" y="154.368"/>
     <use style="fill:#4169e1;stroke:#4169e1;" x="82.850909" xlink:href="#mf3840a8a94" y="204.768"/>
     <use style="fill:#4169e1;stroke:#4169e1;" x="127.941818" xlink:href="#mf3840a8a94" y="184.608"/>
     <use style="fill:#4169e1;stroke:#4169e1;" x="173.032727" xlink:href="#mf3840a8a94" y="124.128"/>
     <use style="fill:#4169e1;stroke:#4169e1;" x="118.923636" xlink:href="#mf3840a8a94" y="154.368"/>
     <use style="fill:#4169e1;stroke:#4169e1;" x="118.923636" xlink:href="#mf3840a8a94" y="194.688"/>
     <use style="fill:#4169e1;stroke:#4169e1;" x="73.832727" xlink:href="#mf3840a8a94" y="194.688"/>
     <use style="fill:#4169e1;stroke:#4169e1;" x="209.105455" xlink:href="#mf3840a8a94" y="93.888"/>
     <use style="fill:#4169e1;stroke:#4169e1;" x="200.087273" xlink:href="#mf3840a8a94" y="53.568"/>
     <use style="fill:#4169e1;stroke:#4169e1;" x="173.032727" xlink:href="#mf3840a8a94" y="103.968"/>
     <use style="fill:#4169e1;stroke:#4169e1;" x="145.978182" xlink:href="#mf3840a8a94" y="144.288"/>
     <use style="fill:#4169e1;stroke:#4169e1;" x="200.087273" xlink:href="#mf3840a8a94" y="114.048"/>
     <use style="fill:#4169e1;stroke:#4169e1;" x="145.978182" xlink:href="#mf3840a8a94" y="114.048"/>
     <use style="fill:#4169e1;stroke:#4169e1;" x="173.032727" xlink:href="#mf3840a8a94" y="154.368"/>
     <use style="fill:#4169e1;stroke:#4169e1;" x="145.978182" xlink:href="#mf3840a8a94" y="124.128"/>
     <use style="fill:#4169e1;stroke:#4169e1;" x="100.887273" xlink:href="#mf3840a8a94" y="134.208"/>
     <use style="fill:#4169e1;stroke:#4169e1;" x="145.978182" xlink:href="#mf3840a8a94" y="164.448"/>
     <use style="fill:#4169e1;stroke:#4169e1;" x="118.923636" xlink:href="#mf3840a8a94" y="154.368"/>
     <use style="fill:#4169e1;stroke:#4169e1;" x="136.96" xlink:href="#mf3840a8a94" y="194.688"/>
     <use style="fill:#4169e1;stroke:#4169e1;" x="136.96" xlink:href="#mf3840a8a94" y="154.368"/>
     <use style="fill:#4169e1;stroke:#4169e1;" x="154.996364" xlink:href="#mf3840a8a94" y="144.288"/>
     <use style="fill:#4169e1;stroke:#4169e1;" x="154.996364" xlink:href="#mf3840a8a94" y="154.368"/>
     <use style="fill:#4169e1;stroke:#4169e1;" x="109.905455" xlink:href="#mf3840a8a94" y="174.528"/>
     <use style="fill:#4169e1;stroke:#4169e1;" x="118.923636" xlink:href="#mf3840a8a94" y="184.608"/>
     <use style="fill:#4169e1;stroke:#4169e1;" x="173.032727" xlink:href="#mf3840a8a94" y="154.368"/>
     <use style="fill:#4169e1;stroke:#4169e1;" x="154.996364" xlink:href="#mf3840a8a94" y="83.808"/>
     <use style="fill:#4169e1;stroke:#4169e1;" x="182.050909" xlink:href="#mf3840a8a94" y="73.728"/>
     <use style="fill:#4169e1;stroke:#4169e1;" x="127.941818" xlink:href="#mf3840a8a94" y="184.608"/>
     <use style="fill:#4169e1;stroke:#4169e1;" x="136.96" xlink:href="#mf3840a8a94" y="174.528"/>
     <use style="fill:#4169e1;stroke:#4169e1;" x="182.050909" xlink:href="#mf3840a8a94" y="144.288"/>
     <use style="fill:#4169e1;stroke:#4169e1;" x="127.941818" xlink:href="#mf3840a8a94" y="134.208"/>
     <use style="fill:#4169e1;stroke:#4169e1;" x="82.850909" xlink:href="#mf3840a8a94" y="194.688"/>
     <use style="fill:#4169e1;stroke:#4169e1;" x="145.978182" xlink:href="#mf3840a8a94" y="154.368"/>
     <use style="fill:#4169e1;stroke:#4169e1;" x="136.96" xlink:href="#mf3840a8a94" y="144.288"/>
     <use style="fill:#4169e1;stroke:#4169e1;" x="91.869091" xlink:href="#mf3840a8a94" y="265.248"/>
     <use style="fill:#4169e1;stroke:#4169e1;" x="82.850909" xlink:href="#mf3840a8a94" y="174.528"/>
     <use style="fill:#4169e1;stroke:#4169e1;" x="136.96" xlink:href="#mf3840a8a94" y="144.288"/>
     <use style="fill:#4169e1;stroke:#4169e1;" x="145.978182" xlink:href="#mf3840a8a94" y="114.048"/>
     <use style="fill:#4169e1;stroke:#4169e1;" x="118.923636" xlink:href="#mf3840a8a94" y="194.688"/>
     <use style="fill:#4169e1;stroke:#4169e1;" x="145.978182" xlink:href="#mf3840a8a94" y="114.048"/>
     <use style="fill:#4169e1;stroke:#4169e1;" x="100.887273" xlink:href="#mf3840a8a94" y="174.528"/>
     <use style="fill:#4169e1;stroke:#4169e1;" x="164.014545" xlink:href="#mf3840a8a94" y="124.128"/>
     <use style="fill:#4169e1;stroke:#4169e1;" x="136.96" xlink:href="#mf3840a8a94" y="164.448"/>
     <use style="fill:#4169e1;stroke:#4169e1;" x="317.323636" xlink:href="#mf3840a8a94" y="174.528"/>
     <use style="fill:#4169e1;stroke:#4169e1;" x="263.214545" xlink:href="#mf3840a8a94" y="174.528"/>
     <use style="fill:#4169e1;stroke:#4169e1;" x="308.305455" xlink:href="#mf3840a8a94" y="184.608"/>
     <use style="fill:#4169e1;stroke:#4169e1;" x="182.050909" xlink:href="#mf3840a8a94" y="265.248"/>
     <use style="fill:#4169e1;stroke:#4169e1;" x="272.232727" xlink:href="#mf3840a8a94" y="214.848"/>
     <use style="fill:#4169e1;stroke:#4169e1;" x="200.087273" xlink:href="#mf3840a8a94" y="214.848"/>
     <use style="fill:#4169e1;stroke:#4169e1;" x="254.196364" xlink:href="#mf3840a8a94" y="164.448"/>
     <use style="fill:#4169e1;stroke:#4169e1;" x="127.941818" xlink:href="#mf3840a8a94" y="255.168"/>
     <use style="fill:#4169e1;stroke:#4169e1;" x="281.250909" xlink:href="#mf3840a8a94" y="204.768"/>
     <use style="fill:#4169e1;stroke:#4169e1;" x="154.996364" xlink:href="#mf3840a8a94" y="224.928"/>
     <use style="fill:#4169e1;stroke:#4169e1;" x="136.96" xlink:href="#mf3840a8a94" y="295.488"/>
     <use style="fill:#4169e1;stroke:#4169e1;" x="218.123636" xlink:href="#mf3840a8a94" y="194.688"/>
     <use style="fill:#4169e1;stroke:#4169e1;" x="227.141818" xlink:href="#mf3840a8a94" y="275.328"/>
     <use style="fill:#4169e1;stroke:#4169e1;" x="236.16" xlink:href="#mf3840a8a94" y="204.768"/>
     <use style="fill:#4169e1;stroke:#4169e1;" x="191.069091" xlink:href="#mf3840a8a94" y="204.768"/>
     <use style="fill:#4169e1;stroke:#4169e1;" x="290.269091" xlink:href="#mf3840a8a94" y="184.608"/>
     <use style="fill:#4169e1;stroke:#4169e1;" x="191.069091" xlink:href="#mf3840a8a94" y="194.688"/>
     <use style="fill:#4169e1;stroke:#4169e1;" x="209.105455" xlink:href="#mf3840a8a94" y="224.928"/>
     <use style="fill:#4169e1;stroke:#4169e1;" x="245.178182" xlink:href="#mf3840a8a94" y="275.328"/>
     <use style="fill:#4169e1;stroke:#4169e1;" x="191.069091" xlink:href="#mf3840a8a94" y="245.088"/>
     <use style="fill:#4169e1;stroke:#4169e1;" x="218.123636" xlink:href="#mf3840a8a94" y="174.528"/>
     <use style="fill:#4169e1;stroke:#4169e1;" x="236.16" xlink:href="#mf3840a8a94" y="214.848"/>
     <use style="fill:#4169e1;stroke:#4169e1;" x="254.196364" xlink:href="#mf3840a8a94" y="245.088"/>
     <use style="fill:#4169e1;stroke:#4169e1;" x="236.16" xlink:href="#mf3840a8a94" y="214.848"/>
     <use style="fill:#4169e1;stroke:#4169e1;" x="263.214545" xlink:href="#mf3840a8a94" y="204.768"/>
     <use style="fill:#4169e1;stroke:#4169e1;" x="281.250909" xlink:href="#mf3840a8a94" y="194.688"/>
     <use style="fill:#4169e1;stroke:#4169e1;" x="299.287273" xlink:href="#mf3840a8a94" y="214.848"/>
     <use style="fill:#4169e1;stroke:#4169e1;" x="290.269091" xlink:href="#mf3840a8a94" y="194.688"/>
     <use style="fill:#4169e1;stroke:#4169e1;" x="227.141818" xlink:href="#mf3840a8a94" y="204.768"/>
     <use style="fill:#4169e1;stroke:#4169e1;" x="200.087273" xlink:href="#mf3840a8a94" y="235.008"/>
     <use style="fill:#4169e1;stroke:#4169e1;" x="182.050909" xlink:href="#mf3840a8a94" y="255.168"/>
     <use style="fill:#4169e1;stroke:#4169e1;" x="182.050909" xlink:href="#mf3840a8a94" y="255.168"/>
     <use style="fill:#4169e1;stroke:#4169e1;" x="209.105455" xlink:href="#mf3840a8a94" y="224.928"/>
     <use style="fill:#4169e1;stroke:#4169e1;" x="227.141818" xlink:href="#mf3840a8a94" y="224.928"/>
     <use style="fill:#4169e1;stroke:#4169e1;" x="173.032727" xlink:href="#mf3840a8a94" y="194.688"/>
     <use style="fill:#4169e1;stroke:#4169e1;" x="227.141818" xlink:href="#mf3840a8a94" y="154.368"/>
     <use style="fill:#4169e1;stroke:#4169e1;" x="290.269091" xlink:href="#mf3840a8a94" y="184.608"/>
     <use style="fill:#4169e1;stroke:#4169e1;" x="254.196364" xlink:href="#mf3840a8a94" y="265.248"/>
     <use style="fill:#4169e1;stroke:#4169e1;" x="191.069091" xlink:href="#mf3840a8a94" y="194.688"/>
     <use style="fill:#4169e1;stroke:#4169e1;" x="182.050909" xlink:href="#mf3840a8a94" y="245.088"/>
     <use style="fill:#4169e1;stroke:#4169e1;" x="182.050909" xlink:href="#mf3840a8a94" y="235.008"/>
     <use style="fill:#4169e1;stroke:#4169e1;" x="236.16" xlink:href="#mf3840a8a94" y="194.688"/>
     <use style="fill:#4169e1;stroke:#4169e1;" x="209.105455" xlink:href="#mf3840a8a94" y="235.008"/>
     <use style="fill:#4169e1;stroke:#4169e1;" x="136.96" xlink:href="#mf3840a8a94" y="265.248"/>
     <use style="fill:#4169e1;stroke:#4169e1;" x="191.069091" xlink:href="#mf3840a8a94" y="224.928"/>
     <use style="fill:#4169e1;stroke:#4169e1;" x="200.087273" xlink:href="#mf3840a8a94" y="194.688"/>
     <use style="fill:#4169e1;stroke:#4169e1;" x="200.087273" xlink:href="#mf3840a8a94" y="204.768"/>
     <use style="fill:#4169e1;stroke:#4169e1;" x="245.178182" xlink:href="#mf3840a8a94" y="204.768"/>
     <use style="fill:#4169e1;stroke:#4169e1;" x="145.978182" xlink:href="#mf3840a8a94" y="245.088"/>
     <use style="fill:#4169e1;stroke:#4169e1;" x="200.087273" xlink:href="#mf3840a8a94" y="214.848"/>
     <use style="fill:#4169e1;stroke:#4169e1;" x="254.196364" xlink:href="#mf3840a8a94" y="164.448"/>
     <use style="fill:#4169e1;stroke:#4169e1;" x="209.105455" xlink:href="#mf3840a8a94" y="224.928"/>
     <use style="fill:#4169e1;stroke:#4169e1;" x="326.341818" xlink:href="#mf3840a8a94" y="194.688"/>
     <use style="fill:#4169e1;stroke:#4169e1;" x="254.196364" xlink:href="#mf3840a8a94" y="204.768"/>
     <use style="fill:#4169e1;stroke:#4169e1;" x="272.232727" xlink:href="#mf3840a8a94" y="194.688"/>
     <use style="fill:#4169e1;stroke:#4169e1;" x="371.432727" xlink:href="#mf3840a8a94" y="194.688"/>
     <use style="fill:#4169e1;stroke:#4169e1;" x="127.941818" xlink:href="#mf3840a8a94" y="245.088"/>
     <use style="fill:#4169e1;stroke:#4169e1;" x="344.378182" xlink:href="#mf3840a8a94" y="204.768"/>
     <use style="fill:#4169e1;stroke:#4169e1;" x="290.269091" xlink:href="#mf3840a8a94" y="245.088"/>
     <use style="fill:#4169e1;stroke:#4169e1;" x="335.36" xlink:href="#mf3840a8a94" y="134.208"/>
     <use style="fill:#4169e1;stroke:#4169e1;" x="272.232727" xlink:href="#mf3840a8a94" y="174.528"/>
     <use style="fill:#4169e1;stroke:#4169e1;" x="263.214545" xlink:href="#mf3840a8a94" y="224.928"/>
     <use style="fill:#4169e1;stroke:#4169e1;" x="299.287273" xlink:href="#mf3840a8a94" y="194.688"/>
     <use style="fill:#4169e1;stroke:#4169e1;" x="200.087273" xlink:href="#mf3840a8a94" y="245.088"/>
     <use style="fill:#4169e1;stroke:#4169e1;" x="209.105455" xlink:href="#mf3840a8a94" y="214.848"/>
     <use style="fill:#4169e1;stroke:#4169e1;" x="263.214545" xlink:href="#mf3840a8a94" y="174.528"/>
     <use style="fill:#4169e1;stroke:#4169e1;" x="272.232727" xlink:href="#mf3840a8a94" y="194.688"/>
     <use style="fill:#4169e1;stroke:#4169e1;" x="380.450909" xlink:href="#mf3840a8a94" y="114.048"/>
     <use style="fill:#4169e1;stroke:#4169e1;" x="380.450909" xlink:href="#mf3840a8a94" y="235.008"/>
     <use style="fill:#4169e1;stroke:#4169e1;" x="227.141818" xlink:href="#mf3840a8a94" y="275.328"/>
     <use style="fill:#4169e1;stroke:#4169e1;" x="308.305455" xlink:href="#mf3840a8a94" y="174.528"/>
     <use style="fill:#4169e1;stroke:#4169e1;" x="191.069091" xlink:href="#mf3840a8a94" y="214.848"/>
     <use style="fill:#4169e1;stroke:#4169e1;" x="380.450909" xlink:href="#mf3840a8a94" y="214.848"/>
     <use style="fill:#4169e1;stroke:#4169e1;" x="254.196364" xlink:href="#mf3840a8a94" y="224.928"/>
     <use style="fill:#4169e1;stroke:#4169e1;" x="290.269091" xlink:href="#mf3840a8a94" y="164.448"/>
     <use style="fill:#4169e1;stroke:#4169e1;" x="335.36" xlink:href="#mf3840a8a94" y="174.528"/>
     <use style="fill:#4169e1;stroke:#4169e1;" x="245.178182" xlink:href="#mf3840a8a94" y="214.848"/>
     <use style="fill:#4169e1;stroke:#4169e1;" x="236.16" xlink:href="#mf3840a8a94" y="194.688"/>
     <use style="fill:#4169e1;stroke:#4169e1;" x="263.214545" xlink:href="#mf3840a8a94" y="214.848"/>
     <use style="fill:#4169e1;stroke:#4169e1;" x="335.36" xlink:href="#mf3840a8a94" y="194.688"/>
     <use style="fill:#4169e1;stroke:#4169e1;" x="353.396364" xlink:href="#mf3840a8a94" y="214.848"/>
     <use style="fill:#4169e1;stroke:#4169e1;" x="398.487273" xlink:href="#mf3840a8a94" y="114.048"/>
     <use style="fill:#4169e1;stroke:#4169e1;" x="263.214545" xlink:href="#mf3840a8a94" y="214.848"/>
     <use style="fill:#4169e1;stroke:#4169e1;" x="254.196364" xlink:href="#mf3840a8a94" y="214.848"/>
     <use style="fill:#4169e1;stroke:#4169e1;" x="236.16" xlink:href="#mf3840a8a94" y="235.008"/>
     <use style="fill:#4169e1;stroke:#4169e1;" x="380.450909" xlink:href="#mf3840a8a94" y="194.688"/>
     <use style="fill:#4169e1;stroke:#4169e1;" x="254.196364" xlink:href="#mf3840a8a94" y="154.368"/>
     <use style="fill:#4169e1;stroke:#4169e1;" x="263.214545" xlink:href="#mf3840a8a94" y="184.608"/>
     <use style="fill:#4169e1;stroke:#4169e1;" x="227.141818" xlink:href="#mf3840a8a94" y="194.688"/>
     <use style="fill:#4169e1;stroke:#4169e1;" x="308.305455" xlink:href="#mf3840a8a94" y="184.608"/>
     <use style="fill:#4169e1;stroke:#4169e1;" x="290.269091" xlink:href="#mf3840a8a94" y="184.608"/>
     <use style="fill:#4169e1;stroke:#4169e1;" x="308.305455" xlink:href="#mf3840a8a94" y="184.608"/>
     <use style="fill:#4169e1;stroke:#4169e1;" x="209.105455" xlink:href="#mf3840a8a94" y="224.928"/>
     <use style="fill:#4169e1;stroke:#4169e1;" x="299.287273" xlink:href="#mf3840a8a94" y="174.528"/>
     <use style="fill:#4169e1;stroke:#4169e1;" x="290.269091" xlink:href="#mf3840a8a94" y="164.448"/>
     <use style="fill:#4169e1;stroke:#4169e1;" x="290.269091" xlink:href="#mf3840a8a94" y="194.688"/>
     <use style="fill:#4169e1;stroke:#4169e1;" x="254.196364" xlink:href="#mf3840a8a94" y="245.088"/>
     <use style="fill:#4169e1;stroke:#4169e1;" x="272.232727" xlink:href="#mf3840a8a94" y="194.688"/>
     <use style="fill:#4169e1;stroke:#4169e1;" x="245.178182" xlink:href="#mf3840a8a94" y="154.368"/>
     <use style="fill:#4169e1;stroke:#4169e1;" x="218.123636" xlink:href="#mf3840a8a94" y="194.688"/>
    </g>
   </g>
   <g id="matplotlib.axis_1">
    <g id="xtick_1">
     <g id="line2d_1">
      <defs>
       <path d="M 0 0 
L 0 3.5 
" id="m12fc77c405" style="stroke:#000000;stroke-width:0.8;"/>
      </defs>
      <g>
       <use style="stroke:#000000;stroke-width:0.8;" x="91.869091" xlink:href="#m12fc77c405" y="307.584"/>
      </g>
     </g>
     <g id="text_1">
      <!-- 4.5 -->
      <g transform="translate(84.369091 321.459)scale(0.1 -0.1)">
       <defs>
        <path d="M 2000 1100 
L 75 1100 
L 75 1525 
L 2100 4450 
L 2475 4450 
L 2475 1525 
L 3075 1525 
L 3075 1100 
L 2475 1100 
L 2475 150 
L 2000 150 
L 2000 1100 
z
M 2000 1525 
L 2000 3500 
L 600 1525 
L 2000 1525 
z
" id="SimHei-34" transform="scale(0.015625)"/>
        <path d="M 1075 125 
L 500 125 
L 500 675 
L 1075 675 
L 1075 125 
z
" id="SimHei-2e" transform="scale(0.015625)"/>
        <path d="M 550 1325 
Q 725 650 1150 575 
Q 1575 500 1837 662 
Q 2100 825 2212 1087 
Q 2325 1350 2312 1675 
Q 2300 2000 2137 2225 
Q 1975 2450 1725 2525 
Q 1475 2600 1162 2525 
Q 850 2450 650 2175 
L 225 2225 
Q 275 2375 700 4375 
L 2675 4375 
L 2675 3925 
L 1075 3925 
Q 950 3250 825 2850 
Q 1200 3025 1525 3012 
Q 1850 3000 2150 2862 
Q 2450 2725 2587 2487 
Q 2725 2250 2787 2012 
Q 2850 1775 2837 1500 
Q 2825 1225 2725 937 
Q 2625 650 2425 462 
Q 2225 275 1937 162 
Q 1650 50 1275 75 
Q 900 100 562 350 
Q 225 600 100 1200 
L 550 1325 
z
" id="SimHei-35" transform="scale(0.015625)"/>
       </defs>
       <use xlink:href="#SimHei-34"/>
       <use x="50" xlink:href="#SimHei-2e"/>
       <use x="100" xlink:href="#SimHei-35"/>
      </g>
     </g>
    </g>
    <g id="xtick_2">
     <g id="line2d_2">
      <g>
       <use style="stroke:#000000;stroke-width:0.8;" x="136.96" xlink:href="#m12fc77c405" y="307.584"/>
      </g>
     </g>
     <g id="text_2">
      <!-- 5.0 -->
      <g transform="translate(129.46 321.459)scale(0.1 -0.1)">
       <defs>
        <path d="M 225 2537 
Q 250 3200 412 3587 
Q 575 3975 875 4225 
Q 1175 4475 1612 4475 
Q 2050 4475 2375 4112 
Q 2700 3750 2800 3200 
Q 2900 2650 2862 1937 
Q 2825 1225 2612 775 
Q 2400 325 1975 150 
Q 1550 -25 1125 187 
Q 700 400 525 750 
Q 350 1100 275 1487 
Q 200 1875 225 2537 
z
M 750 2687 
Q 675 2000 800 1462 
Q 925 925 1212 700 
Q 1500 475 1800 612 
Q 2100 750 2237 1162 
Q 2375 1575 2375 2062 
Q 2375 2550 2337 2950 
Q 2300 3350 2112 3675 
Q 1925 4000 1612 4012 
Q 1300 4025 1062 3700 
Q 825 3375 750 2687 
z
" id="SimHei-30" transform="scale(0.015625)"/>
       </defs>
       <use xlink:href="#SimHei-35"/>
       <use x="50" xlink:href="#SimHei-2e"/>
       <use x="100" xlink:href="#SimHei-30"/>
      </g>
     </g>
    </g>
    <g id="xtick_3">
     <g id="line2d_3">
      <g>
       <use style="stroke:#000000;stroke-width:0.8;" x="182.050909" xlink:href="#m12fc77c405" y="307.584"/>
      </g>
     </g>
     <g id="text_3">
      <!-- 5.5 -->
      <g transform="translate(174.550909 321.459)scale(0.1 -0.1)">
       <use xlink:href="#SimHei-35"/>
       <use x="50" xlink:href="#SimHei-2e"/>
       <use x="100" xlink:href="#SimHei-35"/>
      </g>
     </g>
    </g>
    <g id="xtick_4">
     <g id="line2d_4">
      <g>
       <use style="stroke:#000000;stroke-width:0.8;" x="227.141818" xlink:href="#m12fc77c405" y="307.584"/>
      </g>
     </g>
     <g id="text_4">
      <!-- 6.0 -->
      <g transform="translate(219.641818 321.459)scale(0.1 -0.1)">
       <defs>
        <path d="M 250 1612 
Q 275 1975 387 2225 
Q 500 2475 725 2850 
L 1750 4450 
L 2325 4450 
L 1275 2800 
Q 1950 2975 2350 2750 
Q 2750 2525 2887 2237 
Q 3025 1950 3037 1612 
Q 3050 1275 2937 950 
Q 2825 625 2537 362 
Q 2250 100 1737 75 
Q 1225 50 862 262 
Q 500 475 362 862 
Q 225 1250 250 1612 
z
M 1025 787 
Q 1250 550 1625 525 
Q 2000 500 2250 775 
Q 2500 1050 2500 1575 
Q 2500 2100 2187 2300 
Q 1875 2500 1487 2450 
Q 1100 2400 925 2075 
Q 750 1750 775 1387 
Q 800 1025 1025 787 
z
" id="SimHei-36" transform="scale(0.015625)"/>
       </defs>
       <use xlink:href="#SimHei-36"/>
       <use x="50" xlink:href="#SimHei-2e"/>
       <use x="100" xlink:href="#SimHei-30"/>
      </g>
     </g>
    </g>
    <g id="xtick_5">
     <g id="line2d_5">
      <g>
       <use style="stroke:#000000;stroke-width:0.8;" x="272.232727" xlink:href="#m12fc77c405" y="307.584"/>
      </g>
     </g>
     <g id="text_5">
      <!-- 6.5 -->
      <g transform="translate(264.732727 321.459)scale(0.1 -0.1)">
       <use xlink:href="#SimHei-36"/>
       <use x="50" xlink:href="#SimHei-2e"/>
       <use x="100" xlink:href="#SimHei-35"/>
      </g>
     </g>
    </g>
    <g id="xtick_6">
     <g id="line2d_6">
      <g>
       <use style="stroke:#000000;stroke-width:0.8;" x="317.323636" xlink:href="#m12fc77c405" y="307.584"/>
      </g>
     </g>
     <g id="text_6">
      <!-- 7.0 -->
      <g transform="translate(309.823636 321.459)scale(0.1 -0.1)">
       <defs>
        <path d="M 850 150 
Q 1300 2050 2425 3925 
L 275 3925 
L 275 4375 
L 2950 4375 
L 2950 3950 
Q 1775 2050 1400 150 
L 850 150 
z
" id="SimHei-37" transform="scale(0.015625)"/>
       </defs>
       <use xlink:href="#SimHei-37"/>
       <use x="50" xlink:href="#SimHei-2e"/>
       <use x="100" xlink:href="#SimHei-30"/>
      </g>
     </g>
    </g>
    <g id="xtick_7">
     <g id="line2d_7">
      <g>
       <use style="stroke:#000000;stroke-width:0.8;" x="362.414545" xlink:href="#m12fc77c405" y="307.584"/>
      </g>
     </g>
     <g id="text_7">
      <!-- 7.5 -->
      <g transform="translate(354.914545 321.459)scale(0.1 -0.1)">
       <use xlink:href="#SimHei-37"/>
       <use x="50" xlink:href="#SimHei-2e"/>
       <use x="100" xlink:href="#SimHei-35"/>
      </g>
     </g>
    </g>
    <g id="xtick_8">
     <g id="line2d_8">
      <g>
       <use style="stroke:#000000;stroke-width:0.8;" x="407.505455" xlink:href="#m12fc77c405" y="307.584"/>
      </g>
     </g>
     <g id="text_8">
      <!-- 8.0 -->
      <g transform="translate(400.005455 321.459)scale(0.1 -0.1)">
       <defs>
        <path d="M 175 1375 
Q 175 1675 325 1962 
Q 475 2250 825 2425 
Q 525 2600 425 2812 
Q 325 3025 312 3300 
Q 300 3575 387 3775 
Q 475 3975 650 4150 
Q 825 4325 1037 4387 
Q 1250 4450 1500 4450 
Q 1750 4450 1950 4400 
Q 2150 4350 2375 4187 
Q 2600 4025 2700 3725 
Q 2800 3425 2687 3025 
Q 2575 2625 2100 2400 
Q 2525 2275 2700 2012 
Q 2875 1750 2875 1375 
Q 2875 1000 2762 775 
Q 2650 550 2512 400 
Q 2375 250 2137 162 
Q 1900 75 1537 75 
Q 1175 75 912 162 
Q 650 250 475 425 
Q 300 600 237 837 
Q 175 1075 175 1375 
z
M 687 1400 
Q 675 1100 787 875 
Q 900 650 1200 587 
Q 1500 525 1825 600 
Q 2150 675 2275 950 
Q 2400 1225 2362 1500 
Q 2325 1775 2050 1962 
Q 1775 2150 1450 2125 
Q 1125 2100 912 1900 
Q 700 1700 687 1400 
z
M 775 3350 
Q 775 3100 950 2875 
Q 1125 2650 1500 2650 
Q 1875 2650 2062 2875 
Q 2250 3100 2237 3412 
Q 2225 3725 2012 3875 
Q 1800 4025 1437 4000 
Q 1075 3975 925 3787 
Q 775 3600 775 3350 
z
" id="SimHei-38" transform="scale(0.015625)"/>
       </defs>
       <use xlink:href="#SimHei-38"/>
       <use x="50" xlink:href="#SimHei-2e"/>
       <use x="100" xlink:href="#SimHei-30"/>
      </g>
     </g>
    </g>
    <g id="text_9">
     <!-- 花萼长度 -->
     <g transform="translate(216.16 334.716812)scale(0.1 -0.1)">
      <defs>
       <path d="M 3950 3275 
Q 3925 2975 3925 2550 
L 3925 1850 
Q 4200 2000 4587 2362 
Q 4975 2725 5150 3000 
Q 5375 2800 5700 2650 
Q 5400 2475 5100 2187 
Q 4800 1900 3925 1300 
L 3925 275 
Q 3925 0 4250 0 
L 5025 0 
Q 5275 0 5375 112 
Q 5475 225 5550 675 
Q 5800 500 6075 450 
Q 5900 -150 5737 -275 
Q 5575 -400 5250 -400 
L 4025 -400 
Q 3450 -400 3450 0 
L 3450 1025 
Q 3200 875 2575 550 
Q 2450 775 2225 975 
Q 2750 1125 3450 1550 
L 3450 2550 
Q 3450 2975 3425 3275 
L 3950 3275 
z
M 2450 4025 
Q 2450 3750 2475 3450 
L 1925 3450 
Q 1950 3750 1950 4025 
L 1250 4025 
Q 825 4025 400 4000 
L 400 4450 
Q 825 4425 1250 4425 
L 1950 4425 
Q 1950 4825 1925 5125 
L 2500 5125 
Q 2450 4825 2450 4425 
L 3725 4425 
L 3725 5175 
L 4250 5175 
Q 4225 4875 4225 4425 
L 5225 4425 
Q 5675 4425 6000 4450 
L 6000 4000 
Q 5675 4025 5225 4025 
L 4225 4025 
Q 4225 3800 4250 3450 
L 3725 3450 
L 3725 4025 
L 2450 4025 
z
M 2650 3075 
Q 2350 2875 2000 2500 
L 2000 325 
Q 2000 -75 2025 -575 
L 1500 -575 
Q 1525 -100 1525 325 
L 1525 2025 
Q 1100 1625 600 1275 
Q 475 1500 300 1700 
Q 725 1925 1312 2487 
Q 1900 3050 2050 3375 
Q 2275 3200 2650 3075 
z
" id="SimHei-82b1" transform="scale(0.015625)"/>
       <path d="M 3625 -125 
Q 4400 -150 4537 -87 
Q 4675 -25 4700 425 
L 1575 425 
Q 1675 950 1700 1225 
L 1225 1225 
Q 875 1225 425 1200 
L 425 1600 
Q 875 1575 1225 1575 
L 5025 1575 
Q 5600 1575 6075 1600 
L 6075 1200 
Q 5600 1225 5025 1225 
L 2150 1225 
Q 2125 1025 2100 775 
L 5250 775 
Q 5225 400 5200 225 
Q 5175 50 5087 -175 
Q 5000 -400 4762 -487 
Q 4525 -575 3850 -650 
Q 3750 -350 3625 -125 
z
M 2150 4650 
Q 2150 4825 2125 5200 
L 2625 5200 
Q 2600 4825 2600 4650 
L 3750 4650 
Q 3750 4975 3725 5225 
L 4225 5225 
Q 4200 4950 4200 4650 
L 5275 4650 
Q 5600 4650 5975 4675 
L 5975 4275 
Q 5600 4300 5275 4300 
L 4200 4300 
L 4200 4000 
L 3750 4000 
L 3750 4300 
L 2600 4300 
L 2600 4000 
L 2150 4000 
L 2150 4300 
L 1200 4300 
Q 875 4300 475 4275 
L 475 4675 
Q 875 4650 1200 4650 
L 2150 4650 
z
M 3025 3800 
Q 3000 3525 3000 3250 
Q 3000 2975 3025 2675 
L 925 2675 
Q 950 2975 950 3250 
Q 950 3525 925 3800 
L 3025 3800 
z
M 5600 3800 
Q 5575 3575 5575 3275 
Q 5575 3000 5600 2675 
L 3525 2675 
Q 3550 2975 3550 3275 
Q 3550 3575 3525 3800 
L 5600 3800 
z
M 4375 2325 
Q 4800 2325 5275 2350 
L 5275 1950 
Q 4800 1975 4400 1975 
L 2225 1975 
Q 1675 1975 1200 1950 
L 1200 2350 
Q 1675 2325 2225 2325 
L 4375 2325 
z
M 2550 3025 
L 2550 3450 
L 1375 3450 
L 1375 3025 
L 2550 3025 
z
M 5150 3025 
L 5150 3450 
L 3975 3450 
L 3975 3025 
L 5150 3025 
z
" id="SimHei-843c" transform="scale(0.015625)"/>
       <path d="M 1750 2800 
L 1750 4450 
Q 1750 4675 1725 5100 
L 2275 5100 
Q 2250 4625 2250 4475 
L 2250 2800 
L 5275 2800 
Q 5600 2800 5975 2825 
L 5975 2325 
Q 5500 2350 5100 2350 
L 3650 2350 
Q 3825 1850 4187 1375 
Q 4550 900 5050 587 
Q 5550 275 5950 150 
Q 5625 -50 5450 -350 
Q 4925 -75 4475 300 
Q 4025 675 3675 1212 
Q 3325 1750 3150 2350 
L 2250 2350 
L 2250 375 
Q 2975 825 3225 1050 
Q 3400 775 3575 550 
Q 3100 325 2625 -12 
Q 2150 -350 1925 -575 
Q 1725 -300 1550 -100 
Q 1750 100 1750 425 
L 1750 2350 
L 1175 2350 
Q 825 2350 375 2325 
L 375 2825 
Q 825 2800 1125 2800 
L 1750 2800 
z
M 4900 4700 
Q 4625 4475 4087 3937 
Q 3550 3400 3025 2900 
Q 2800 3200 2650 3300 
Q 3075 3600 3600 4150 
Q 4125 4700 4400 5100 
Q 4600 4925 4900 4700 
z
" id="SimHei-957f" transform="scale(0.015625)"/>
       <path d="M 1750 1675 
Q 2450 1650 2875 1650 
L 5200 1650 
Q 4975 1250 4650 850 
Q 4325 450 4025 200 
Q 4350 50 4950 -50 
Q 5550 -150 6100 -150 
Q 5950 -300 5825 -650 
Q 5100 -550 4550 -412 
Q 4000 -275 3625 -100 
Q 3100 -325 2587 -462 
Q 2075 -600 1525 -675 
Q 1450 -475 1225 -250 
Q 1675 -250 2250 -125 
Q 2825 0 3250 200 
Q 2825 550 2400 1275 
L 1750 1250 
L 1750 1675 
z
M 2975 5075 
Q 3250 5150 3475 5250 
Q 3625 4975 3775 4525 
L 4700 4525 
Q 4975 4525 5700 4550 
L 5700 4100 
Q 5000 4125 4650 4125 
L 1375 4125 
Q 1375 3000 1350 2312 
Q 1325 1625 1212 950 
Q 1100 275 725 -525 
Q 500 -375 250 -300 
Q 650 400 762 1075 
Q 875 1750 887 2800 
Q 900 3850 875 4525 
L 3200 4525 
Q 3100 4850 2975 5075 
z
M 2475 3300 
Q 2475 3700 2450 3925 
L 2975 3925 
Q 2950 3725 2950 3300 
L 4300 3300 
Q 4300 3700 4275 3950 
L 4800 3950 
Q 4775 3650 4775 3300 
Q 5325 3300 5725 3325 
L 5725 2900 
Q 5350 2925 4775 2925 
Q 4775 2250 4800 1950 
L 2450 1950 
Q 2475 2350 2475 2925 
Q 2175 2925 1600 2900 
L 1600 3325 
Q 2175 3300 2475 3300 
z
M 4300 2350 
L 4300 2925 
L 2950 2925 
L 2950 2350 
L 4300 2350 
z
M 2875 1275 
Q 3200 775 3650 425 
Q 4025 700 4425 1275 
L 2900 1275 
L 2875 1275 
z
" id="SimHei-5ea6" transform="scale(0.015625)"/>
      </defs>
      <use xlink:href="#SimHei-82b1"/>
      <use x="100" xlink:href="#SimHei-843c"/>
      <use x="200" xlink:href="#SimHei-957f"/>
      <use x="300" xlink:href="#SimHei-5ea6"/>
     </g>
    </g>
   </g>
   <g id="matplotlib.axis_2">
    <g id="ytick_1">
     <g id="line2d_9">
      <defs>
       <path d="M 0 0 
L -3.5 0 
" id="m6dadf51d6e" style="stroke:#000000;stroke-width:0.8;"/>
      </defs>
      <g>
       <use style="stroke:#000000;stroke-width:0.8;" x="57.6" xlink:href="#m6dadf51d6e" y="295.488"/>
      </g>
     </g>
     <g id="text_10">
      <!-- 2.0 -->
      <g transform="translate(35.6 298.9255)scale(0.1 -0.1)">
       <defs>
        <path d="M 300 250 
Q 325 625 650 925 
Q 975 1225 1475 1862 
Q 1975 2500 2125 2850 
Q 2275 3200 2237 3450 
Q 2200 3700 2000 3862 
Q 1800 4025 1537 4000 
Q 1275 3975 1037 3800 
Q 800 3625 675 3275 
L 200 3350 
Q 400 3925 712 4187 
Q 1025 4450 1450 4475 
Q 1700 4500 1900 4462 
Q 2100 4425 2312 4287 
Q 2525 4150 2662 3875 
Q 2800 3600 2762 3212 
Q 2725 2825 2375 2287 
Q 2025 1750 1025 600 
L 2825 600 
L 2825 150 
L 300 150 
L 300 250 
z
" id="SimHei-32" transform="scale(0.015625)"/>
       </defs>
       <use xlink:href="#SimHei-32"/>
       <use x="50" xlink:href="#SimHei-2e"/>
       <use x="100" xlink:href="#SimHei-30"/>
      </g>
     </g>
    </g>
    <g id="ytick_2">
     <g id="line2d_10">
      <g>
       <use style="stroke:#000000;stroke-width:0.8;" x="57.6" xlink:href="#m6dadf51d6e" y="245.088"/>
      </g>
     </g>
     <g id="text_11">
      <!-- 2.5 -->
      <g transform="translate(35.6 248.5255)scale(0.1 -0.1)">
       <use xlink:href="#SimHei-32"/>
       <use x="50" xlink:href="#SimHei-2e"/>
       <use x="100" xlink:href="#SimHei-35"/>
      </g>
     </g>
    </g>
    <g id="ytick_3">
     <g id="line2d_11">
      <g>
       <use style="stroke:#000000;stroke-width:0.8;" x="57.6" xlink:href="#m6dadf51d6e" y="194.688"/>
      </g>
     </g>
     <g id="text_12">
      <!-- 3.0 -->
      <g transform="translate(35.6 198.1255)scale(0.1 -0.1)">
       <defs>
        <path d="M 250 1225 
L 700 1300 
Q 800 975 1025 762 
Q 1250 550 1587 562 
Q 1925 575 2125 837 
Q 2325 1100 2300 1437 
Q 2275 1775 2037 1962 
Q 1800 2150 1275 2225 
L 1275 2550 
Q 1800 2600 2037 2825 
Q 2275 3050 2250 3412 
Q 2225 3775 1925 3937 
Q 1625 4100 1287 3975 
Q 950 3850 750 3275 
L 300 3350 
Q 450 3800 712 4100 
Q 975 4400 1425 4450 
Q 1875 4500 2212 4337 
Q 2550 4175 2687 3837 
Q 2825 3500 2725 3100 
Q 2625 2700 2150 2400 
Q 2500 2250 2687 1950 
Q 2875 1650 2812 1162 
Q 2750 675 2375 375 
Q 2000 75 1525 87 
Q 1050 100 700 387 
Q 350 675 250 1225 
z
" id="SimHei-33" transform="scale(0.015625)"/>
       </defs>
       <use xlink:href="#SimHei-33"/>
       <use x="50" xlink:href="#SimHei-2e"/>
       <use x="100" xlink:href="#SimHei-30"/>
      </g>
     </g>
    </g>
    <g id="ytick_4">
     <g id="line2d_12">
      <g>
       <use style="stroke:#000000;stroke-width:0.8;" x="57.6" xlink:href="#m6dadf51d6e" y="144.288"/>
      </g>
     </g>
     <g id="text_13">
      <!-- 3.5 -->
      <g transform="translate(35.6 147.7255)scale(0.1 -0.1)">
       <use xlink:href="#SimHei-33"/>
       <use x="50" xlink:href="#SimHei-2e"/>
       <use x="100" xlink:href="#SimHei-35"/>
      </g>
     </g>
    </g>
    <g id="ytick_5">
     <g id="line2d_13">
      <g>
       <use style="stroke:#000000;stroke-width:0.8;" x="57.6" xlink:href="#m6dadf51d6e" y="93.888"/>
      </g>
     </g>
     <g id="text_14">
      <!-- 4.0 -->
      <g transform="translate(35.6 97.3255)scale(0.1 -0.1)">
       <use xlink:href="#SimHei-34"/>
       <use x="50" xlink:href="#SimHei-2e"/>
       <use x="100" xlink:href="#SimHei-30"/>
      </g>
     </g>
    </g>
    <g id="ytick_6">
     <g id="line2d_14">
      <g>
       <use style="stroke:#000000;stroke-width:0.8;" x="57.6" xlink:href="#m6dadf51d6e" y="43.488"/>
      </g>
     </g>
     <g id="text_15">
      <!-- 4.5 -->
      <g transform="translate(35.6 46.9255)scale(0.1 -0.1)">
       <use xlink:href="#SimHei-34"/>
       <use x="50" xlink:href="#SimHei-2e"/>
       <use x="100" xlink:href="#SimHei-35"/>
      </g>
     </g>
    </g>
    <g id="text_16">
     <!-- 花萼宽度 -->
     <g transform="translate(30.35 194.528)rotate(-90)scale(0.1 -0.1)">
      <defs>
       <path d="M 2225 3525 
Q 2225 3700 2200 3925 
L 2700 3925 
Q 2675 3700 2675 3525 
L 3650 3525 
Q 3650 3675 3625 3950 
L 4125 3950 
Q 4100 3675 4100 3525 
Q 4625 3525 5100 3550 
L 5100 3075 
Q 4575 3125 4100 3125 
L 4100 2475 
L 5025 2475 
Q 5000 2175 5000 1875 
L 5000 1475 
Q 5000 1225 5025 825 
L 4525 825 
L 4525 2100 
L 1800 2100 
L 1800 750 
L 1300 750 
Q 1325 1200 1325 1450 
L 1325 1850 
Q 1325 2175 1300 2475 
L 2225 2475 
L 2225 3125 
L 1875 3125 
Q 1700 3125 1225 3050 
L 1225 3550 
Q 1700 3525 1875 3525 
L 2225 3525 
z
M 5375 3500 
L 5375 4175 
L 950 4175 
L 950 3400 
L 425 3400 
Q 450 3725 450 3950 
Q 450 4200 425 4575 
L 3025 4575 
Q 2975 4700 2725 5125 
Q 3050 5200 3300 5300 
Q 3500 4900 3625 4575 
L 5900 4575 
Q 5875 4250 5875 3975 
Q 5875 3700 5900 3500 
L 5375 3500 
z
M 3325 1825 
Q 3100 900 2850 462 
Q 2600 25 2112 -237 
Q 1625 -500 650 -700 
Q 550 -350 400 -100 
Q 1025 -75 1450 37 
Q 1875 150 2150 387 
Q 2425 625 2550 987 
Q 2675 1350 2725 1950 
Q 3100 1850 3325 1825 
z
M 3975 1250 
Q 3950 925 3950 675 
L 3950 150 
Q 3950 -75 4200 -100 
L 4950 -100 
Q 5250 -100 5400 0 
Q 5550 100 5650 550 
Q 5875 400 6125 300 
Q 5925 -500 5175 -525 
L 4025 -525 
Q 3500 -500 3450 -25 
L 3450 725 
Q 3450 925 3425 1250 
L 3975 1250 
z
M 3650 2475 
L 3650 3125 
L 2675 3125 
L 2675 2475 
L 3650 2475 
z
" id="SimHei-5bbd" transform="scale(0.015625)"/>
      </defs>
      <use xlink:href="#SimHei-82b1"/>
      <use x="100" xlink:href="#SimHei-843c"/>
      <use x="200" xlink:href="#SimHei-5bbd"/>
      <use x="300" xlink:href="#SimHei-5ea6"/>
     </g>
    </g>
   </g>
   <g id="patch_3">
    <path d="M 57.6 307.584 
L 57.6 41.472 
" style="fill:none;stroke:#000000;stroke-linecap:square;stroke-linejoin:miter;stroke-width:0.8;"/>
   </g>
   <g id="patch_4">
    <path d="M 414.72 307.584 
L 414.72 41.472 
" style="fill:none;stroke:#000000;stroke-linecap:square;stroke-linejoin:miter;stroke-width:0.8;"/>
   </g>
   <g id="patch_5">
    <path d="M 57.6 307.584 
L 414.72 307.584 
" style="fill:none;stroke:#000000;stroke-linecap:square;stroke-linejoin:miter;stroke-width:0.8;"/>
   </g>
   <g id="patch_6">
    <path d="M 57.6 41.472 
L 414.72 41.472 
" style="fill:none;stroke:#000000;stroke-linecap:square;stroke-linejoin:miter;stroke-width:0.8;"/>
   </g>
  </g>
 </g>
 <defs>
  <clipPath id="p594db56c35">
   <rect height="266.112" width="357.12" x="57.6" y="41.472"/>
  </clipPath>
 </defs>
</svg>
