<?xml version="1.0" encoding="utf-8" standalone="no"?>
<!DOCTYPE svg PUBLIC "-//W3C//DTD SVG 1.1//EN"
  "http://www.w3.org/Graphics/SVG/1.1/DTD/svg11.dtd">
<!-- Created with matplotlib (https://matplotlib.org/) -->
<svg height="345.6pt" version="1.1" viewBox="0 0 460.8 345.6" width="460.8pt" xmlns="http://www.w3.org/2000/svg" xmlns:xlink="http://www.w3.org/1999/xlink">
 <metadata>
  <rdf:RDF xmlns:cc="http://creativecommons.org/ns#" xmlns:dc="http://purl.org/dc/elements/1.1/" xmlns:rdf="http://www.w3.org/1999/02/22-rdf-syntax-ns#">
   <cc:Work>
    <dc:type rdf:resource="http://purl.org/dc/dcmitype/StillImage"/>
    <dc:date>2021-11-30T19:53:48.332864</dc:date>
    <dc:format>image/svg+xml</dc:format>
    <dc:creator>
     <cc:Agent>
      <dc:title>Matplotlib v3.3.2, https://matplotlib.org/</dc:title>
     </cc:Agent>
    </dc:creator>
   </cc:Work>
  </rdf:RDF>
 </metadata>
 <defs>
  <style type="text/css">*{stroke-linecap:butt;stroke-linejoin:round;}</style>
 </defs>
 <g id="figure_1">
  <g id="patch_1">
   <path d="M 0 345.6 
L 460.8 345.6 
L 460.8 0 
L 0 0 
z
" style="fill:#ffffff;"/>
  </g>
  <g id="axes_1">
   <g id="patch_2">
    <path d="M 57.6 307.584 
L 414.72 307.584 
L 414.72 41.472 
L 57.6 41.472 
z
" style="fill:#ffffff;"/>
   </g>
   <g id="PathCollection_1">
    <defs>
     <path d="M 0 3 
C 0.795609 3 1.55874 2.683901 2.12132 2.12132 
C 2.683901 1.55874 3 0.795609 3 0 
C 3 -0.795609 2.683901 -1.55874 2.12132 -2.12132 
C 1.55874 -2.683901 0.795609 -3 0 -3 
C -0.795609 -3 -1.55874 -2.683901 -2.12132 -2.12132 
C -2.683901 -1.55874 -3 -0.795609 -3 0 
C -3 0.795609 -2.683901 1.55874 -2.12132 2.12132 
C -1.55874 2.683901 -0.795609 3 0 3 
z
" id="m2bc3b04ce5" style="stroke:#0000ff;"/>
    </defs>
    <g clip-path="url(#p421a09aa76)">
     <use style="fill:#0000ff;stroke:#0000ff;" x="252.545924" xlink:href="#m2bc3b04ce5" y="190.450758"/>
     <use style="fill:#0000ff;stroke:#0000ff;" x="115.107018" xlink:href="#m2bc3b04ce5" y="180.103451"/>
     <use style="fill:#0000ff;stroke:#0000ff;" x="190.838248" xlink:href="#m2bc3b04ce5" y="246.987416"/>
     <use style="fill:#0000ff;stroke:#0000ff;" x="256.864113" xlink:href="#m2bc3b04ce5" y="203.99135"/>
     <use style="fill:#0000ff;stroke:#0000ff;" x="233.526085" xlink:href="#m2bc3b04ce5" y="105.73156"/>
     <use style="fill:#0000ff;stroke:#0000ff;" x="276.066017" xlink:href="#m2bc3b04ce5" y="136.53118"/>
     <use style="fill:#0000ff;stroke:#0000ff;" x="316.867814" xlink:href="#m2bc3b04ce5" y="231.497271"/>
     <use style="fill:#0000ff;stroke:#0000ff;" x="373.955207" xlink:href="#m2bc3b04ce5" y="177.563229"/>
     <use style="fill:#0000ff;stroke:#0000ff;" x="283.414893" xlink:href="#m2bc3b04ce5" y="117.59253"/>
     <use style="fill:#0000ff;stroke:#0000ff;" x="233.03314" xlink:href="#m2bc3b04ce5" y="133.15985"/>
     <use style="fill:#0000ff;stroke:#0000ff;" x="217.839743" xlink:href="#m2bc3b04ce5" y="100.553344"/>
     <use style="fill:#0000ff;stroke:#0000ff;" x="200.709499" xlink:href="#m2bc3b04ce5" y="182.410597"/>
     <use style="fill:#0000ff;stroke:#0000ff;" x="201.048976" xlink:href="#m2bc3b04ce5" y="196.489769"/>
     <use style="fill:#0000ff;stroke:#0000ff;" x="191.436897" xlink:href="#m2bc3b04ce5" y="174.106554"/>
     <use style="fill:#0000ff;stroke:#0000ff;" x="255.800751" xlink:href="#m2bc3b04ce5" y="188.056518"/>
     <use style="fill:#0000ff;stroke:#0000ff;" x="161.582377" xlink:href="#m2bc3b04ce5" y="152.284722"/>
     <use style="fill:#0000ff;stroke:#0000ff;" x="333.520711" xlink:href="#m2bc3b04ce5" y="88.695347"/>
     <use style="fill:#0000ff;stroke:#0000ff;" x="185.675213" xlink:href="#m2bc3b04ce5" y="172.772483"/>
     <use style="fill:#0000ff;stroke:#0000ff;" x="270.995864" xlink:href="#m2bc3b04ce5" y="238.970897"/>
     <use style="fill:#0000ff;stroke:#0000ff;" x="187.699377" xlink:href="#m2bc3b04ce5" y="165.711169"/>
     <use style="fill:#0000ff;stroke:#0000ff;" x="312.448417" xlink:href="#m2bc3b04ce5" y="233.952116"/>
     <use style="fill:#0000ff;stroke:#0000ff;" x="249.049394" xlink:href="#m2bc3b04ce5" y="251.930452"/>
     <use style="fill:#0000ff;stroke:#0000ff;" x="321.414417" xlink:href="#m2bc3b04ce5" y="177.205641"/>
     <use style="fill:#0000ff;stroke:#0000ff;" x="225.637948" xlink:href="#m2bc3b04ce5" y="161.685162"/>
     <use style="fill:#0000ff;stroke:#0000ff;" x="141.570239" xlink:href="#m2bc3b04ce5" y="186.110773"/>
     <use style="fill:#0000ff;stroke:#0000ff;" x="170.365843" xlink:href="#m2bc3b04ce5" y="184.830056"/>
     <use style="fill:#0000ff;stroke:#0000ff;" x="167.838303" xlink:href="#m2bc3b04ce5" y="181.913009"/>
     <use style="fill:#0000ff;stroke:#0000ff;" x="232.326663" xlink:href="#m2bc3b04ce5" y="124.126938"/>
     <use style="fill:#0000ff;stroke:#0000ff;" x="355.992999" xlink:href="#m2bc3b04ce5" y="176.447281"/>
     <use style="fill:#0000ff;stroke:#0000ff;" x="197.639863" xlink:href="#m2bc3b04ce5" y="140.089843"/>
     <use style="fill:#0000ff;stroke:#0000ff;" x="237.079661" xlink:href="#m2bc3b04ce5" y="250.386706"/>
     <use style="fill:#0000ff;stroke:#0000ff;" x="268.177028" xlink:href="#m2bc3b04ce5" y="84.222687"/>
     <use style="fill:#0000ff;stroke:#0000ff;" x="177.627168" xlink:href="#m2bc3b04ce5" y="189.837292"/>
     <use style="fill:#0000ff;stroke:#0000ff;" x="293.630437" xlink:href="#m2bc3b04ce5" y="189.682953"/>
     <use style="fill:#0000ff;stroke:#0000ff;" x="163.123966" xlink:href="#m2bc3b04ce5" y="182.992712"/>
     <use style="fill:#0000ff;stroke:#0000ff;" x="186.745366" xlink:href="#m2bc3b04ce5" y="194.274666"/>
     <use style="fill:#0000ff;stroke:#0000ff;" x="315.013757" xlink:href="#m2bc3b04ce5" y="99.124805"/>
     <use style="fill:#0000ff;stroke:#0000ff;" x="307.859932" xlink:href="#m2bc3b04ce5" y="132.248865"/>
     <use style="fill:#0000ff;stroke:#0000ff;" x="319.633359" xlink:href="#m2bc3b04ce5" y="72.641207"/>
     <use style="fill:#0000ff;stroke:#0000ff;" x="209.164983" xlink:href="#m2bc3b04ce5" y="148.32904"/>
     <use style="fill:#0000ff;stroke:#0000ff;" x="260.226791" xlink:href="#m2bc3b04ce5" y="180.02444"/>
     <use style="fill:#0000ff;stroke:#0000ff;" x="212.130768" xlink:href="#m2bc3b04ce5" y="184.357791"/>
     <use style="fill:#0000ff;stroke:#0000ff;" x="185.74645" xlink:href="#m2bc3b04ce5" y="167.147736"/>
     <use style="fill:#0000ff;stroke:#0000ff;" x="191.38135" xlink:href="#m2bc3b04ce5" y="165.39087"/>
     <use style="fill:#0000ff;stroke:#0000ff;" x="265.592084" xlink:href="#m2bc3b04ce5" y="172.097501"/>
     <use style="fill:#0000ff;stroke:#0000ff;" x="191.472699" xlink:href="#m2bc3b04ce5" y="136.665895"/>
     <use style="fill:#0000ff;stroke:#0000ff;" x="284.19162" xlink:href="#m2bc3b04ce5" y="180.705127"/>
     <use style="fill:#0000ff;stroke:#0000ff;" x="190.187508" xlink:href="#m2bc3b04ce5" y="196.518935"/>
     <use style="fill:#0000ff;stroke:#0000ff;" x="228.8959" xlink:href="#m2bc3b04ce5" y="130.630844"/>
     <use style="fill:#0000ff;stroke:#0000ff;" x="321.033247" xlink:href="#m2bc3b04ce5" y="113.802074"/>
     <use style="fill:#0000ff;stroke:#0000ff;" x="172.159092" xlink:href="#m2bc3b04ce5" y="157.241316"/>
     <use style="fill:#0000ff;stroke:#0000ff;" x="172.614161" xlink:href="#m2bc3b04ce5" y="126.656691"/>
     <use style="fill:#0000ff;stroke:#0000ff;" x="321.491893" xlink:href="#m2bc3b04ce5" y="189.885441"/>
     <use style="fill:#0000ff;stroke:#0000ff;" x="327.615476" xlink:href="#m2bc3b04ce5" y="206.874288"/>
     <use style="fill:#0000ff;stroke:#0000ff;" x="171.382685" xlink:href="#m2bc3b04ce5" y="153.832192"/>
     <use style="fill:#0000ff;stroke:#0000ff;" x="247.929237" xlink:href="#m2bc3b04ce5" y="121.40628"/>
     <use style="fill:#0000ff;stroke:#0000ff;" x="135.000554" xlink:href="#m2bc3b04ce5" y="208.456499"/>
     <use style="fill:#0000ff;stroke:#0000ff;" x="194.141374" xlink:href="#m2bc3b04ce5" y="172.913199"/>
     <use style="fill:#0000ff;stroke:#0000ff;" x="273.160659" xlink:href="#m2bc3b04ce5" y="99.66193"/>
     <use style="fill:#0000ff;stroke:#0000ff;" x="156.74124" xlink:href="#m2bc3b04ce5" y="143.109056"/>
     <use style="fill:#0000ff;stroke:#0000ff;" x="275.635763" xlink:href="#m2bc3b04ce5" y="156.748909"/>
     <use style="fill:#0000ff;stroke:#0000ff;" x="341.102605" xlink:href="#m2bc3b04ce5" y="196.15715"/>
     <use style="fill:#0000ff;stroke:#0000ff;" x="233.992203" xlink:href="#m2bc3b04ce5" y="216.039556"/>
     <use style="fill:#0000ff;stroke:#0000ff;" x="213.152319" xlink:href="#m2bc3b04ce5" y="111.165843"/>
     <use style="fill:#0000ff;stroke:#0000ff;" x="208.237192" xlink:href="#m2bc3b04ce5" y="246.129551"/>
     <use style="fill:#0000ff;stroke:#0000ff;" x="242.072912" xlink:href="#m2bc3b04ce5" y="118.549729"/>
     <use style="fill:#0000ff;stroke:#0000ff;" x="249.891701" xlink:href="#m2bc3b04ce5" y="167.725664"/>
     <use style="fill:#0000ff;stroke:#0000ff;" x="154.924089" xlink:href="#m2bc3b04ce5" y="221.662542"/>
     <use style="fill:#0000ff;stroke:#0000ff;" x="271.626466" xlink:href="#m2bc3b04ce5" y="159.698135"/>
     <use style="fill:#0000ff;stroke:#0000ff;" x="305.659443" xlink:href="#m2bc3b04ce5" y="154.564823"/>
     <use style="fill:#0000ff;stroke:#0000ff;" x="201.169993" xlink:href="#m2bc3b04ce5" y="131.920745"/>
     <use style="fill:#0000ff;stroke:#0000ff;" x="206.646496" xlink:href="#m2bc3b04ce5" y="196.352498"/>
     <use style="fill:#0000ff;stroke:#0000ff;" x="346.631154" xlink:href="#m2bc3b04ce5" y="169.004934"/>
     <use style="fill:#0000ff;stroke:#0000ff;" x="281.382337" xlink:href="#m2bc3b04ce5" y="75.304953"/>
     <use style="fill:#0000ff;stroke:#0000ff;" x="257.191349" xlink:href="#m2bc3b04ce5" y="250.717553"/>
     <use style="fill:#0000ff;stroke:#0000ff;" x="256.146084" xlink:href="#m2bc3b04ce5" y="160.736812"/>
     <use style="fill:#0000ff;stroke:#0000ff;" x="146.731385" xlink:href="#m2bc3b04ce5" y="180.722152"/>
     <use style="fill:#0000ff;stroke:#0000ff;" x="325.149725" xlink:href="#m2bc3b04ce5" y="155.352774"/>
     <use style="fill:#0000ff;stroke:#0000ff;" x="288.363283" xlink:href="#m2bc3b04ce5" y="249.280914"/>
     <use style="fill:#0000ff;stroke:#0000ff;" x="219.834348" xlink:href="#m2bc3b04ce5" y="138.888591"/>
     <use style="fill:#0000ff;stroke:#0000ff;" x="202.883642" xlink:href="#m2bc3b04ce5" y="126.679943"/>
     <use style="fill:#0000ff;stroke:#0000ff;" x="211.023054" xlink:href="#m2bc3b04ce5" y="108.751877"/>
     <use style="fill:#0000ff;stroke:#0000ff;" x="265.818807" xlink:href="#m2bc3b04ce5" y="253.923816"/>
     <use style="fill:#0000ff;stroke:#0000ff;" x="211.209239" xlink:href="#m2bc3b04ce5" y="126.924056"/>
     <use style="fill:#0000ff;stroke:#0000ff;" x="141.818133" xlink:href="#m2bc3b04ce5" y="181.948176"/>
     <use style="fill:#0000ff;stroke:#0000ff;" x="222.277727" xlink:href="#m2bc3b04ce5" y="210.327797"/>
     <use style="fill:#0000ff;stroke:#0000ff;" x="215.920271" xlink:href="#m2bc3b04ce5" y="177.589998"/>
     <use style="fill:#0000ff;stroke:#0000ff;" x="301.549996" xlink:href="#m2bc3b04ce5" y="226.047971"/>
     <use style="fill:#0000ff;stroke:#0000ff;" x="230.951777" xlink:href="#m2bc3b04ce5" y="134.690893"/>
     <use style="fill:#0000ff;stroke:#0000ff;" x="309.811773" xlink:href="#m2bc3b04ce5" y="265.345452"/>
     <use style="fill:#0000ff;stroke:#0000ff;" x="234.777331" xlink:href="#m2bc3b04ce5" y="226.606711"/>
     <use style="fill:#0000ff;stroke:#0000ff;" x="199.644576" xlink:href="#m2bc3b04ce5" y="124.286293"/>
     <use style="fill:#0000ff;stroke:#0000ff;" x="245.033317" xlink:href="#m2bc3b04ce5" y="160.950833"/>
     <use style="fill:#0000ff;stroke:#0000ff;" x="193.268511" xlink:href="#m2bc3b04ce5" y="167.982927"/>
     <use style="fill:#0000ff;stroke:#0000ff;" x="199.000382" xlink:href="#m2bc3b04ce5" y="152.62189"/>
     <use style="fill:#0000ff;stroke:#0000ff;" x="162.751633" xlink:href="#m2bc3b04ce5" y="168.14166"/>
     <use style="fill:#0000ff;stroke:#0000ff;" x="222.438414" xlink:href="#m2bc3b04ce5" y="147.321691"/>
     <use style="fill:#0000ff;stroke:#0000ff;" x="300.467163" xlink:href="#m2bc3b04ce5" y="240.377339"/>
     <use style="fill:#0000ff;stroke:#0000ff;" x="138.564494" xlink:href="#m2bc3b04ce5" y="182.749443"/>
     <use style="fill:#0000ff;stroke:#0000ff;" x="156.184026" xlink:href="#m2bc3b04ce5" y="223.919934"/>
     <use style="fill:#0000ff;stroke:#0000ff;" x="210.146704" xlink:href="#m2bc3b04ce5" y="185.021213"/>
     <use style="fill:#0000ff;stroke:#0000ff;" x="154.070309" xlink:href="#m2bc3b04ce5" y="193.6328"/>
     <use style="fill:#0000ff;stroke:#0000ff;" x="160.774144" xlink:href="#m2bc3b04ce5" y="168.004195"/>
     <use style="fill:#0000ff;stroke:#0000ff;" x="230.814095" xlink:href="#m2bc3b04ce5" y="79.068712"/>
     <use style="fill:#0000ff;stroke:#0000ff;" x="142.164265" xlink:href="#m2bc3b04ce5" y="181.693562"/>
     <use style="fill:#0000ff;stroke:#0000ff;" x="337.211425" xlink:href="#m2bc3b04ce5" y="191.058995"/>
     <use style="fill:#0000ff;stroke:#0000ff;" x="229.869647" xlink:href="#m2bc3b04ce5" y="133.894806"/>
     <use style="fill:#0000ff;stroke:#0000ff;" x="141.958729" xlink:href="#m2bc3b04ce5" y="165.923765"/>
     <use style="fill:#0000ff;stroke:#0000ff;" x="204.108509" xlink:href="#m2bc3b04ce5" y="219.712768"/>
     <use style="fill:#0000ff;stroke:#0000ff;" x="254.486695" xlink:href="#m2bc3b04ce5" y="236.786099"/>
     <use style="fill:#0000ff;stroke:#0000ff;" x="335.45642" xlink:href="#m2bc3b04ce5" y="197.126268"/>
     <use style="fill:#0000ff;stroke:#0000ff;" x="156.213088" xlink:href="#m2bc3b04ce5" y="147.477811"/>
     <use style="fill:#0000ff;stroke:#0000ff;" x="203.209074" xlink:href="#m2bc3b04ce5" y="169.427226"/>
     <use style="fill:#0000ff;stroke:#0000ff;" x="242.449264" xlink:href="#m2bc3b04ce5" y="157.279307"/>
     <use style="fill:#0000ff;stroke:#0000ff;" x="228.474111" xlink:href="#m2bc3b04ce5" y="100.691232"/>
     <use style="fill:#0000ff;stroke:#0000ff;" x="193.70034" xlink:href="#m2bc3b04ce5" y="142.987743"/>
     <use style="fill:#0000ff;stroke:#0000ff;" x="184.65767" xlink:href="#m2bc3b04ce5" y="187.053825"/>
     <use style="fill:#0000ff;stroke:#0000ff;" x="138.577572" xlink:href="#m2bc3b04ce5" y="203.437108"/>
     <use style="fill:#0000ff;stroke:#0000ff;" x="162.656662" xlink:href="#m2bc3b04ce5" y="253.38881"/>
     <use style="fill:#0000ff;stroke:#0000ff;" x="231.48484" xlink:href="#m2bc3b04ce5" y="135.890873"/>
     <use style="fill:#0000ff;stroke:#0000ff;" x="202.040166" xlink:href="#m2bc3b04ce5" y="226.01053"/>
     <use style="fill:#0000ff;stroke:#0000ff;" x="265.44928" xlink:href="#m2bc3b04ce5" y="205.636623"/>
     <use style="fill:#0000ff;stroke:#0000ff;" x="286.158827" xlink:href="#m2bc3b04ce5" y="243.73806"/>
     <use style="fill:#0000ff;stroke:#0000ff;" x="131.178887" xlink:href="#m2bc3b04ce5" y="204.10326"/>
     <use style="fill:#0000ff;stroke:#0000ff;" x="212.096647" xlink:href="#m2bc3b04ce5" y="129.455479"/>
     <use style="fill:#0000ff;stroke:#0000ff;" x="196.68516" xlink:href="#m2bc3b04ce5" y="165.469652"/>
     <use style="fill:#0000ff;stroke:#0000ff;" x="299.296653" xlink:href="#m2bc3b04ce5" y="206.212187"/>
     <use style="fill:#0000ff;stroke:#0000ff;" x="188.743315" xlink:href="#m2bc3b04ce5" y="167.3314"/>
     <use style="fill:#0000ff;stroke:#0000ff;" x="310.383842" xlink:href="#m2bc3b04ce5" y="206.813031"/>
     <use style="fill:#0000ff;stroke:#0000ff;" x="304.64656" xlink:href="#m2bc3b04ce5" y="241.283236"/>
     <use style="fill:#0000ff;stroke:#0000ff;" x="129.975415" xlink:href="#m2bc3b04ce5" y="195.435937"/>
     <use style="fill:#0000ff;stroke:#0000ff;" x="242.409614" xlink:href="#m2bc3b04ce5" y="144.571683"/>
     <use style="fill:#0000ff;stroke:#0000ff;" x="209.653803" xlink:href="#m2bc3b04ce5" y="226.778359"/>
     <use style="fill:#0000ff;stroke:#0000ff;" x="146.744242" xlink:href="#m2bc3b04ce5" y="187.08109"/>
     <use style="fill:#0000ff;stroke:#0000ff;" x="220.560701" xlink:href="#m2bc3b04ce5" y="148.702931"/>
     <use style="fill:#0000ff;stroke:#0000ff;" x="173.476897" xlink:href="#m2bc3b04ce5" y="191.298118"/>
     <use style="fill:#0000ff;stroke:#0000ff;" x="226.197502" xlink:href="#m2bc3b04ce5" y="178.786644"/>
     <use style="fill:#0000ff;stroke:#0000ff;" x="286.192523" xlink:href="#m2bc3b04ce5" y="200.726604"/>
     <use style="fill:#0000ff;stroke:#0000ff;" x="221.294344" xlink:href="#m2bc3b04ce5" y="113.93314"/>
     <use style="fill:#0000ff;stroke:#0000ff;" x="207.654945" xlink:href="#m2bc3b04ce5" y="190.834389"/>
     <use style="fill:#0000ff;stroke:#0000ff;" x="248.889976" xlink:href="#m2bc3b04ce5" y="201.896605"/>
     <use style="fill:#0000ff;stroke:#0000ff;" x="287.875164" xlink:href="#m2bc3b04ce5" y="228.146638"/>
     <use style="fill:#0000ff;stroke:#0000ff;" x="226.207121" xlink:href="#m2bc3b04ce5" y="245.64772"/>
     <use style="fill:#0000ff;stroke:#0000ff;" x="250.029456" xlink:href="#m2bc3b04ce5" y="169.21643"/>
     <use style="fill:#0000ff;stroke:#0000ff;" x="165.665306" xlink:href="#m2bc3b04ce5" y="163.610223"/>
     <use style="fill:#0000ff;stroke:#0000ff;" x="186.291363" xlink:href="#m2bc3b04ce5" y="161.970603"/>
     <use style="fill:#0000ff;stroke:#0000ff;" x="302.792566" xlink:href="#m2bc3b04ce5" y="252.99567"/>
     <use style="fill:#0000ff;stroke:#0000ff;" x="215.236918" xlink:href="#m2bc3b04ce5" y="112.816617"/>
     <use style="fill:#0000ff;stroke:#0000ff;" x="239.206744" xlink:href="#m2bc3b04ce5" y="189.914373"/>
     <use style="fill:#0000ff;stroke:#0000ff;" x="248.342188" xlink:href="#m2bc3b04ce5" y="254.838819"/>
     <use style="fill:#0000ff;stroke:#0000ff;" x="184.591121" xlink:href="#m2bc3b04ce5" y="175.958087"/>
     <use style="fill:#0000ff;stroke:#0000ff;" x="300.946685" xlink:href="#m2bc3b04ce5" y="218.53127"/>
     <use style="fill:#0000ff;stroke:#0000ff;" x="155.212549" xlink:href="#m2bc3b04ce5" y="174.483435"/>
     <use style="fill:#0000ff;stroke:#0000ff;" x="325.747359" xlink:href="#m2bc3b04ce5" y="195.511678"/>
     <use style="fill:#0000ff;stroke:#0000ff;" x="310.032145" xlink:href="#m2bc3b04ce5" y="144.183833"/>
     <use style="fill:#0000ff;stroke:#0000ff;" x="266.392085" xlink:href="#m2bc3b04ce5" y="165.936677"/>
     <use style="fill:#0000ff;stroke:#0000ff;" x="248.780325" xlink:href="#m2bc3b04ce5" y="132.720963"/>
     <use style="fill:#0000ff;stroke:#0000ff;" x="273.88978" xlink:href="#m2bc3b04ce5" y="171.566089"/>
     <use style="fill:#0000ff;stroke:#0000ff;" x="284.621971" xlink:href="#m2bc3b04ce5" y="122.276954"/>
     <use style="fill:#0000ff;stroke:#0000ff;" x="195.413507" xlink:href="#m2bc3b04ce5" y="135.359148"/>
     <use style="fill:#0000ff;stroke:#0000ff;" x="345.250478" xlink:href="#m2bc3b04ce5" y="198.678335"/>
     <use style="fill:#0000ff;stroke:#0000ff;" x="247.333965" xlink:href="#m2bc3b04ce5" y="158.462433"/>
     <use style="fill:#0000ff;stroke:#0000ff;" x="251.137315" xlink:href="#m2bc3b04ce5" y="208.203964"/>
     <use style="fill:#0000ff;stroke:#0000ff;" x="232.736242" xlink:href="#m2bc3b04ce5" y="172.384669"/>
     <use style="fill:#0000ff;stroke:#0000ff;" x="238.80585" xlink:href="#m2bc3b04ce5" y="140.854204"/>
     <use style="fill:#0000ff;stroke:#0000ff;" x="295.062044" xlink:href="#m2bc3b04ce5" y="187.833818"/>
     <use style="fill:#0000ff;stroke:#0000ff;" x="317.226474" xlink:href="#m2bc3b04ce5" y="200.187515"/>
     <use style="fill:#0000ff;stroke:#0000ff;" x="338.903091" xlink:href="#m2bc3b04ce5" y="198.571155"/>
     <use style="fill:#0000ff;stroke:#0000ff;" x="212.864212" xlink:href="#m2bc3b04ce5" y="214.06815"/>
     <use style="fill:#0000ff;stroke:#0000ff;" x="323.561515" xlink:href="#m2bc3b04ce5" y="186.770935"/>
     <use style="fill:#0000ff;stroke:#0000ff;" x="168.235086" xlink:href="#m2bc3b04ce5" y="144.206814"/>
     <use style="fill:#0000ff;stroke:#0000ff;" x="320.155122" xlink:href="#m2bc3b04ce5" y="201.217408"/>
     <use style="fill:#0000ff;stroke:#0000ff;" x="226.515051" xlink:href="#m2bc3b04ce5" y="207.210836"/>
     <use style="fill:#0000ff;stroke:#0000ff;" x="303.427107" xlink:href="#m2bc3b04ce5" y="102.075561"/>
     <use style="fill:#0000ff;stroke:#0000ff;" x="307.566737" xlink:href="#m2bc3b04ce5" y="140.425033"/>
     <use style="fill:#0000ff;stroke:#0000ff;" x="383.245103" xlink:href="#m2bc3b04ce5" y="130.131091"/>
     <use style="fill:#0000ff;stroke:#0000ff;" x="256.951489" xlink:href="#m2bc3b04ce5" y="240.54535"/>
     <use style="fill:#0000ff;stroke:#0000ff;" x="226.665721" xlink:href="#m2bc3b04ce5" y="213.468398"/>
     <use style="fill:#0000ff;stroke:#0000ff;" x="293.00218" xlink:href="#m2bc3b04ce5" y="170.24386"/>
     <use style="fill:#0000ff;stroke:#0000ff;" x="184.501871" xlink:href="#m2bc3b04ce5" y="187.16843"/>
     <use style="fill:#0000ff;stroke:#0000ff;" x="190.188216" xlink:href="#m2bc3b04ce5" y="210.051254"/>
     <use style="fill:#0000ff;stroke:#0000ff;" x="259.457025" xlink:href="#m2bc3b04ce5" y="230.741792"/>
     <use style="fill:#0000ff;stroke:#0000ff;" x="232.345069" xlink:href="#m2bc3b04ce5" y="205.310441"/>
     <use style="fill:#0000ff;stroke:#0000ff;" x="182.671664" xlink:href="#m2bc3b04ce5" y="149.508302"/>
     <use style="fill:#0000ff;stroke:#0000ff;" x="341.169008" xlink:href="#m2bc3b04ce5" y="149.141388"/>
     <use style="fill:#0000ff;stroke:#0000ff;" x="325.446992" xlink:href="#m2bc3b04ce5" y="206.08127"/>
     <use style="fill:#0000ff;stroke:#0000ff;" x="151.944225" xlink:href="#m2bc3b04ce5" y="148.229824"/>
     <use style="fill:#0000ff;stroke:#0000ff;" x="266.867765" xlink:href="#m2bc3b04ce5" y="190.264301"/>
     <use style="fill:#0000ff;stroke:#0000ff;" x="109.334902" xlink:href="#m2bc3b04ce5" y="231.316316"/>
     <use style="fill:#0000ff;stroke:#0000ff;" x="207.96373" xlink:href="#m2bc3b04ce5" y="128.515392"/>
     <use style="fill:#0000ff;stroke:#0000ff;" x="181.639448" xlink:href="#m2bc3b04ce5" y="197.234513"/>
     <use style="fill:#0000ff;stroke:#0000ff;" x="168.31552" xlink:href="#m2bc3b04ce5" y="172.009377"/>
     <use style="fill:#0000ff;stroke:#0000ff;" x="287.108384" xlink:href="#m2bc3b04ce5" y="55.967952"/>
     <use style="fill:#0000ff;stroke:#0000ff;" x="181.934317" xlink:href="#m2bc3b04ce5" y="194.629461"/>
     <use style="fill:#0000ff;stroke:#0000ff;" x="136.807326" xlink:href="#m2bc3b04ce5" y="169.71312"/>
     <use style="fill:#0000ff;stroke:#0000ff;" x="293.784283" xlink:href="#m2bc3b04ce5" y="133.050274"/>
     <use style="fill:#0000ff;stroke:#0000ff;" x="257.589828" xlink:href="#m2bc3b04ce5" y="107.135535"/>
     <use style="fill:#0000ff;stroke:#0000ff;" x="254.603055" xlink:href="#m2bc3b04ce5" y="208.042725"/>
     <use style="fill:#0000ff;stroke:#0000ff;" x="357.488875" xlink:href="#m2bc3b04ce5" y="207.188897"/>
     <use style="fill:#0000ff;stroke:#0000ff;" x="313.15791" xlink:href="#m2bc3b04ce5" y="177.706755"/>
     <use style="fill:#0000ff;stroke:#0000ff;" x="143.525249" xlink:href="#m2bc3b04ce5" y="237.211936"/>
     <use style="fill:#0000ff;stroke:#0000ff;" x="199.144422" xlink:href="#m2bc3b04ce5" y="158.88433"/>
     <use style="fill:#0000ff;stroke:#0000ff;" x="269.232869" xlink:href="#m2bc3b04ce5" y="239.471701"/>
     <use style="fill:#0000ff;stroke:#0000ff;" x="356.74034" xlink:href="#m2bc3b04ce5" y="183.858034"/>
     <use style="fill:#0000ff;stroke:#0000ff;" x="127.819198" xlink:href="#m2bc3b04ce5" y="185.081302"/>
     <use style="fill:#0000ff;stroke:#0000ff;" x="278.127901" xlink:href="#m2bc3b04ce5" y="197.106321"/>
     <use style="fill:#0000ff;stroke:#0000ff;" x="166.956179" xlink:href="#m2bc3b04ce5" y="182.561897"/>
     <use style="fill:#0000ff;stroke:#0000ff;" x="199.720831" xlink:href="#m2bc3b04ce5" y="129.802546"/>
     <use style="fill:#0000ff;stroke:#0000ff;" x="291.362479" xlink:href="#m2bc3b04ce5" y="206.476194"/>
     <use style="fill:#0000ff;stroke:#0000ff;" x="226.440029" xlink:href="#m2bc3b04ce5" y="197.713428"/>
     <use style="fill:#0000ff;stroke:#0000ff;" x="261.502166" xlink:href="#m2bc3b04ce5" y="192.619119"/>
     <use style="fill:#0000ff;stroke:#0000ff;" x="160.131635" xlink:href="#m2bc3b04ce5" y="193.950405"/>
     <use style="fill:#0000ff;stroke:#0000ff;" x="314.324088" xlink:href="#m2bc3b04ce5" y="121.125458"/>
     <use style="fill:#0000ff;stroke:#0000ff;" x="261.741317" xlink:href="#m2bc3b04ce5" y="223.489128"/>
     <use style="fill:#0000ff;stroke:#0000ff;" x="269.706682" xlink:href="#m2bc3b04ce5" y="130.860443"/>
     <use style="fill:#0000ff;stroke:#0000ff;" x="269.464649" xlink:href="#m2bc3b04ce5" y="97.604406"/>
     <use style="fill:#0000ff;stroke:#0000ff;" x="253.955762" xlink:href="#m2bc3b04ce5" y="185.433439"/>
     <use style="fill:#0000ff;stroke:#0000ff;" x="303.306285" xlink:href="#m2bc3b04ce5" y="137.986662"/>
     <use style="fill:#0000ff;stroke:#0000ff;" x="153.249937" xlink:href="#m2bc3b04ce5" y="177.519225"/>
     <use style="fill:#0000ff;stroke:#0000ff;" x="258.774125" xlink:href="#m2bc3b04ce5" y="243.980922"/>
     <use style="fill:#0000ff;stroke:#0000ff;" x="182.207499" xlink:href="#m2bc3b04ce5" y="137.11295"/>
     <use style="fill:#0000ff;stroke:#0000ff;" x="165.080582" xlink:href="#m2bc3b04ce5" y="198.27047"/>
     <use style="fill:#0000ff;stroke:#0000ff;" x="286.733069" xlink:href="#m2bc3b04ce5" y="159.730459"/>
     <use style="fill:#0000ff;stroke:#0000ff;" x="244.910678" xlink:href="#m2bc3b04ce5" y="138.751661"/>
     <use style="fill:#0000ff;stroke:#0000ff;" x="297.965963" xlink:href="#m2bc3b04ce5" y="231.868571"/>
     <use style="fill:#0000ff;stroke:#0000ff;" x="280.646094" xlink:href="#m2bc3b04ce5" y="150.675177"/>
     <use style="fill:#0000ff;stroke:#0000ff;" x="268.755855" xlink:href="#m2bc3b04ce5" y="145.888759"/>
     <use style="fill:#0000ff;stroke:#0000ff;" x="209.30158" xlink:href="#m2bc3b04ce5" y="115.590533"/>
     <use style="fill:#0000ff;stroke:#0000ff;" x="134.89716" xlink:href="#m2bc3b04ce5" y="175.09848"/>
     <use style="fill:#0000ff;stroke:#0000ff;" x="305.663508" xlink:href="#m2bc3b04ce5" y="202.324799"/>
     <use style="fill:#0000ff;stroke:#0000ff;" x="294.699704" xlink:href="#m2bc3b04ce5" y="53.568"/>
     <use style="fill:#0000ff;stroke:#0000ff;" x="207.215947" xlink:href="#m2bc3b04ce5" y="210.262502"/>
     <use style="fill:#0000ff;stroke:#0000ff;" x="122.301745" xlink:href="#m2bc3b04ce5" y="182.771527"/>
     <use style="fill:#0000ff;stroke:#0000ff;" x="244.385037" xlink:href="#m2bc3b04ce5" y="153.467211"/>
     <use style="fill:#0000ff;stroke:#0000ff;" x="207.083271" xlink:href="#m2bc3b04ce5" y="138.715649"/>
     <use style="fill:#0000ff;stroke:#0000ff;" x="329.626685" xlink:href="#m2bc3b04ce5" y="209.375096"/>
     <use style="fill:#0000ff;stroke:#0000ff;" x="290.886596" xlink:href="#m2bc3b04ce5" y="190.109214"/>
     <use style="fill:#0000ff;stroke:#0000ff;" x="155.427978" xlink:href="#m2bc3b04ce5" y="166.364472"/>
     <use style="fill:#0000ff;stroke:#0000ff;" x="154.495539" xlink:href="#m2bc3b04ce5" y="186.155557"/>
     <use style="fill:#0000ff;stroke:#0000ff;" x="345.20522" xlink:href="#m2bc3b04ce5" y="242.494345"/>
     <use style="fill:#0000ff;stroke:#0000ff;" x="353.371556" xlink:href="#m2bc3b04ce5" y="215.789929"/>
     <use style="fill:#0000ff;stroke:#0000ff;" x="278.878713" xlink:href="#m2bc3b04ce5" y="159.139702"/>
     <use style="fill:#0000ff;stroke:#0000ff;" x="179.822275" xlink:href="#m2bc3b04ce5" y="205.735665"/>
     <use style="fill:#0000ff;stroke:#0000ff;" x="161.509921" xlink:href="#m2bc3b04ce5" y="173.831356"/>
     <use style="fill:#0000ff;stroke:#0000ff;" x="152.069221" xlink:href="#m2bc3b04ce5" y="190.328497"/>
     <use style="fill:#0000ff;stroke:#0000ff;" x="302.960969" xlink:href="#m2bc3b04ce5" y="125.503885"/>
     <use style="fill:#0000ff;stroke:#0000ff;" x="232.724946" xlink:href="#m2bc3b04ce5" y="224.932241"/>
     <use style="fill:#0000ff;stroke:#0000ff;" x="262.727669" xlink:href="#m2bc3b04ce5" y="108.132453"/>
     <use style="fill:#0000ff;stroke:#0000ff;" x="343.546054" xlink:href="#m2bc3b04ce5" y="161.72173"/>
     <use style="fill:#0000ff;stroke:#0000ff;" x="196.713946" xlink:href="#m2bc3b04ce5" y="229.132431"/>
     <use style="fill:#0000ff;stroke:#0000ff;" x="283.180776" xlink:href="#m2bc3b04ce5" y="101.047708"/>
     <use style="fill:#0000ff;stroke:#0000ff;" x="213.73303" xlink:href="#m2bc3b04ce5" y="160.093739"/>
     <use style="fill:#0000ff;stroke:#0000ff;" x="225.013598" xlink:href="#m2bc3b04ce5" y="197.170607"/>
     <use style="fill:#0000ff;stroke:#0000ff;" x="335.082838" xlink:href="#m2bc3b04ce5" y="187.84848"/>
     <use style="fill:#0000ff;stroke:#0000ff;" x="169.392294" xlink:href="#m2bc3b04ce5" y="144.947674"/>
     <use style="fill:#0000ff;stroke:#0000ff;" x="218.552927" xlink:href="#m2bc3b04ce5" y="139.8312"/>
     <use style="fill:#0000ff;stroke:#0000ff;" x="252.465668" xlink:href="#m2bc3b04ce5" y="144.338927"/>
     <use style="fill:#0000ff;stroke:#0000ff;" x="136.400952" xlink:href="#m2bc3b04ce5" y="196.281679"/>
     <use style="fill:#0000ff;stroke:#0000ff;" x="237.42803" xlink:href="#m2bc3b04ce5" y="121.966489"/>
     <use style="fill:#0000ff;stroke:#0000ff;" x="282.422577" xlink:href="#m2bc3b04ce5" y="134.243464"/>
     <use style="fill:#0000ff;stroke:#0000ff;" x="302.090588" xlink:href="#m2bc3b04ce5" y="167.538704"/>
     <use style="fill:#0000ff;stroke:#0000ff;" x="353.956471" xlink:href="#m2bc3b04ce5" y="215.359668"/>
     <use style="fill:#0000ff;stroke:#0000ff;" x="259.632308" xlink:href="#m2bc3b04ce5" y="133.494824"/>
     <use style="fill:#0000ff;stroke:#0000ff;" x="200.139706" xlink:href="#m2bc3b04ce5" y="166.908746"/>
     <use style="fill:#0000ff;stroke:#0000ff;" x="242.180284" xlink:href="#m2bc3b04ce5" y="174.194206"/>
     <use style="fill:#0000ff;stroke:#0000ff;" x="285.393864" xlink:href="#m2bc3b04ce5" y="223.603479"/>
     <use style="fill:#0000ff;stroke:#0000ff;" x="221.364666" xlink:href="#m2bc3b04ce5" y="113.085362"/>
     <use style="fill:#0000ff;stroke:#0000ff;" x="265.762617" xlink:href="#m2bc3b04ce5" y="147.294525"/>
     <use style="fill:#0000ff;stroke:#0000ff;" x="146.470763" xlink:href="#m2bc3b04ce5" y="168.177073"/>
     <use style="fill:#0000ff;stroke:#0000ff;" x="289.966235" xlink:href="#m2bc3b04ce5" y="153.371905"/>
     <use style="fill:#0000ff;stroke:#0000ff;" x="256.969393" xlink:href="#m2bc3b04ce5" y="95.651184"/>
     <use style="fill:#0000ff;stroke:#0000ff;" x="167.341367" xlink:href="#m2bc3b04ce5" y="162.377318"/>
     <use style="fill:#0000ff;stroke:#0000ff;" x="298.124603" xlink:href="#m2bc3b04ce5" y="167.271872"/>
     <use style="fill:#0000ff;stroke:#0000ff;" x="182.374326" xlink:href="#m2bc3b04ce5" y="152.115172"/>
     <use style="fill:#0000ff;stroke:#0000ff;" x="159.859062" xlink:href="#m2bc3b04ce5" y="144.795844"/>
     <use style="fill:#0000ff;stroke:#0000ff;" x="304.447322" xlink:href="#m2bc3b04ce5" y="157.844604"/>
     <use style="fill:#0000ff;stroke:#0000ff;" x="315.510969" xlink:href="#m2bc3b04ce5" y="194.284989"/>
     <use style="fill:#0000ff;stroke:#0000ff;" x="205.491156" xlink:href="#m2bc3b04ce5" y="199.590511"/>
     <use style="fill:#0000ff;stroke:#0000ff;" x="258.828571" xlink:href="#m2bc3b04ce5" y="79.954689"/>
     <use style="fill:#0000ff;stroke:#0000ff;" x="190.781905" xlink:href="#m2bc3b04ce5" y="223.943428"/>
     <use style="fill:#0000ff;stroke:#0000ff;" x="194.268148" xlink:href="#m2bc3b04ce5" y="155.306857"/>
     <use style="fill:#0000ff;stroke:#0000ff;" x="342.151087" xlink:href="#m2bc3b04ce5" y="177.872803"/>
     <use style="fill:#0000ff;stroke:#0000ff;" x="266.016878" xlink:href="#m2bc3b04ce5" y="280.843796"/>
     <use style="fill:#0000ff;stroke:#0000ff;" x="256.99198" xlink:href="#m2bc3b04ce5" y="219.022231"/>
     <use style="fill:#0000ff;stroke:#0000ff;" x="256.917247" xlink:href="#m2bc3b04ce5" y="86.136949"/>
     <use style="fill:#0000ff;stroke:#0000ff;" x="128.42168" xlink:href="#m2bc3b04ce5" y="165.532932"/>
     <use style="fill:#0000ff;stroke:#0000ff;" x="236.369318" xlink:href="#m2bc3b04ce5" y="295.488"/>
     <use style="fill:#0000ff;stroke:#0000ff;" x="259.597884" xlink:href="#m2bc3b04ce5" y="135.112245"/>
     <use style="fill:#0000ff;stroke:#0000ff;" x="354.55624" xlink:href="#m2bc3b04ce5" y="143.274031"/>
     <use style="fill:#0000ff;stroke:#0000ff;" x="261.110093" xlink:href="#m2bc3b04ce5" y="196.091725"/>
     <use style="fill:#0000ff;stroke:#0000ff;" x="306.902288" xlink:href="#m2bc3b04ce5" y="222.110842"/>
     <use style="fill:#0000ff;stroke:#0000ff;" x="252.906895" xlink:href="#m2bc3b04ce5" y="139.238065"/>
     <use style="fill:#0000ff;stroke:#0000ff;" x="287.03396" xlink:href="#m2bc3b04ce5" y="251.054809"/>
     <use style="fill:#0000ff;stroke:#0000ff;" x="222.692386" xlink:href="#m2bc3b04ce5" y="235.496357"/>
     <use style="fill:#0000ff;stroke:#0000ff;" x="237.346214" xlink:href="#m2bc3b04ce5" y="228.697296"/>
     <use style="fill:#0000ff;stroke:#0000ff;" x="282.774029" xlink:href="#m2bc3b04ce5" y="172.991359"/>
     <use style="fill:#0000ff;stroke:#0000ff;" x="193.210205" xlink:href="#m2bc3b04ce5" y="199.867795"/>
     <use style="fill:#0000ff;stroke:#0000ff;" x="183.30597" xlink:href="#m2bc3b04ce5" y="133.120721"/>
     <use style="fill:#0000ff;stroke:#0000ff;" x="130.609557" xlink:href="#m2bc3b04ce5" y="171.087981"/>
     <use style="fill:#0000ff;stroke:#0000ff;" x="209.096633" xlink:href="#m2bc3b04ce5" y="204.102778"/>
     <use style="fill:#0000ff;stroke:#0000ff;" x="222.038221" xlink:href="#m2bc3b04ce5" y="202.543482"/>
     <use style="fill:#0000ff;stroke:#0000ff;" x="125.277088" xlink:href="#m2bc3b04ce5" y="229.14189"/>
     <use style="fill:#0000ff;stroke:#0000ff;" x="285.083416" xlink:href="#m2bc3b04ce5" y="242.93703"/>
     <use style="fill:#0000ff;stroke:#0000ff;" x="215.209602" xlink:href="#m2bc3b04ce5" y="104.080167"/>
     <use style="fill:#0000ff;stroke:#0000ff;" x="206.892383" xlink:href="#m2bc3b04ce5" y="142.836312"/>
     <use style="fill:#0000ff;stroke:#0000ff;" x="195.134737" xlink:href="#m2bc3b04ce5" y="139.544457"/>
     <use style="fill:#0000ff;stroke:#0000ff;" x="234.277985" xlink:href="#m2bc3b04ce5" y="217.421435"/>
     <use style="fill:#0000ff;stroke:#0000ff;" x="281.021363" xlink:href="#m2bc3b04ce5" y="158.359625"/>
     <use style="fill:#0000ff;stroke:#0000ff;" x="318.337236" xlink:href="#m2bc3b04ce5" y="208.126985"/>
    </g>
   </g>
   <g id="PathCollection_2">
    <defs>
     <path d="M -3 3 
L 3 3 
L 3 -3 
L -3 -3 
z
" id="m4e42248430" style="stroke:#008000;"/>
    </defs>
    <g clip-path="url(#p421a09aa76)">
     <use style="fill:#008000;stroke:#008000;" x="239.672085" xlink:href="#m4e42248430" y="110.763176"/>
     <use style="fill:#008000;stroke:#008000;" x="294.881777" xlink:href="#m4e42248430" y="197.519015"/>
     <use style="fill:#008000;stroke:#008000;" x="209.333596" xlink:href="#m4e42248430" y="152.185256"/>
     <use style="fill:#008000;stroke:#008000;" x="190.946717" xlink:href="#m4e42248430" y="176.855276"/>
     <use style="fill:#008000;stroke:#008000;" x="350.905682" xlink:href="#m4e42248430" y="191.334187"/>
     <use style="fill:#008000;stroke:#008000;" x="347.877134" xlink:href="#m4e42248430" y="244.509141"/>
     <use style="fill:#008000;stroke:#008000;" x="200.904475" xlink:href="#m4e42248430" y="132.116059"/>
     <use style="fill:#008000;stroke:#008000;" x="204.292703" xlink:href="#m4e42248430" y="132.807887"/>
     <use style="fill:#008000;stroke:#008000;" x="177.492228" xlink:href="#m4e42248430" y="150.134081"/>
     <use style="fill:#008000;stroke:#008000;" x="279.522781" xlink:href="#m4e42248430" y="165.034323"/>
     <use style="fill:#008000;stroke:#008000;" x="229.629756" xlink:href="#m4e42248430" y="173.077691"/>
     <use style="fill:#008000;stroke:#008000;" x="265.705659" xlink:href="#m4e42248430" y="94.797161"/>
     <use style="fill:#008000;stroke:#008000;" x="268.698213" xlink:href="#m4e42248430" y="225.536103"/>
     <use style="fill:#008000;stroke:#008000;" x="220.90778" xlink:href="#m4e42248430" y="158.000214"/>
     <use style="fill:#008000;stroke:#008000;" x="385.158092" xlink:href="#m4e42248430" y="151.013286"/>
     <use style="fill:#008000;stroke:#008000;" x="171.50396" xlink:href="#m4e42248430" y="172.052119"/>
     <use style="fill:#008000;stroke:#008000;" x="303.351082" xlink:href="#m4e42248430" y="180.940379"/>
     <use style="fill:#008000;stroke:#008000;" x="247.217385" xlink:href="#m4e42248430" y="115.56152"/>
     <use style="fill:#008000;stroke:#008000;" x="219.800694" xlink:href="#m4e42248430" y="126.176556"/>
     <use style="fill:#008000;stroke:#008000;" x="205.177761" xlink:href="#m4e42248430" y="183.104005"/>
     <use style="fill:#008000;stroke:#008000;" x="223.795011" xlink:href="#m4e42248430" y="172.593414"/>
     <use style="fill:#008000;stroke:#008000;" x="255.95733" xlink:href="#m4e42248430" y="215.803069"/>
     <use style="fill:#008000;stroke:#008000;" x="250.462837" xlink:href="#m4e42248430" y="117.154423"/>
     <use style="fill:#008000;stroke:#008000;" x="264.614348" xlink:href="#m4e42248430" y="221.375736"/>
     <use style="fill:#008000;stroke:#008000;" x="215.354807" xlink:href="#m4e42248430" y="188.354594"/>
     <use style="fill:#008000;stroke:#008000;" x="319.202492" xlink:href="#m4e42248430" y="246.496928"/>
     <use style="fill:#008000;stroke:#008000;" x="285.514651" xlink:href="#m4e42248430" y="123.2124"/>
     <use style="fill:#008000;stroke:#008000;" x="183.873124" xlink:href="#m4e42248430" y="160.565254"/>
     <use style="fill:#008000;stroke:#008000;" x="125.927715" xlink:href="#m4e42248430" y="188.064769"/>
     <use style="fill:#008000;stroke:#008000;" x="333.60989" xlink:href="#m4e42248430" y="156.293949"/>
     <use style="fill:#008000;stroke:#008000;" x="340.552196" xlink:href="#m4e42248430" y="222.035611"/>
     <use style="fill:#008000;stroke:#008000;" x="203.894341" xlink:href="#m4e42248430" y="141.857465"/>
     <use style="fill:#008000;stroke:#008000;" x="151.244793" xlink:href="#m4e42248430" y="243.474207"/>
     <use style="fill:#008000;stroke:#008000;" x="179.286058" xlink:href="#m4e42248430" y="140.058002"/>
     <use style="fill:#008000;stroke:#008000;" x="292.953752" xlink:href="#m4e42248430" y="111.371826"/>
     <use style="fill:#008000;stroke:#008000;" x="258.944002" xlink:href="#m4e42248430" y="176.987809"/>
     <use style="fill:#008000;stroke:#008000;" x="246.873579" xlink:href="#m4e42248430" y="236.017887"/>
     <use style="fill:#008000;stroke:#008000;" x="286.187251" xlink:href="#m4e42248430" y="187.197642"/>
     <use style="fill:#008000;stroke:#008000;" x="197.979091" xlink:href="#m4e42248430" y="225.813647"/>
     <use style="fill:#008000;stroke:#008000;" x="336.010828" xlink:href="#m4e42248430" y="205.474991"/>
     <use style="fill:#008000;stroke:#008000;" x="219.696263" xlink:href="#m4e42248430" y="216.206961"/>
     <use style="fill:#008000;stroke:#008000;" x="202.839215" xlink:href="#m4e42248430" y="238.955593"/>
     <use style="fill:#008000;stroke:#008000;" x="283.047686" xlink:href="#m4e42248430" y="74.875977"/>
     <use style="fill:#008000;stroke:#008000;" x="289.824232" xlink:href="#m4e42248430" y="145.515868"/>
     <use style="fill:#008000;stroke:#008000;" x="260.197703" xlink:href="#m4e42248430" y="149.795959"/>
     <use style="fill:#008000;stroke:#008000;" x="237.256988" xlink:href="#m4e42248430" y="215.23009"/>
     <use style="fill:#008000;stroke:#008000;" x="251.984273" xlink:href="#m4e42248430" y="185.291561"/>
     <use style="fill:#008000;stroke:#008000;" x="378.46413" xlink:href="#m4e42248430" y="143.200552"/>
     <use style="fill:#008000;stroke:#008000;" x="186.540588" xlink:href="#m4e42248430" y="129.149248"/>
     <use style="fill:#008000;stroke:#008000;" x="258.219276" xlink:href="#m4e42248430" y="143.290789"/>
     <use style="fill:#008000;stroke:#008000;" x="349.050055" xlink:href="#m4e42248430" y="165.6335"/>
     <use style="fill:#008000;stroke:#008000;" x="218.505698" xlink:href="#m4e42248430" y="181.260512"/>
     <use style="fill:#008000;stroke:#008000;" x="241.543231" xlink:href="#m4e42248430" y="210.485044"/>
     <use style="fill:#008000;stroke:#008000;" x="198.242707" xlink:href="#m4e42248430" y="153.975283"/>
     <use style="fill:#008000;stroke:#008000;" x="282.225727" xlink:href="#m4e42248430" y="206.032715"/>
     <use style="fill:#008000;stroke:#008000;" x="163.383299" xlink:href="#m4e42248430" y="152.552069"/>
     <use style="fill:#008000;stroke:#008000;" x="216.673251" xlink:href="#m4e42248430" y="270.969941"/>
     <use style="fill:#008000;stroke:#008000;" x="150.798136" xlink:href="#m4e42248430" y="219.921283"/>
     <use style="fill:#008000;stroke:#008000;" x="248.144019" xlink:href="#m4e42248430" y="129.208781"/>
     <use style="fill:#008000;stroke:#008000;" x="248.136035" xlink:href="#m4e42248430" y="192.898608"/>
     <use style="fill:#008000;stroke:#008000;" x="257.591516" xlink:href="#m4e42248430" y="127.035529"/>
     <use style="fill:#008000;stroke:#008000;" x="245.247335" xlink:href="#m4e42248430" y="206.168219"/>
     <use style="fill:#008000;stroke:#008000;" x="178.158742" xlink:href="#m4e42248430" y="162.380587"/>
     <use style="fill:#008000;stroke:#008000;" x="331.746936" xlink:href="#m4e42248430" y="140.151245"/>
     <use style="fill:#008000;stroke:#008000;" x="236.663043" xlink:href="#m4e42248430" y="174.272423"/>
     <use style="fill:#008000;stroke:#008000;" x="209.701741" xlink:href="#m4e42248430" y="124.848769"/>
     <use style="fill:#008000;stroke:#008000;" x="246.928716" xlink:href="#m4e42248430" y="167.517078"/>
     <use style="fill:#008000;stroke:#008000;" x="295.989383" xlink:href="#m4e42248430" y="196.704263"/>
     <use style="fill:#008000;stroke:#008000;" x="202.994307" xlink:href="#m4e42248430" y="221.328421"/>
     <use style="fill:#008000;stroke:#008000;" x="213.625074" xlink:href="#m4e42248430" y="138.679816"/>
     <use style="fill:#008000;stroke:#008000;" x="307.447198" xlink:href="#m4e42248430" y="191.46013"/>
     <use style="fill:#008000;stroke:#008000;" x="290.079859" xlink:href="#m4e42248430" y="102.34116"/>
     <use style="fill:#008000;stroke:#008000;" x="208.299274" xlink:href="#m4e42248430" y="180.011781"/>
     <use style="fill:#008000;stroke:#008000;" x="245.058073" xlink:href="#m4e42248430" y="249.294109"/>
     <use style="fill:#008000;stroke:#008000;" x="239.575662" xlink:href="#m4e42248430" y="211.932382"/>
     <use style="fill:#008000;stroke:#008000;" x="199.371561" xlink:href="#m4e42248430" y="209.664411"/>
     <use style="fill:#008000;stroke:#008000;" x="152.966909" xlink:href="#m4e42248430" y="275.641499"/>
     <use style="fill:#008000;stroke:#008000;" x="150.908548" xlink:href="#m4e42248430" y="158.544258"/>
     <use style="fill:#008000;stroke:#008000;" x="260.158292" xlink:href="#m4e42248430" y="125.943467"/>
     <use style="fill:#008000;stroke:#008000;" x="163.7083" xlink:href="#m4e42248430" y="169.826087"/>
     <use style="fill:#008000;stroke:#008000;" x="162.566301" xlink:href="#m4e42248430" y="269.376267"/>
     <use style="fill:#008000;stroke:#008000;" x="176.252408" xlink:href="#m4e42248430" y="169.355226"/>
     <use style="fill:#008000;stroke:#008000;" x="268.54872" xlink:href="#m4e42248430" y="93.501864"/>
     <use style="fill:#008000;stroke:#008000;" x="376.398185" xlink:href="#m4e42248430" y="145.516304"/>
     <use style="fill:#008000;stroke:#008000;" x="300.878955" xlink:href="#m4e42248430" y="220.96924"/>
     <use style="fill:#008000;stroke:#008000;" x="223.943139" xlink:href="#m4e42248430" y="108.004447"/>
     <use style="fill:#008000;stroke:#008000;" x="384.771162" xlink:href="#m4e42248430" y="160.850504"/>
     <use style="fill:#008000;stroke:#008000;" x="293.156979" xlink:href="#m4e42248430" y="242.570489"/>
     <use style="fill:#008000;stroke:#008000;" x="176.52632" xlink:href="#m4e42248430" y="171.541885"/>
     <use style="fill:#008000;stroke:#008000;" x="154.510901" xlink:href="#m4e42248430" y="153.50623"/>
     <use style="fill:#008000;stroke:#008000;" x="239.419921" xlink:href="#m4e42248430" y="272.546701"/>
     <use style="fill:#008000;stroke:#008000;" x="120.260715" xlink:href="#m4e42248430" y="177.904507"/>
     <use style="fill:#008000;stroke:#008000;" x="274.930974" xlink:href="#m4e42248430" y="166.023893"/>
     <use style="fill:#008000;stroke:#008000;" x="157.217126" xlink:href="#m4e42248430" y="161.068133"/>
     <use style="fill:#008000;stroke:#008000;" x="229.89043" xlink:href="#m4e42248430" y="124.326925"/>
     <use style="fill:#008000;stroke:#008000;" x="343.949689" xlink:href="#m4e42248430" y="168.589263"/>
     <use style="fill:#008000;stroke:#008000;" x="236.628837" xlink:href="#m4e42248430" y="211.711909"/>
     <use style="fill:#008000;stroke:#008000;" x="291.42478" xlink:href="#m4e42248430" y="123.641225"/>
     <use style="fill:#008000;stroke:#008000;" x="240.37171" xlink:href="#m4e42248430" y="154.827302"/>
     <use style="fill:#008000;stroke:#008000;" x="267.686619" xlink:href="#m4e42248430" y="141.898989"/>
     <use style="fill:#008000;stroke:#008000;" x="197.617352" xlink:href="#m4e42248430" y="210.954801"/>
     <use style="fill:#008000;stroke:#008000;" x="229.392195" xlink:href="#m4e42248430" y="152.555155"/>
     <use style="fill:#008000;stroke:#008000;" x="181.455853" xlink:href="#m4e42248430" y="175.876231"/>
     <use style="fill:#008000;stroke:#008000;" x="258.8868" xlink:href="#m4e42248430" y="155.536552"/>
     <use style="fill:#008000;stroke:#008000;" x="246.177712" xlink:href="#m4e42248430" y="127.470992"/>
     <use style="fill:#008000;stroke:#008000;" x="277.419243" xlink:href="#m4e42248430" y="139.515999"/>
     <use style="fill:#008000;stroke:#008000;" x="203.818755" xlink:href="#m4e42248430" y="133.952571"/>
     <use style="fill:#008000;stroke:#008000;" x="227.526563" xlink:href="#m4e42248430" y="235.920599"/>
     <use style="fill:#008000;stroke:#008000;" x="273.359226" xlink:href="#m4e42248430" y="113.048705"/>
     <use style="fill:#008000;stroke:#008000;" x="235.813109" xlink:href="#m4e42248430" y="189.226522"/>
     <use style="fill:#008000;stroke:#008000;" x="328.096197" xlink:href="#m4e42248430" y="175.474743"/>
     <use style="fill:#008000;stroke:#008000;" x="252.121618" xlink:href="#m4e42248430" y="130.263119"/>
     <use style="fill:#008000;stroke:#008000;" x="323.967728" xlink:href="#m4e42248430" y="246.175833"/>
     <use style="fill:#008000;stroke:#008000;" x="255.937417" xlink:href="#m4e42248430" y="142.581169"/>
     <use style="fill:#008000;stroke:#008000;" x="139.476317" xlink:href="#m4e42248430" y="160.585375"/>
     <use style="fill:#008000;stroke:#008000;" x="192.133725" xlink:href="#m4e42248430" y="144.93619"/>
     <use style="fill:#008000;stroke:#008000;" x="149.856023" xlink:href="#m4e42248430" y="162.50269"/>
     <use style="fill:#008000;stroke:#008000;" x="246.591686" xlink:href="#m4e42248430" y="159.804501"/>
     <use style="fill:#008000;stroke:#008000;" x="276.754112" xlink:href="#m4e42248430" y="250.656137"/>
     <use style="fill:#008000;stroke:#008000;" x="156.225231" xlink:href="#m4e42248430" y="161.001719"/>
     <use style="fill:#008000;stroke:#008000;" x="291.893307" xlink:href="#m4e42248430" y="133.64522"/>
     <use style="fill:#008000;stroke:#008000;" x="349.329268" xlink:href="#m4e42248430" y="247.421203"/>
     <use style="fill:#008000;stroke:#008000;" x="267.394074" xlink:href="#m4e42248430" y="130.969492"/>
     <use style="fill:#008000;stroke:#008000;" x="294.528814" xlink:href="#m4e42248430" y="160.36433"/>
     <use style="fill:#008000;stroke:#008000;" x="359.016361" xlink:href="#m4e42248430" y="210.04553"/>
     <use style="fill:#008000;stroke:#008000;" x="288.501558" xlink:href="#m4e42248430" y="233.258211"/>
     <use style="fill:#008000;stroke:#008000;" x="269.534928" xlink:href="#m4e42248430" y="181.933949"/>
     <use style="fill:#008000;stroke:#008000;" x="135.22832" xlink:href="#m4e42248430" y="179.631176"/>
     <use style="fill:#008000;stroke:#008000;" x="269.442534" xlink:href="#m4e42248430" y="103.19302"/>
     <use style="fill:#008000;stroke:#008000;" x="128.732609" xlink:href="#m4e42248430" y="191.573844"/>
     <use style="fill:#008000;stroke:#008000;" x="217.080644" xlink:href="#m4e42248430" y="121.012971"/>
     <use style="fill:#008000;stroke:#008000;" x="179.699279" xlink:href="#m4e42248430" y="222.543178"/>
     <use style="fill:#008000;stroke:#008000;" x="190.684624" xlink:href="#m4e42248430" y="160.331033"/>
    </g>
   </g>
   <g id="matplotlib.axis_1">
    <g id="xtick_1">
     <g id="line2d_1">
      <path clip-path="url(#p421a09aa76)" d="M 73.832727 307.584 
L 73.832727 41.472 
" style="fill:none;stroke:#b0b0b0;stroke-dasharray:2.96,1.28;stroke-dashoffset:0;stroke-width:0.8;"/>
     </g>
     <g id="line2d_2">
      <defs>
       <path d="M 0 0 
L 0 3.5 
" id="m52c316203c" style="stroke:#000000;stroke-width:0.8;"/>
      </defs>
      <g>
       <use style="stroke:#000000;stroke-width:0.8;" x="73.832727" xlink:href="#m52c316203c" y="307.584"/>
      </g>
     </g>
     <g id="text_1">
      <!-- 0 -->
      <g transform="translate(71.332727 321.459)scale(0.1 -0.1)">
       <defs>
        <path d="M 3.125 29.296875 
Q 3.90625 50 6.4375 56.046875 
Q 8.984375 62.109375 13.671875 66.015625 
Q 18.359375 69.921875 25.1875 69.921875 
Q 32.03125 69.921875 37.109375 64.25 
Q 42.1875 58.59375 43.75 50 
Q 45.3125 41.40625 44.71875 30.265625 
Q 44.140625 19.140625 40.8125 12.109375 
Q 37.5 5.078125 30.859375 2.34375 
Q 24.21875 -0.390625 17.578125 2.921875 
Q 10.9375 6.25 8.203125 11.71875 
Q 5.46875 17.1875 4.296875 23.234375 
Q 3.125 29.296875 3.90625 50 
z
M 12.890625 52.734375 
Q 10.546875 31.25 12.5 22.84375 
Q 14.453125 14.453125 18.9375 10.9375 
Q 23.4375 7.421875 28.125 9.5625 
Q 32.8125 11.71875 34.953125 18.15625 
Q 37.109375 24.609375 37.109375 32.21875 
Q 37.109375 39.84375 36.515625 46.09375 
Q 35.9375 52.34375 33 57.421875 
Q 30.078125 62.5 25.1875 62.6875 
Q 20.3125 62.890625 16.59375 57.8125 
Q 12.890625 52.734375 10.546875 31.25 
z
" id="SimHei-48"/>
       </defs>
       <use xlink:href="#SimHei-48"/>
      </g>
     </g>
    </g>
    <g id="xtick_2">
     <g id="line2d_3">
      <path clip-path="url(#p421a09aa76)" d="M 127.941818 307.584 
L 127.941818 41.472 
" style="fill:none;stroke:#b0b0b0;stroke-dasharray:2.96,1.28;stroke-dashoffset:0;stroke-width:0.8;"/>
     </g>
     <g id="line2d_4">
      <g>
       <use style="stroke:#000000;stroke-width:0.8;" x="127.941818" xlink:href="#m52c316203c" y="307.584"/>
      </g>
     </g>
     <g id="text_2">
      <!-- 50 -->
      <g transform="translate(122.941818 321.459)scale(0.1 -0.1)">
       <defs>
        <path d="M 8.59375 20.703125 
Q 11.328125 10.15625 17.96875 8.984375 
Q 24.609375 7.8125 28.703125 10.34375 
Q 32.8125 12.890625 34.5625 16.984375 
Q 36.328125 21.09375 36.125 26.171875 
Q 35.9375 31.25 33.390625 34.765625 
Q 30.859375 38.28125 26.953125 39.453125 
Q 23.046875 40.625 18.15625 39.453125 
Q 13.28125 38.28125 10.15625 33.984375 
L 3.515625 34.765625 
Q 4.296875 37.109375 10.9375 68.359375 
L 41.796875 68.359375 
L 41.796875 61.328125 
L 16.796875 61.328125 
Q 14.84375 50.78125 12.890625 44.53125 
Q 18.75 47.265625 23.828125 47.0625 
Q 28.90625 46.875 33.59375 44.71875 
Q 38.28125 42.578125 40.421875 38.859375 
Q 42.578125 35.15625 43.546875 31.4375 
Q 44.53125 27.734375 44.328125 23.4375 
Q 44.140625 19.140625 42.578125 14.640625 
Q 41.015625 10.15625 37.890625 7.21875 
Q 34.765625 4.296875 30.265625 2.53125 
Q 25.78125 0.78125 19.921875 1.171875 
Q 14.0625 1.5625 8.78125 5.46875 
Q 3.515625 9.375 1.5625 18.75 
z
" id="SimHei-53"/>
       </defs>
       <use xlink:href="#SimHei-53"/>
       <use x="50" xlink:href="#SimHei-48"/>
      </g>
     </g>
    </g>
    <g id="xtick_3">
     <g id="line2d_5">
      <path clip-path="url(#p421a09aa76)" d="M 182.050909 307.584 
L 182.050909 41.472 
" style="fill:none;stroke:#b0b0b0;stroke-dasharray:2.96,1.28;stroke-dashoffset:0;stroke-width:0.8;"/>
     </g>
     <g id="line2d_6">
      <g>
       <use style="stroke:#000000;stroke-width:0.8;" x="182.050909" xlink:href="#m52c316203c" y="307.584"/>
      </g>
     </g>
     <g id="text_3">
      <!-- 100 -->
      <g transform="translate(174.550909 321.459)scale(0.1 -0.1)">
       <defs>
        <path d="M 21.875 56.25 
Q 16.796875 51.171875 8.984375 46.484375 
L 8.984375 53.90625 
Q 18.75 60.546875 25 69.53125 
L 29.6875 69.53125 
L 29.6875 2.34375 
L 21.875 2.34375 
z
" id="SimHei-49"/>
       </defs>
       <use xlink:href="#SimHei-49"/>
       <use x="50" xlink:href="#SimHei-48"/>
       <use x="100" xlink:href="#SimHei-48"/>
      </g>
     </g>
    </g>
    <g id="xtick_4">
     <g id="line2d_7">
      <path clip-path="url(#p421a09aa76)" d="M 236.16 307.584 
L 236.16 41.472 
" style="fill:none;stroke:#b0b0b0;stroke-dasharray:2.96,1.28;stroke-dashoffset:0;stroke-width:0.8;"/>
     </g>
     <g id="line2d_8">
      <g>
       <use style="stroke:#000000;stroke-width:0.8;" x="236.16" xlink:href="#m52c316203c" y="307.584"/>
      </g>
     </g>
     <g id="text_4">
      <!-- 150 -->
      <g transform="translate(228.66 321.459)scale(0.1 -0.1)">
       <use xlink:href="#SimHei-49"/>
       <use x="50" xlink:href="#SimHei-53"/>
       <use x="100" xlink:href="#SimHei-48"/>
      </g>
     </g>
    </g>
    <g id="xtick_5">
     <g id="line2d_9">
      <path clip-path="url(#p421a09aa76)" d="M 290.269091 307.584 
L 290.269091 41.472 
" style="fill:none;stroke:#b0b0b0;stroke-dasharray:2.96,1.28;stroke-dashoffset:0;stroke-width:0.8;"/>
     </g>
     <g id="line2d_10">
      <g>
       <use style="stroke:#000000;stroke-width:0.8;" x="290.269091" xlink:href="#m52c316203c" y="307.584"/>
      </g>
     </g>
     <g id="text_5">
      <!-- 200 -->
      <g transform="translate(282.769091 321.459)scale(0.1 -0.1)">
       <defs>
        <path d="M 4.6875 3.90625 
Q 5.078125 9.765625 10.15625 14.453125 
Q 15.234375 19.140625 23.046875 29.09375 
Q 30.859375 39.0625 33.203125 44.53125 
Q 35.546875 50 34.953125 53.90625 
Q 34.375 57.8125 31.25 60.34375 
Q 28.125 62.890625 24.015625 62.5 
Q 19.921875 62.109375 16.203125 59.375 
Q 12.5 56.640625 10.546875 51.171875 
L 3.125 52.34375 
Q 6.25 61.328125 11.125 65.421875 
Q 16.015625 69.53125 22.65625 69.921875 
Q 26.5625 70.3125 29.6875 69.71875 
Q 32.8125 69.140625 36.125 66.984375 
Q 39.453125 64.84375 41.59375 60.546875 
Q 43.75 56.25 43.15625 50.1875 
Q 42.578125 44.140625 37.109375 35.734375 
Q 31.640625 27.34375 16.015625 9.375 
L 44.140625 9.375 
L 44.140625 2.34375 
L 4.6875 2.34375 
z
" id="SimHei-50"/>
       </defs>
       <use xlink:href="#SimHei-50"/>
       <use x="50" xlink:href="#SimHei-48"/>
       <use x="100" xlink:href="#SimHei-48"/>
      </g>
     </g>
    </g>
    <g id="xtick_6">
     <g id="line2d_11">
      <path clip-path="url(#p421a09aa76)" d="M 344.378182 307.584 
L 344.378182 41.472 
" style="fill:none;stroke:#b0b0b0;stroke-dasharray:2.96,1.28;stroke-dashoffset:0;stroke-width:0.8;"/>
     </g>
     <g id="line2d_12">
      <g>
       <use style="stroke:#000000;stroke-width:0.8;" x="344.378182" xlink:href="#m52c316203c" y="307.584"/>
      </g>
     </g>
     <g id="text_6">
      <!-- 250 -->
      <g transform="translate(336.878182 321.459)scale(0.1 -0.1)">
       <use xlink:href="#SimHei-50"/>
       <use x="50" xlink:href="#SimHei-53"/>
       <use x="100" xlink:href="#SimHei-48"/>
      </g>
     </g>
    </g>
    <g id="xtick_7">
     <g id="line2d_13">
      <path clip-path="url(#p421a09aa76)" d="M 398.487273 307.584 
L 398.487273 41.472 
" style="fill:none;stroke:#b0b0b0;stroke-dasharray:2.96,1.28;stroke-dashoffset:0;stroke-width:0.8;"/>
     </g>
     <g id="line2d_14">
      <g>
       <use style="stroke:#000000;stroke-width:0.8;" x="398.487273" xlink:href="#m52c316203c" y="307.584"/>
      </g>
     </g>
     <g id="text_7">
      <!-- 300 -->
      <g transform="translate(390.987273 321.459)scale(0.1 -0.1)">
       <defs>
        <path d="M 3.90625 19.140625 
L 10.9375 20.3125 
Q 12.5 15.234375 16.015625 11.90625 
Q 19.53125 8.59375 24.796875 8.78125 
Q 30.078125 8.984375 33.203125 13.078125 
Q 36.328125 17.1875 35.9375 22.453125 
Q 35.546875 27.734375 31.828125 30.65625 
Q 28.125 33.59375 19.921875 34.765625 
L 19.921875 39.84375 
Q 28.125 40.625 31.828125 44.140625 
Q 35.546875 47.65625 35.15625 53.3125 
Q 34.765625 58.984375 30.078125 61.515625 
Q 25.390625 64.0625 20.109375 62.109375 
Q 14.84375 60.15625 11.71875 51.171875 
L 4.6875 52.34375 
Q 7.03125 59.375 11.125 64.0625 
Q 15.234375 68.75 22.265625 69.53125 
Q 29.296875 70.3125 34.5625 67.765625 
Q 39.84375 65.234375 41.984375 59.953125 
Q 44.140625 54.6875 42.578125 48.4375 
Q 41.015625 42.1875 33.59375 37.5 
Q 39.0625 35.15625 41.984375 30.46875 
Q 44.921875 25.78125 43.9375 18.15625 
Q 42.96875 10.546875 37.109375 5.859375 
Q 31.25 1.171875 23.828125 1.359375 
Q 16.40625 1.5625 10.9375 6.046875 
Q 5.46875 10.546875 3.90625 19.140625 
z
" id="SimHei-51"/>
       </defs>
       <use xlink:href="#SimHei-51"/>
       <use x="50" xlink:href="#SimHei-48"/>
       <use x="100" xlink:href="#SimHei-48"/>
      </g>
     </g>
    </g>
    <g id="text_8">
     <!--  -->
     <g transform="translate(221.16 334.560562)scale(0.1 -0.1)">
      <defs>
       <path d="M 81.25 75 
Q 87.109375 75 92.96875 75.390625 
L 92.96875 68.75 
Q 87.109375 69.140625 81.25 69.140625 
L 70.3125 69.140625 
Q 69.140625 63.28125 67.96875 56.25 
L 89.453125 56.25 
Q 89.0625 50.390625 89.0625 43.75 
L 89.0625 26.953125 
Q 89.0625 20.3125 89.453125 13.28125 
L 82.03125 13.28125 
L 82.03125 50.390625 
L 55.46875 50.390625 
L 55.46875 12.5 
L 48.046875 12.5 
Q 48.4375 21.484375 48.4375 26.953125 
L 48.4375 43.359375 
Q 48.4375 49.609375 48.046875 56.25 
L 60.9375 56.25 
Q 62.5 64.84375 62.5 69.140625 
L 58.203125 69.140625 
Q 51.5625 69.140625 44.53125 68.75 
L 44.53125 75.390625 
Q 51.953125 75 58.203125 75 
z
M 40.625 27.734375 
Q 36.71875 28.515625 33.59375 28.515625 
Q 35.15625 35.15625 35.9375 38.28125 
L 27.34375 38.28125 
L 27.34375 1.953125 
Q 26.953125 -4.6875 22.265625 -6.25 
Q 17.578125 -7.8125 11.71875 -7.8125 
Q 10.9375 -3.515625 8.984375 0.390625 
Q 17.578125 -0.390625 18.9375 0.578125 
Q 20.3125 1.5625 20.3125 5.46875 
L 20.3125 38.28125 
L 16.015625 38.28125 
Q 10.9375 38.28125 5.46875 37.890625 
L 5.46875 44.53125 
Q 10.9375 44.140625 15.625 44.140625 
L 44.53125 44.140625 
Q 42.578125 36.328125 40.625 27.734375 
z
M 73.828125 44.921875 
Q 72.265625 40.234375 71.875 32.8125 
Q 71.484375 25.390625 69.71875 16.203125 
Q 67.96875 7.03125 61.90625 0.96875 
Q 55.859375 -5.078125 45.703125 -10.546875 
Q 42.1875 -7.8125 38.671875 -5.46875 
Q 48.046875 -1.953125 53.703125 3.125 
Q 59.375 8.203125 61.71875 14.640625 
Q 64.0625 21.09375 64.640625 28.90625 
Q 65.234375 36.71875 65.234375 45.703125 
L 73.828125 44.921875 
z
M 25.390625 45.3125 
Q 19.921875 51.171875 12.5 57.03125 
Q 14.453125 58.984375 16.796875 61.71875 
Q 19.53125 59.765625 22.265625 57.421875 
Q 27.34375 64.84375 30.46875 68.359375 
L 21.875 68.359375 
Q 14.0625 68.359375 7.03125 67.96875 
L 7.03125 74.609375 
Q 14.0625 74.21875 21.484375 74.21875 
L 40.234375 74.21875 
L 40.234375 68.359375 
Q 34.375 64.0625 26.953125 53.125 
L 30.46875 50 
Q 27.34375 47.265625 25.390625 45.3125 
z
M 74.609375 11.328125 
Q 89.453125 0 94.921875 -5.078125 
Q 91.40625 -7.8125 89.453125 -10.15625 
Q 84.375 -5.078125 80.265625 -1.359375 
Q 76.171875 2.34375 70.703125 5.46875 
Q 72.65625 8.203125 74.609375 11.328125 
z
" id="SimHei-39044"/>
       <path d="M 62.890625 73.828125 
Q 62.5 69.921875 62.5 62.5 
L 62.5 34.765625 
Q 62.5 27.734375 62.890625 21.09375 
L 55.46875 21.09375 
L 55.46875 67.578125 
L 36.71875 67.578125 
L 36.71875 20.703125 
L 29.6875 20.703125 
Q 30.078125 27.734375 30.078125 34.765625 
L 30.078125 62.5 
Q 30.078125 65.625 29.6875 73.828125 
L 62.890625 73.828125 
z
M 92.1875 79.296875 
Q 91.796875 75 91.796875 68.359375 
L 91.796875 0 
Q 91.796875 -5.078125 88.28125 -6.640625 
Q 84.765625 -8.203125 77.734375 -9.375 
Q 76.953125 -5.078125 74.609375 -0.78125 
Q 80.078125 -0.78125 82.21875 -0.390625 
Q 84.375 0 84.375 3.90625 
L 84.375 68.359375 
Q 84.375 74.609375 83.984375 79.296875 
L 92.1875 79.296875 
z
M 51.171875 58.203125 
Q 50.390625 53.125 50 36.328125 
Q 49.609375 19.53125 44.328125 8.59375 
Q 39.0625 -2.34375 32.421875 -9.375 
Q 28.90625 -6.25 25 -5.078125 
Q 34.375 3.90625 38.671875 15.03125 
Q 42.96875 26.171875 43.15625 38.671875 
Q 43.359375 51.171875 42.578125 59.375 
Q 46.875 58.59375 51.171875 58.203125 
z
M 77.34375 66.796875 
Q 76.953125 62.5 76.953125 55.859375 
L 76.953125 28.515625 
Q 76.953125 20.3125 77.34375 13.28125 
L 69.53125 13.28125 
Q 69.921875 17.96875 69.921875 28.515625 
L 69.921875 55.859375 
Q 69.921875 62.5 69.53125 66.796875 
L 77.34375 66.796875 
z
M 26.5625 26.171875 
Q 21.484375 16.796875 17.375 7.609375 
Q 13.28125 -1.5625 11.328125 -6.25 
Q 7.8125 -3.125 3.125 -0.390625 
Q 7.421875 4.6875 11.90625 13.28125 
Q 16.40625 21.875 19.53125 31.25 
Q 23.046875 28.515625 26.5625 26.171875 
z
M 53.125 16.40625 
Q 59.375 10.15625 67.1875 -1.953125 
Q 64.0625 -3.515625 60.546875 -7.03125 
Q 54.296875 4.296875 47.265625 11.71875 
Q 50.390625 13.671875 53.125 16.40625 
z
M 9.375 55.078125 
Q 17.578125 48.828125 23.4375 43.359375 
Q 20.3125 40.234375 17.96875 37.109375 
Q 12.890625 43.359375 4.6875 49.21875 
Q 7.03125 51.5625 9.375 55.078125 
z
M 21.09375 62.5 
Q 14.84375 68.359375 7.421875 73.046875 
Q 9.765625 75.78125 12.109375 78.90625 
Q 20.3125 73.4375 26.171875 68.359375 
Q 23.4375 66.40625 21.09375 62.5 
z
" id="SimHei-27979"/>
       <path d="M 57.421875 69.53125 
L 57.421875 79.6875 
Q 62.109375 79.296875 67.96875 78.90625 
Q 66.015625 76.171875 65.625 69.53125 
L 80.078125 69.53125 
Q 86.71875 69.53125 91.796875 69.921875 
L 91.796875 62.890625 
Q 86.328125 63.28125 80.078125 63.28125 
L 65.234375 63.28125 
L 64.453125 54.6875 
L 84.375 54.6875 
Q 83.984375 50 83.984375 42.1875 
L 83.984375 2.34375 
Q 91.796875 2.34375 95.3125 2.734375 
L 95.3125 -4.296875 
Q 90.234375 -3.90625 81.25 -3.90625 
L 44.53125 -3.90625 
Q 35.546875 -3.90625 29.6875 -4.296875 
L 29.6875 2.734375 
Q 33.203125 2.34375 40.625 2.34375 
L 40.625 42.1875 
Q 40.625 49.609375 40.234375 54.6875 
L 56.25 54.6875 
L 57.03125 63.28125 
L 50 63.28125 
Q 40.234375 63.28125 34.765625 62.890625 
L 34.765625 69.921875 
Q 39.84375 69.53125 50 69.53125 
z
M 34.765625 76.5625 
Q 31.640625 73.046875 25.78125 58.59375 
L 25.78125 7.03125 
Q 25.78125 -1.171875 26.171875 -8.59375 
L 17.96875 -8.59375 
Q 18.359375 -1.953125 18.359375 5.859375 
L 18.359375 46.09375 
Q 13.671875 38.28125 9.765625 33.59375 
Q 6.640625 37.890625 3.90625 40.234375 
Q 7.8125 44.140625 14.640625 55.265625 
Q 21.484375 66.40625 25.390625 80.46875 
Q 30.859375 77.734375 34.765625 76.5625 
z
M 76.953125 41.40625 
L 76.953125 49.21875 
L 48.046875 49.21875 
L 48.046875 41.40625 
z
M 76.953125 2.34375 
L 76.953125 9.765625 
L 48.046875 9.765625 
L 48.046875 2.34375 
z
M 76.953125 15.625 
L 76.953125 22.65625 
L 48.046875 22.65625 
L 48.046875 15.625 
z
M 76.953125 28.515625 
L 76.953125 35.546875 
L 48.046875 35.546875 
L 48.046875 28.515625 
z
" id="SimHei-20540"/>
      </defs>
      <use xlink:href="#SimHei-39044"/>
      <use x="100" xlink:href="#SimHei-27979"/>
      <use x="200" xlink:href="#SimHei-20540"/>
     </g>
    </g>
   </g>
   <g id="matplotlib.axis_2">
    <g id="ytick_1">
     <g id="line2d_15">
      <path clip-path="url(#p421a09aa76)" d="M 57.6 294.049875 
L 414.72 294.049875 
" style="fill:none;stroke:#b0b0b0;stroke-dasharray:2.96,1.28;stroke-dashoffset:0;stroke-width:0.8;"/>
     </g>
     <g id="line2d_16">
      <defs>
       <path d="M 0 0 
L -3.5 0 
" id="mf29e55435d" style="stroke:#000000;stroke-width:0.8;"/>
      </defs>
      <g>
       <use style="stroke:#000000;stroke-width:0.8;" x="57.6" xlink:href="#mf29e55435d" y="294.049875"/>
      </g>
     </g>
     <g id="text_9">
      <!-- -150 -->
      <g transform="translate(30.6 297.487375)scale(0.1 -0.1)">
       <defs>
        <path d="M 46.484375 33.203125 
L 1.953125 33.203125 
L 1.953125 39.453125 
L 46.484375 39.453125 
z
" id="SimHei-45"/>
       </defs>
       <use xlink:href="#SimHei-45"/>
       <use x="50" xlink:href="#SimHei-49"/>
       <use x="100" xlink:href="#SimHei-53"/>
       <use x="150" xlink:href="#SimHei-48"/>
      </g>
     </g>
    </g>
    <g id="ytick_2">
     <g id="line2d_17">
      <path clip-path="url(#p421a09aa76)" d="M 57.6 254.247403 
L 414.72 254.247403 
" style="fill:none;stroke:#b0b0b0;stroke-dasharray:2.96,1.28;stroke-dashoffset:0;stroke-width:0.8;"/>
     </g>
     <g id="line2d_18">
      <g>
       <use style="stroke:#000000;stroke-width:0.8;" x="57.6" xlink:href="#mf29e55435d" y="254.247403"/>
      </g>
     </g>
     <g id="text_10">
      <!-- -100 -->
      <g transform="translate(30.6 257.684903)scale(0.1 -0.1)">
       <use xlink:href="#SimHei-45"/>
       <use x="50" xlink:href="#SimHei-49"/>
       <use x="100" xlink:href="#SimHei-48"/>
       <use x="150" xlink:href="#SimHei-48"/>
      </g>
     </g>
    </g>
    <g id="ytick_3">
     <g id="line2d_19">
      <path clip-path="url(#p421a09aa76)" d="M 57.6 214.444932 
L 414.72 214.444932 
" style="fill:none;stroke:#b0b0b0;stroke-dasharray:2.96,1.28;stroke-dashoffset:0;stroke-width:0.8;"/>
     </g>
     <g id="line2d_20">
      <g>
       <use style="stroke:#000000;stroke-width:0.8;" x="57.6" xlink:href="#mf29e55435d" y="214.444932"/>
      </g>
     </g>
     <g id="text_11">
      <!-- -50 -->
      <g transform="translate(35.6 217.882432)scale(0.1 -0.1)">
       <use xlink:href="#SimHei-45"/>
       <use x="50" xlink:href="#SimHei-53"/>
       <use x="100" xlink:href="#SimHei-48"/>
      </g>
     </g>
    </g>
    <g id="ytick_4">
     <g id="line2d_21">
      <path clip-path="url(#p421a09aa76)" d="M 57.6 174.64246 
L 414.72 174.64246 
" style="fill:none;stroke:#b0b0b0;stroke-dasharray:2.96,1.28;stroke-dashoffset:0;stroke-width:0.8;"/>
     </g>
     <g id="line2d_22">
      <g>
       <use style="stroke:#000000;stroke-width:0.8;" x="57.6" xlink:href="#mf29e55435d" y="174.64246"/>
      </g>
     </g>
     <g id="text_12">
      <!-- 0 -->
      <g transform="translate(45.6 178.07996)scale(0.1 -0.1)">
       <use xlink:href="#SimHei-48"/>
      </g>
     </g>
    </g>
    <g id="ytick_5">
     <g id="line2d_23">
      <path clip-path="url(#p421a09aa76)" d="M 57.6 134.839989 
L 414.72 134.839989 
" style="fill:none;stroke:#b0b0b0;stroke-dasharray:2.96,1.28;stroke-dashoffset:0;stroke-width:0.8;"/>
     </g>
     <g id="line2d_24">
      <g>
       <use style="stroke:#000000;stroke-width:0.8;" x="57.6" xlink:href="#mf29e55435d" y="134.839989"/>
      </g>
     </g>
     <g id="text_13">
      <!-- 50 -->
      <g transform="translate(40.6 138.277489)scale(0.1 -0.1)">
       <use xlink:href="#SimHei-53"/>
       <use x="50" xlink:href="#SimHei-48"/>
      </g>
     </g>
    </g>
    <g id="ytick_6">
     <g id="line2d_25">
      <path clip-path="url(#p421a09aa76)" d="M 57.6 95.037517 
L 414.72 95.037517 
" style="fill:none;stroke:#b0b0b0;stroke-dasharray:2.96,1.28;stroke-dashoffset:0;stroke-width:0.8;"/>
     </g>
     <g id="line2d_26">
      <g>
       <use style="stroke:#000000;stroke-width:0.8;" x="57.6" xlink:href="#mf29e55435d" y="95.037517"/>
      </g>
     </g>
     <g id="text_14">
      <!-- 100 -->
      <g transform="translate(35.6 98.475017)scale(0.1 -0.1)">
       <use xlink:href="#SimHei-49"/>
       <use x="50" xlink:href="#SimHei-48"/>
       <use x="100" xlink:href="#SimHei-48"/>
      </g>
     </g>
    </g>
    <g id="ytick_7">
     <g id="line2d_27">
      <path clip-path="url(#p421a09aa76)" d="M 57.6 55.235046 
L 414.72 55.235046 
" style="fill:none;stroke:#b0b0b0;stroke-dasharray:2.96,1.28;stroke-dashoffset:0;stroke-width:0.8;"/>
     </g>
     <g id="line2d_28">
      <g>
       <use style="stroke:#000000;stroke-width:0.8;" x="57.6" xlink:href="#mf29e55435d" y="55.235046"/>
      </g>
     </g>
     <g id="text_15">
      <!-- 150 -->
      <g transform="translate(35.6 58.672546)scale(0.1 -0.1)">
       <use xlink:href="#SimHei-49"/>
       <use x="50" xlink:href="#SimHei-53"/>
       <use x="100" xlink:href="#SimHei-48"/>
      </g>
     </g>
    </g>
    <g id="text_16">
     <!--  -->
     <g transform="translate(25.271875 189.528)rotate(-90)scale(0.1 -0.1)">
      <defs>
       <path d="M 89.0625 52.34375 
Q 83.203125 51.5625 76.5625 50.390625 
Q 69.921875 49.21875 63.671875 48.046875 
Q 64.0625 42.1875 64.84375 36.328125 
Q 72.265625 37.890625 77.921875 39.0625 
Q 83.59375 40.234375 92.578125 42.578125 
L 93.75 35.15625 
Q 90.234375 34.765625 82.8125 33.390625 
Q 75.390625 32.03125 65.625 29.6875 
Q 67.1875 21.484375 69.921875 16.796875 
Q 78.515625 23.4375 83.203125 30.46875 
Q 86.328125 27.34375 90.625 24.21875 
Q 86.71875 22.265625 83.59375 19.328125 
Q 80.46875 16.40625 73.046875 10.15625 
Q 78.125 3.125 82.421875 0.578125 
Q 86.71875 -1.953125 87.5 -0.1875 
Q 88.28125 1.5625 87.890625 8.203125 
Q 91.015625 5.078125 96.484375 4.6875 
Q 95.703125 -13.28125 85.15625 -9.171875 
Q 74.609375 -5.078125 66.796875 6.25 
Q 61.71875 2.34375 55.265625 -1.171875 
Q 48.828125 -4.6875 41.015625 -8.203125 
Q 38.671875 -3.90625 35.15625 -1.5625 
Q 43.359375 0.78125 50 4.09375 
Q 56.640625 7.421875 63.671875 12.109375 
Q 60.15625 19.140625 58.59375 28.125 
Q 48.4375 26.171875 42.1875 23.828125 
L 40.234375 31.640625 
Q 51.5625 33.203125 57.8125 34.765625 
Q 57.03125 40.625 56.640625 46.875 
Q 50.390625 46.09375 43.75 44.53125 
L 41.796875 51.953125 
Q 49.21875 52.734375 56.25 53.90625 
Q 55.859375 61.328125 55.46875 66.796875 
Q 55.078125 72.265625 54.296875 80.078125 
Q 58.984375 79.296875 63.28125 79.296875 
Q 62.890625 73.4375 62.6875 68.9375 
Q 62.5 64.453125 63.28125 55.078125 
Q 81.25 58.203125 87.890625 60.15625 
z
M 33.203125 72.65625 
Q 38.28125 72.65625 43.75 73.046875 
L 43.75 65.234375 
Q 38.28125 65.625 33.203125 65.625 
L 26.171875 65.625 
Q 24.21875 57.8125 22.265625 50.390625 
L 40.625 50.390625 
Q 39.453125 39.0625 37.5 30.078125 
Q 35.546875 21.09375 32.03125 14.453125 
Q 28.515625 7.8125 23.625 2.140625 
Q 18.75 -3.515625 10.546875 -9.765625 
Q 8.203125 -6.25 3.90625 -3.515625 
Q 10.9375 0.390625 16.203125 5.859375 
Q 21.484375 11.328125 24.609375 16.796875 
Q 19.921875 22.65625 14.84375 27.34375 
Q 17.578125 29.6875 19.53125 32.8125 
Q 24.21875 28.515625 28.125 24.21875 
Q 31.640625 33.984375 32.421875 43.359375 
L 20.3125 43.359375 
Q 17.578125 37.109375 15.421875 33.59375 
Q 13.28125 30.078125 8.59375 23.828125 
Q 5.46875 28.515625 3.125 30.078125 
Q 8.984375 35.9375 12.890625 44.71875 
Q 16.796875 53.515625 18.75 65.625 
Q 12.109375 65.625 5.859375 65.234375 
L 5.859375 73.046875 
Q 11.71875 72.65625 16.796875 72.65625 
z
M 75.390625 77.734375 
Q 80.46875 71.484375 84.765625 65.234375 
Q 80.078125 63.28125 77.734375 60.9375 
Q 74.21875 67.578125 68.75 73.4375 
Q 71.875 75.390625 75.390625 77.734375 
z
" id="SimHei-27531"/>
       <path d="M 73.828125 77.734375 
Q 70.3125 73.828125 66.40625 66.796875 
L 75.78125 66.796875 
Q 85.15625 66.796875 91.015625 67.1875 
L 91.015625 60.15625 
Q 84.765625 60.546875 75.78125 60.546875 
L 51.171875 60.546875 
Q 50.390625 56.25 49.21875 51.171875 
L 70.703125 51.171875 
Q 79.296875 51.171875 86.328125 51.5625 
L 86.328125 44.53125 
Q 79.296875 44.921875 70.3125 44.921875 
L 47.65625 44.921875 
Q 46.484375 41.40625 44.53125 36.328125 
L 80.078125 36.328125 
Q 88.671875 36.328125 94.140625 36.71875 
L 94.140625 29.6875 
Q 89.0625 30.078125 80.46875 30.078125 
L 41.40625 30.078125 
Q 37.890625 24.21875 35.15625 20.3125 
Q 41.40625 19.921875 48.4375 19.921875 
L 70.703125 19.921875 
Q 77.734375 19.921875 83.59375 20.3125 
L 83.59375 13.28125 
Q 77.734375 13.671875 71.484375 13.671875 
L 61.328125 13.671875 
L 61.328125 -0.78125 
L 78.125 -0.78125 
Q 81.25 -0.78125 92.1875 -0.390625 
L 92.1875 -7.8125 
Q 82.421875 -7.421875 78.515625 -7.421875 
L 32.8125 -7.421875 
Q 26.5625 -7.421875 21.875 -7.8125 
L 21.875 -0.390625 
Q 27.734375 -0.78125 33.203125 -0.78125 
L 53.515625 -0.78125 
L 53.515625 13.671875 
L 48.4375 13.671875 
Q 41.015625 13.671875 33.984375 13.28125 
L 33.984375 18.75 
Q 30.078125 13.671875 23.234375 7.421875 
Q 16.40625 1.171875 9.765625 -3.90625 
Q 6.640625 -0.390625 3.125 2.34375 
Q 11.71875 7.421875 19.71875 14.453125 
Q 27.734375 21.484375 32.8125 30.078125 
L 20.703125 30.078125 
Q 11.71875 30.078125 5.859375 29.6875 
L 5.859375 36.71875 
Q 11.71875 36.328125 21.09375 36.328125 
L 36.328125 36.328125 
Q 38.28125 40.234375 39.84375 44.921875 
L 26.953125 44.921875 
Q 21.484375 44.921875 15.625 44.53125 
L 15.625 51.5625 
Q 23.4375 51.171875 26.5625 51.171875 
L 41.40625 51.171875 
Q 42.578125 55.859375 43.359375 60.546875 
L 23.4375 60.546875 
Q 17.1875 60.546875 10.15625 60.15625 
L 10.15625 67.1875 
Q 16.015625 66.796875 22.265625 66.796875 
L 35.546875 66.796875 
Q 32.421875 73.046875 28.90625 77.34375 
Q 31.640625 78.90625 35.15625 81.640625 
Q 38.28125 77.734375 42.578125 71.09375 
Q 39.453125 69.53125 36.328125 66.796875 
L 58.59375 66.796875 
Q 62.5 73.4375 64.84375 82.03125 
Q 68.75 79.6875 73.828125 77.734375 
z
" id="SimHei-24046"/>
      </defs>
      <use xlink:href="#SimHei-27531"/>
      <use x="100" xlink:href="#SimHei-24046"/>
      <use x="200" xlink:href="#SimHei-20540"/>
     </g>
    </g>
   </g>
   <g id="LineCollection_1">
    <path clip-path="url(#p421a09aa76)" d="M 73.832727 174.64246 
L 398.487273 174.64246 
" style="fill:none;stroke:#ff0000;stroke-width:1.5;"/>
   </g>
   <g id="patch_3">
    <path d="M 57.6 307.584 
L 57.6 41.472 
" style="fill:none;stroke:#000000;stroke-linecap:square;stroke-linejoin:miter;stroke-width:0.8;"/>
   </g>
   <g id="patch_4">
    <path d="M 414.72 307.584 
L 414.72 41.472 
" style="fill:none;stroke:#000000;stroke-linecap:square;stroke-linejoin:miter;stroke-width:0.8;"/>
   </g>
   <g id="patch_5">
    <path d="M 57.6 307.584 
L 414.72 307.584 
" style="fill:none;stroke:#000000;stroke-linecap:square;stroke-linejoin:miter;stroke-width:0.8;"/>
   </g>
   <g id="patch_6">
    <path d="M 57.6 41.472 
L 414.72 41.472 
" style="fill:none;stroke:#000000;stroke-linecap:square;stroke-linejoin:miter;stroke-width:0.8;"/>
   </g>
   <g id="legend_1">
    <g id="patch_7">
     <path d="M 64.6 77.987625 
L 146.6 77.987625 
Q 148.6 77.987625 148.6 75.987625 
L 148.6 48.472 
Q 148.6 46.472 146.6 46.472 
L 64.6 46.472 
Q 62.6 46.472 62.6 48.472 
L 62.6 75.987625 
Q 62.6 77.987625 64.6 77.987625 
z
" style="fill:#ffffff;opacity:0.8;stroke:#cccccc;stroke-linejoin:miter;"/>
    </g>
    <g id="PathCollection_3">
     <g>
      <use style="fill:#0000ff;stroke:#0000ff;" x="76.6" xlink:href="#m2bc3b04ce5" y="55.81575"/>
     </g>
    </g>
    <g id="text_17">
     <!--  -->
     <g transform="translate(94.6 58.44075)scale(0.1 -0.1)">
      <defs>
       <path d="M 25.78125 51.5625 
Q 25.390625 42.578125 25.390625 34.765625 
L 25.390625 10.546875 
Q 30.46875 17.578125 32.03125 19.921875 
Q 33.984375 17.578125 36.71875 14.0625 
Q 31.640625 7.8125 28.125 3.3125 
Q 24.609375 -1.171875 20.703125 -6.640625 
Q 17.96875 -3.125 14.84375 -0.78125 
Q 17.96875 3.515625 17.96875 9.765625 
L 17.96875 44.921875 
L 15.234375 44.921875 
Q 9.375 44.921875 4.6875 44.53125 
L 4.6875 51.953125 
Q 9.375 51.5625 15.234375 51.5625 
z
M 53.515625 71.875 
Q 52.734375 67.96875 52.921875 52.53125 
Q 53.125 37.109375 52.140625 29.484375 
Q 51.171875 21.875 48.234375 13.078125 
Q 45.3125 4.296875 38.28125 -5.859375 
Q 34.765625 -3.125 30.859375 -1.953125 
Q 39.84375 7.8125 43.15625 21.28125 
Q 46.484375 34.765625 46.09375 52.140625 
Q 45.703125 69.53125 45.3125 73.046875 
Q 49.21875 72.265625 53.515625 71.875 
z
M 91.796875 73.4375 
Q 91.40625 70.3125 91.40625 62.109375 
L 91.40625 9.765625 
Q 91.40625 1.953125 91.796875 -6.25 
L 84.375 -6.25 
Q 84.765625 1.953125 84.765625 9.375 
L 84.765625 62.109375 
Q 84.765625 70.3125 84.375 73.4375 
L 91.796875 73.4375 
z
M 71.875 2.734375 
L 64.453125 2.734375 
Q 64.84375 11.328125 64.84375 17.96875 
L 64.84375 56.25 
Q 64.84375 63.28125 64.453125 67.96875 
L 71.875 67.96875 
z
M 15.625 80.46875 
Q 25.78125 71.875 32.8125 64.0625 
Q 29.296875 61.328125 27.34375 58.59375 
Q 16.40625 71.09375 10.9375 75 
Q 13.28125 77.34375 15.625 80.46875 
z
" id="SimHei-35757"/>
       <path d="M 51.5625 59.765625 
Q 46.09375 59.765625 37.5 59.375 
L 37.5 66.40625 
Q 46.09375 66.015625 51.953125 66.015625 
L 56.640625 66.015625 
Q 60.546875 77.34375 60.9375 80.859375 
Q 65.625 78.515625 69.53125 76.953125 
Q 67.96875 75.390625 66.59375 72.0625 
Q 65.234375 68.75 64.0625 66.015625 
L 78.515625 66.015625 
Q 84.765625 66.015625 92.1875 66.40625 
L 92.1875 59.375 
Q 86.71875 59.765625 78.515625 59.765625 
L 62.109375 59.765625 
Q 60.15625 55.078125 57.8125 49.21875 
L 73.046875 49.21875 
Q 72.65625 44.921875 72.65625 38.671875 
L 72.65625 30.859375 
L 77.734375 30.859375 
Q 83.59375 30.859375 90.625 31.25 
L 90.625 24.21875 
Q 83.59375 24.609375 77.734375 24.609375 
L 72.65625 24.609375 
L 72.65625 1.953125 
Q 72.65625 -4.6875 69.71875 -6.640625 
Q 66.796875 -8.59375 57.03125 -9.765625 
Q 56.640625 -5.859375 53.90625 -1.5625 
Q 63.671875 -1.953125 64.640625 -0.390625 
Q 65.625 1.171875 65.625 5.078125 
L 65.625 24.609375 
L 53.515625 24.609375 
Q 50.78125 24.609375 48.4375 24.40625 
Q 46.09375 24.21875 42.96875 23.046875 
Q 41.40625 26.953125 39.84375 30.46875 
Q 43.75 31.640625 48.828125 43.359375 
Q 46.09375 43.359375 38.28125 42.96875 
L 38.28125 49.609375 
Q 47.265625 49.21875 50.78125 49.21875 
Q 53.125 55.078125 54.6875 59.765625 
z
M 25.78125 46.09375 
Q 29.296875 51.5625 32.8125 60.9375 
Q 36.328125 58.203125 40.234375 56.25 
Q 36.328125 51.171875 31.640625 42.96875 
Q 26.953125 34.765625 16.796875 21.09375 
Q 20.3125 21.875 37.5 24.609375 
Q 36.71875 20.3125 37.109375 17.96875 
Q 28.515625 17.1875 10.15625 12.890625 
Q 8.203125 16.796875 6.25 19.921875 
Q 9.765625 21.875 13.859375 27.140625 
Q 17.96875 32.421875 22.65625 40.234375 
Q 20.3125 40.625 15.8125 40.03125 
Q 11.328125 39.453125 7.03125 38.28125 
Q 5.46875 41.796875 3.90625 45.703125 
Q 7.8125 48.046875 12.6875 58.203125 
Q 17.578125 68.359375 20.703125 78.125 
Q 25 75.390625 28.90625 74.21875 
Q 25 68.359375 21.671875 61.90625 
Q 18.359375 55.46875 12.5 45.703125 
Q 21.484375 45.703125 25.78125 46.09375 
z
M 37.890625 10.9375 
Q 37.5 6.640625 37.890625 3.90625 
Q 31.25 2.34375 22.84375 -0.390625 
Q 14.453125 -3.125 7.421875 -6.640625 
Q 6.25 -2.34375 4.6875 1.953125 
Q 14.84375 4.296875 18.546875 5.265625 
Q 22.265625 6.25 37.890625 10.9375 
z
M 58.203125 13.671875 
Q 57.03125 12.5 51.359375 6.25 
Q 45.703125 0 38.671875 -7.421875 
Q 35.9375 -3.90625 33.59375 -1.953125 
Q 37.890625 1.5625 42.96875 7.21875 
Q 48.046875 12.890625 51.953125 19.140625 
Q 54.296875 16.40625 58.203125 13.671875 
z
M 82.421875 19.140625 
Q 92.578125 5.859375 96.875 -1.5625 
Q 92.96875 -3.125 89.84375 -5.859375 
Q 85.546875 2.734375 76.5625 14.84375 
Q 79.296875 16.40625 82.421875 19.140625 
z
M 65.625 30.859375 
L 65.625 43.359375 
L 55.859375 43.359375 
Q 51.953125 35.15625 49.609375 30.859375 
z
" id="SimHei-32451"/>
       <path d="M 35.546875 76.953125 
Q 33.203125 75 31.640625 72.84375 
Q 30.078125 70.703125 28.90625 67.96875 
L 76.953125 67.96875 
Q 82.8125 67.96875 89.84375 68.359375 
L 89.84375 62.109375 
L 57.03125 62.109375 
L 57.03125 55.859375 
L 72.265625 55.859375 
Q 76.953125 55.859375 83.203125 56.25 
L 83.203125 49.609375 
Q 76.953125 50 72.265625 50 
L 57.03125 50 
L 57.03125 43.75 
L 73.046875 43.75 
Q 78.125 43.75 84.765625 44.140625 
L 84.765625 37.5 
Q 78.125 37.890625 73.046875 37.890625 
L 57.03125 37.890625 
L 57.03125 32.421875 
L 76.171875 32.421875 
Q 82.421875 32.421875 88.671875 32.8125 
L 88.671875 26.171875 
Q 82.8125 26.5625 76.5625 26.5625 
L 25.78125 26.5625 
L 25.78125 23.4375 
L 17.96875 23.4375 
Q 18.75 30.46875 18.75 36.328125 
L 18.75 54.296875 
Q 16.40625 50.78125 14.640625 48.828125 
Q 12.890625 46.875 10.546875 44.140625 
Q 7.8125 46.875 4.6875 48.828125 
Q 7.421875 51.953125 13.671875 59.765625 
Q 19.921875 67.578125 22.84375 72.65625 
Q 25.78125 77.734375 26.953125 81.640625 
Q 30.46875 79.6875 35.546875 76.953125 
z
M 46.484375 18.75 
Q 46.484375 20.3125 46.09375 25.390625 
L 54.296875 25.390625 
Q 53.90625 19.921875 53.90625 18.75 
L 78.90625 18.75 
Q 85.9375 18.75 92.578125 19.140625 
L 92.578125 12.890625 
L 64.84375 12.890625 
Q 70.3125 8.203125 76.953125 5.65625 
Q 83.59375 3.125 95.3125 0.390625 
Q 91.796875 -3.515625 90.234375 -7.421875 
Q 82.421875 -4.6875 77.53125 -2.53125 
Q 72.65625 -0.390625 68.546875 2.140625 
Q 64.453125 4.6875 61.71875 7.21875 
Q 58.984375 9.765625 55.859375 12.890625 
L 53.90625 12.890625 
L 53.90625 3.90625 
Q 53.90625 -4.296875 54.6875 -10.15625 
L 46.09375 -10.15625 
Q 46.484375 -4.6875 46.484375 3.90625 
L 46.484375 12.890625 
L 44.921875 12.890625 
Q 42.1875 8.984375 38.671875 5.859375 
Q 35.15625 2.734375 31.046875 0.1875 
Q 26.953125 -2.34375 22.265625 -4.6875 
Q 17.578125 -7.03125 10.9375 -8.984375 
Q 9.375 -5.078125 6.25 -1.171875 
Q 14.453125 0.78125 23.046875 4.09375 
Q 31.640625 7.421875 35.9375 12.890625 
L 7.8125 12.890625 
L 7.8125 19.140625 
Q 12.5 18.75 21.875 18.75 
z
M 49.21875 43.75 
L 49.21875 50 
L 25.78125 50 
L 25.78125 43.75 
z
M 49.21875 55.859375 
L 49.21875 62.109375 
L 25.78125 62.109375 
L 25.78125 55.859375 
z
M 49.21875 32.421875 
L 49.21875 37.890625 
L 25.78125 37.890625 
L 25.78125 32.421875 
z
M 53.90625 82.03125 
Q 55.859375 80.46875 58 78.125 
Q 60.15625 75.78125 62.5 72.65625 
Q 60.15625 70.703125 55.859375 68.359375 
Q 53.515625 71.484375 51.953125 73.4375 
Q 50.390625 75.390625 48.046875 77.34375 
Q 51.171875 79.296875 53.90625 82.03125 
z
" id="SimHei-38598"/>
       <path d="M 70.703125 76.953125 
Q 69.921875 75 68.75 71.671875 
Q 67.578125 68.359375 65.234375 59.765625 
L 83.203125 59.765625 
Q 87.109375 59.765625 92.578125 60.15625 
L 92.578125 53.125 
Q 88.28125 53.515625 85.9375 53.515625 
Q 85.9375 47.265625 83.78125 33.78125 
Q 81.640625 20.3125 76.171875 10.546875 
Q 80.078125 5.859375 84.953125 2.140625 
Q 89.84375 -1.5625 94.140625 -3.125 
Q 89.453125 -6.640625 87.890625 -9.765625 
Q 83.203125 -7.03125 79.296875 -3.515625 
Q 75.390625 0 71.484375 5.078125 
Q 67.1875 0.390625 62.296875 -2.921875 
Q 57.421875 -6.25 50 -10.15625 
Q 48.046875 -6.640625 44.53125 -4.6875 
Q 50.390625 -2.34375 57.03125 1.953125 
Q 63.671875 6.25 67.1875 10.546875 
Q 64.453125 16.015625 61.90625 22.265625 
Q 59.375 28.515625 57.421875 38.671875 
Q 56.25 35.546875 53.515625 30.46875 
Q 50.78125 32.03125 46.875 33.59375 
Q 53.125 44.53125 57.03125 57.421875 
Q 60.9375 70.3125 62.109375 79.6875 
Q 66.796875 77.734375 70.703125 76.953125 
z
M 32.8125 35.15625 
Q 31.25 33.59375 29.296875 30.078125 
L 50.78125 30.078125 
Q 48.4375 20.3125 42.578125 10.546875 
Q 48.828125 8.203125 52.34375 6.25 
Q 50.390625 3.515625 48.828125 0.390625 
Q 45.3125 2.734375 38.28125 5.078125 
Q 30.46875 -3.515625 11.328125 -10.15625 
Q 9.375 -5.859375 6.25 -4.296875 
Q 24.609375 0 31.25 7.421875 
Q 20.3125 10.15625 13.28125 12.109375 
Q 15.625 15.625 19.53125 23.828125 
Q 15.625 23.828125 6.640625 23.4375 
L 6.640625 30.46875 
Q 14.0625 30.078125 21.875 30.078125 
Q 23.4375 33.59375 24.21875 37.890625 
Q 28.515625 36.328125 32.8125 35.15625 
z
M 27.734375 61.71875 
Q 27.734375 71.09375 27.34375 79.6875 
L 35.15625 79.6875 
Q 34.765625 71.484375 34.765625 61.71875 
Q 48.046875 61.71875 53.515625 62.109375 
L 53.515625 55.078125 
Q 48.046875 55.46875 34.765625 55.46875 
Q 34.765625 44.140625 35.15625 37.890625 
L 27.34375 37.890625 
Q 27.734375 43.359375 27.734375 51.5625 
Q 25.78125 48.4375 20.3125 43.546875 
Q 14.84375 38.671875 10.15625 35.9375 
Q 8.203125 39.453125 4.296875 41.015625 
Q 7.8125 42.1875 13.671875 46.484375 
Q 19.53125 50.78125 22.65625 55.46875 
Q 14.84375 55.46875 7.8125 55.078125 
L 7.8125 62.109375 
Q 14.453125 61.71875 27.734375 61.71875 
z
M 62.109375 49.609375 
Q 65.625 26.5625 71.875 17.578125 
Q 75.78125 26.5625 77.140625 35.734375 
Q 78.515625 44.921875 78.90625 53.515625 
L 63.671875 53.515625 
L 62.109375 49.609375 
z
M 22.65625 15.625 
Q 27.34375 14.453125 35.546875 12.5 
Q 38.671875 16.40625 41.40625 23.828125 
L 26.953125 23.828125 
Q 25 19.921875 22.65625 15.625 
z
M 51.953125 75.390625 
Q 50 72.265625 48.828125 69.53125 
Q 47.65625 66.796875 45.703125 62.890625 
Q 42.578125 64.453125 39.453125 65.234375 
Q 42.578125 70.3125 45.3125 78.125 
Q 49.21875 76.171875 51.953125 75.390625 
z
M 40.234375 52.734375 
Q 45.3125 47.65625 50 42.578125 
Q 47.65625 40.625 44.921875 37.890625 
Q 39.453125 44.53125 35.9375 48.4375 
Q 38.28125 50.390625 40.234375 52.734375 
z
M 14.453125 78.125 
Q 19.921875 72.65625 23.4375 67.1875 
L 17.578125 63.671875 
Q 14.84375 69.140625 9.375 73.828125 
Q 12.890625 76.171875 14.453125 78.125 
z
" id="SimHei-25968"/>
       <path d="M 89.84375 74.609375 
Q 89.453125 71.09375 89.453125 66.015625 
L 89.453125 60.9375 
Q 89.453125 53.90625 89.84375 50.78125 
L 48.4375 50.78125 
L 48.4375 39.0625 
L 66.40625 39.0625 
Q 66.40625 42.578125 66.015625 49.609375 
L 73.4375 49.609375 
Q 73.046875 43.359375 73.046875 39.0625 
L 83.59375 39.0625 
Q 90.625 39.0625 95.3125 39.453125 
L 95.3125 32.421875 
Q 90.625 32.8125 83.984375 32.8125 
L 73.046875 32.8125 
L 73.046875 22.265625 
L 90.234375 22.265625 
Q 89.84375 14.84375 89.84375 12.5 
L 89.84375 2.734375 
Q 89.84375 -3.515625 90.234375 -8.984375 
L 83.203125 -8.984375 
L 83.203125 -3.515625 
L 57.421875 -3.515625 
L 57.421875 -9.375 
L 50.390625 -9.375 
Q 50.78125 -5.078125 50.78125 1.5625 
L 50.78125 12.890625 
Q 50.78125 16.796875 50.390625 22.265625 
L 66.40625 22.265625 
L 66.40625 32.8125 
L 48.046875 32.8125 
Q 47.65625 21.484375 45.109375 11.515625 
Q 42.578125 1.5625 37.890625 -7.421875 
Q 34.375 -5.078125 30.46875 -3.90625 
Q 35.15625 2.34375 37.296875 9.375 
Q 39.453125 16.40625 40.625 24.40625 
Q 41.796875 32.421875 41.796875 41.015625 
L 41.796875 55.859375 
Q 41.796875 62.109375 41.40625 74.609375 
L 89.84375 74.609375 
z
M 19.921875 69.140625 
Q 19.921875 74.609375 19.53125 79.296875 
L 27.34375 79.296875 
Q 26.953125 75 26.953125 69.140625 
L 26.953125 58.984375 
Q 30.859375 58.984375 39.0625 59.375 
L 39.0625 52.734375 
Q 30.859375 53.125 26.953125 53.125 
L 26.953125 38.28125 
Q 32.03125 41.015625 37.5 44.53125 
Q 37.890625 41.40625 39.453125 38.671875 
Q 32.03125 34.375 26.953125 31.25 
L 26.953125 2.734375 
Q 26.953125 -4.6875 23.234375 -6.25 
Q 19.53125 -7.8125 12.109375 -8.984375 
Q 11.328125 -5.078125 9.375 -0.78125 
Q 16.015625 -0.78125 17.96875 -0.1875 
Q 19.921875 0.390625 19.921875 5.078125 
L 19.921875 28.125 
Q 14.0625 25 8.203125 20.703125 
Q 7.03125 23.828125 4.296875 28.125 
Q 12.109375 30.859375 19.921875 35.15625 
L 19.921875 53.125 
Q 12.5 53.125 5.46875 52.734375 
L 5.46875 59.375 
Q 12.5 58.984375 19.921875 58.984375 
z
M 82.8125 56.640625 
L 82.8125 68.75 
L 48.4375 68.75 
L 48.4375 56.640625 
z
M 83.203125 2.34375 
L 83.203125 16.796875 
L 57.421875 16.796875 
L 57.421875 2.34375 
z
" id="SimHei-25454"/>
      </defs>
      <use xlink:href="#SimHei-35757"/>
      <use x="100" xlink:href="#SimHei-32451"/>
      <use x="200" xlink:href="#SimHei-38598"/>
      <use x="300" xlink:href="#SimHei-25968"/>
      <use x="400" xlink:href="#SimHei-25454"/>
     </g>
    </g>
    <g id="PathCollection_4">
     <g>
      <use style="fill:#008000;stroke:#008000;" x="76.6" xlink:href="#m4e42248430" y="70.112625"/>
     </g>
    </g>
    <g id="text_18">
     <!--  -->
     <g transform="translate(94.6 72.737625)scale(0.1 -0.1)">
      <defs>
       <path d="M 61.71875 59.765625 
Q 61.328125 67.578125 61.328125 71.09375 
Q 61.328125 75 60.9375 81.640625 
Q 65.625 80.46875 69.53125 80.078125 
Q 69.140625 75.390625 69.140625 71.875 
L 69.140625 59.765625 
L 80.46875 59.765625 
Q 85.9375 59.765625 91.796875 60.15625 
L 91.796875 53.125 
Q 86.328125 53.515625 80.078125 53.515625 
L 69.53125 53.515625 
Q 70.3125 42.96875 71.671875 34.5625 
Q 73.046875 26.171875 75.578125 17.375 
Q 78.125 8.59375 81.4375 3.515625 
Q 84.765625 -1.5625 85.9375 3.125 
Q 87.109375 7.8125 87.5 14.0625 
Q 90.625 9.765625 95.3125 8.203125 
Q 93.359375 -4.296875 89.84375 -7.609375 
Q 86.328125 -10.9375 82.03125 -8.390625 
Q 77.734375 -5.859375 74.015625 0.96875 
Q 70.3125 7.8125 67.765625 16.796875 
Q 65.234375 25.78125 64.0625 35.34375 
Q 62.890625 44.921875 62.109375 53.515625 
L 43.75 53.515625 
Q 35.9375 53.515625 29.296875 53.125 
L 29.296875 60.15625 
Q 35.546875 59.765625 43.359375 59.765625 
z
M 23.4375 49.609375 
Q 23.046875 41.796875 23.046875 33.984375 
L 23.046875 9.765625 
Q 28.515625 14.84375 33.203125 19.140625 
Q 34.765625 15.625 37.109375 12.5 
Q 29.6875 6.640625 17.578125 -5.46875 
Q 15.625 -1.953125 12.890625 0.78125 
Q 16.015625 2.734375 16.015625 8.203125 
L 16.015625 42.578125 
Q 9.765625 42.578125 4.6875 42.1875 
L 4.6875 50 
Q 9.765625 49.609375 12.890625 49.609375 
z
M 58.984375 33.984375 
Q 54.6875 34.375 50.78125 34.375 
L 50.78125 8.984375 
Q 55.859375 10.546875 60.9375 12.5 
Q 60.9375 8.203125 61.71875 5.078125 
Q 55.859375 3.90625 49.21875 1.953125 
Q 42.578125 0 35.546875 -2.734375 
Q 34.375 1.5625 31.640625 4.6875 
Q 37.890625 5.46875 43.75 7.421875 
L 43.75 34.375 
Q 39.453125 34.375 34.765625 33.984375 
L 34.765625 41.40625 
Q 40.625 41.015625 46.875 41.015625 
Q 53.515625 41.015625 58.984375 41.40625 
z
M 14.453125 77.734375 
Q 19.921875 72.65625 26.5625 64.0625 
Q 23.828125 61.328125 20.703125 58.984375 
Q 18.359375 63.28125 8.984375 72.65625 
Q 12.109375 75.390625 14.453125 77.734375 
z
M 80.46875 80.46875 
Q 83.203125 78.125 91.40625 68.359375 
Q 87.109375 65.625 84.765625 63.28125 
Q 80.078125 70.703125 74.609375 76.171875 
Q 76.953125 77.734375 80.46875 80.46875 
z
" id="SimHei-35797"/>
      </defs>
      <use xlink:href="#SimHei-27979"/>
      <use x="100" xlink:href="#SimHei-35797"/>
      <use x="200" xlink:href="#SimHei-38598"/>
      <use x="300" xlink:href="#SimHei-25968"/>
      <use x="400" xlink:href="#SimHei-25454"/>
     </g>
    </g>
   </g>
  </g>
 </g>
 <defs>
  <clipPath id="p421a09aa76">
   <rect height="266.112" width="357.12" x="57.6" y="41.472"/>
  </clipPath>
 </defs>
</svg>
