<?xml version="1.0" encoding="utf-8" standalone="no"?>
<!DOCTYPE svg PUBLIC "-//W3C//DTD SVG 1.1//EN"
  "http://www.w3.org/Graphics/SVG/1.1/DTD/svg11.dtd">
<!-- Created with matplotlib (https://matplotlib.org/) -->
<svg height="308.894812pt" version="1.1" viewBox="0 0 411.777812 308.894812" width="411.777812pt" xmlns="http://www.w3.org/2000/svg" xmlns:xlink="http://www.w3.org/1999/xlink">
 <metadata>
  <rdf:RDF xmlns:cc="http://creativecommons.org/ns#" xmlns:dc="http://purl.org/dc/elements/1.1/" xmlns:rdf="http://www.w3.org/1999/02/22-rdf-syntax-ns#">
   <cc:Work>
    <dc:type rdf:resource="http://purl.org/dc/dcmitype/StillImage"/>
    <dc:date>2021-12-06T00:45:52.712392</dc:date>
    <dc:format>image/svg+xml</dc:format>
    <dc:creator>
     <cc:Agent>
      <dc:title>Matplotlib v3.3.2, https://matplotlib.org/</dc:title>
     </cc:Agent>
    </dc:creator>
   </cc:Work>
  </rdf:RDF>
 </metadata>
 <defs>
  <style type="text/css">*{stroke-linecap:butt;stroke-linejoin:round;}</style>
 </defs>
 <g id="figure_1">
  <g id="patch_1">
   <path d="M 0 308.894812 
L 411.777812 308.894812 
L 411.777812 0 
L 0 0 
z
" style="fill:#ffffff;"/>
  </g>
  <g id="axes_1">
   <g id="patch_2">
    <path d="M 47.457813 273.312 
L 404.577813 273.312 
L 404.577813 7.2 
L 47.457813 7.2 
z
" style="fill:#ffffff;"/>
   </g>
   <g id="matplotlib.axis_1">
    <g id="xtick_1">
     <g id="line2d_1">
      <path clip-path="url(#p7b96e944b2)" d="M 63.69054 273.312 
L 63.69054 7.2 
" style="fill:none;stroke:#b0b0b0;stroke-dasharray:2.96,1.28;stroke-dashoffset:0;stroke-width:0.8;"/>
     </g>
     <g id="line2d_2">
      <defs>
       <path d="M 0 0 
L 0 3.5 
" id="m62592b0b08" style="stroke:#000000;stroke-width:0.8;"/>
      </defs>
      <g>
       <use style="stroke:#000000;stroke-width:0.8;" x="63.69054" xlink:href="#m62592b0b08" y="273.312"/>
      </g>
     </g>
     <g id="text_1">
      <!-- 0.0 -->
      <g transform="translate(56.19054 287.187)scale(0.1 -0.1)">
       <defs>
        <path d="M 3.125 29.296875 
Q 3.90625 50 6.4375 56.046875 
Q 8.984375 62.109375 13.671875 66.015625 
Q 18.359375 69.921875 25.1875 69.921875 
Q 32.03125 69.921875 37.109375 64.25 
Q 42.1875 58.59375 43.75 50 
Q 45.3125 41.40625 44.71875 30.265625 
Q 44.140625 19.140625 40.8125 12.109375 
Q 37.5 5.078125 30.859375 2.34375 
Q 24.21875 -0.390625 17.578125 2.921875 
Q 10.9375 6.25 8.203125 11.71875 
Q 5.46875 17.1875 4.296875 23.234375 
Q 3.125 29.296875 3.90625 50 
z
M 12.890625 52.734375 
Q 10.546875 31.25 12.5 22.84375 
Q 14.453125 14.453125 18.9375 10.9375 
Q 23.4375 7.421875 28.125 9.5625 
Q 32.8125 11.71875 34.953125 18.15625 
Q 37.109375 24.609375 37.109375 32.21875 
Q 37.109375 39.84375 36.515625 46.09375 
Q 35.9375 52.34375 33 57.421875 
Q 30.078125 62.5 25.1875 62.6875 
Q 20.3125 62.890625 16.59375 57.8125 
Q 12.890625 52.734375 10.546875 31.25 
z
" id="SimHei-48"/>
        <path d="M 16.796875 1.953125 
L 7.8125 1.953125 
L 7.8125 10.546875 
L 16.796875 10.546875 
z
" id="SimHei-46"/>
       </defs>
       <use xlink:href="#SimHei-48"/>
       <use x="50" xlink:href="#SimHei-46"/>
       <use x="100" xlink:href="#SimHei-48"/>
      </g>
     </g>
    </g>
    <g id="xtick_2">
     <g id="line2d_3">
      <path clip-path="url(#p7b96e944b2)" d="M 96.155994 273.312 
L 96.155994 7.2 
" style="fill:none;stroke:#b0b0b0;stroke-dasharray:2.96,1.28;stroke-dashoffset:0;stroke-width:0.8;"/>
     </g>
     <g id="line2d_4">
      <g>
       <use style="stroke:#000000;stroke-width:0.8;" x="96.155994" xlink:href="#m62592b0b08" y="273.312"/>
      </g>
     </g>
     <g id="text_2">
      <!-- 0.1 -->
      <g transform="translate(88.655994 287.187)scale(0.1 -0.1)">
       <defs>
        <path d="M 21.875 56.25 
Q 16.796875 51.171875 8.984375 46.484375 
L 8.984375 53.90625 
Q 18.75 60.546875 25 69.53125 
L 29.6875 69.53125 
L 29.6875 2.34375 
L 21.875 2.34375 
z
" id="SimHei-49"/>
       </defs>
       <use xlink:href="#SimHei-48"/>
       <use x="50" xlink:href="#SimHei-46"/>
       <use x="100" xlink:href="#SimHei-49"/>
      </g>
     </g>
    </g>
    <g id="xtick_3">
     <g id="line2d_5">
      <path clip-path="url(#p7b96e944b2)" d="M 128.621449 273.312 
L 128.621449 7.2 
" style="fill:none;stroke:#b0b0b0;stroke-dasharray:2.96,1.28;stroke-dashoffset:0;stroke-width:0.8;"/>
     </g>
     <g id="line2d_6">
      <g>
       <use style="stroke:#000000;stroke-width:0.8;" x="128.621449" xlink:href="#m62592b0b08" y="273.312"/>
      </g>
     </g>
     <g id="text_3">
      <!-- 0.2 -->
      <g transform="translate(121.121449 287.187)scale(0.1 -0.1)">
       <defs>
        <path d="M 4.6875 3.90625 
Q 5.078125 9.765625 10.15625 14.453125 
Q 15.234375 19.140625 23.046875 29.09375 
Q 30.859375 39.0625 33.203125 44.53125 
Q 35.546875 50 34.953125 53.90625 
Q 34.375 57.8125 31.25 60.34375 
Q 28.125 62.890625 24.015625 62.5 
Q 19.921875 62.109375 16.203125 59.375 
Q 12.5 56.640625 10.546875 51.171875 
L 3.125 52.34375 
Q 6.25 61.328125 11.125 65.421875 
Q 16.015625 69.53125 22.65625 69.921875 
Q 26.5625 70.3125 29.6875 69.71875 
Q 32.8125 69.140625 36.125 66.984375 
Q 39.453125 64.84375 41.59375 60.546875 
Q 43.75 56.25 43.15625 50.1875 
Q 42.578125 44.140625 37.109375 35.734375 
Q 31.640625 27.34375 16.015625 9.375 
L 44.140625 9.375 
L 44.140625 2.34375 
L 4.6875 2.34375 
z
" id="SimHei-50"/>
       </defs>
       <use xlink:href="#SimHei-48"/>
       <use x="50" xlink:href="#SimHei-46"/>
       <use x="100" xlink:href="#SimHei-50"/>
      </g>
     </g>
    </g>
    <g id="xtick_4">
     <g id="line2d_7">
      <path clip-path="url(#p7b96e944b2)" d="M 161.086903 273.312 
L 161.086903 7.2 
" style="fill:none;stroke:#b0b0b0;stroke-dasharray:2.96,1.28;stroke-dashoffset:0;stroke-width:0.8;"/>
     </g>
     <g id="line2d_8">
      <g>
       <use style="stroke:#000000;stroke-width:0.8;" x="161.086903" xlink:href="#m62592b0b08" y="273.312"/>
      </g>
     </g>
     <g id="text_4">
      <!-- 0.3 -->
      <g transform="translate(153.586903 287.187)scale(0.1 -0.1)">
       <defs>
        <path d="M 3.90625 19.140625 
L 10.9375 20.3125 
Q 12.5 15.234375 16.015625 11.90625 
Q 19.53125 8.59375 24.796875 8.78125 
Q 30.078125 8.984375 33.203125 13.078125 
Q 36.328125 17.1875 35.9375 22.453125 
Q 35.546875 27.734375 31.828125 30.65625 
Q 28.125 33.59375 19.921875 34.765625 
L 19.921875 39.84375 
Q 28.125 40.625 31.828125 44.140625 
Q 35.546875 47.65625 35.15625 53.3125 
Q 34.765625 58.984375 30.078125 61.515625 
Q 25.390625 64.0625 20.109375 62.109375 
Q 14.84375 60.15625 11.71875 51.171875 
L 4.6875 52.34375 
Q 7.03125 59.375 11.125 64.0625 
Q 15.234375 68.75 22.265625 69.53125 
Q 29.296875 70.3125 34.5625 67.765625 
Q 39.84375 65.234375 41.984375 59.953125 
Q 44.140625 54.6875 42.578125 48.4375 
Q 41.015625 42.1875 33.59375 37.5 
Q 39.0625 35.15625 41.984375 30.46875 
Q 44.921875 25.78125 43.9375 18.15625 
Q 42.96875 10.546875 37.109375 5.859375 
Q 31.25 1.171875 23.828125 1.359375 
Q 16.40625 1.5625 10.9375 6.046875 
Q 5.46875 10.546875 3.90625 19.140625 
z
" id="SimHei-51"/>
       </defs>
       <use xlink:href="#SimHei-48"/>
       <use x="50" xlink:href="#SimHei-46"/>
       <use x="100" xlink:href="#SimHei-51"/>
      </g>
     </g>
    </g>
    <g id="xtick_5">
     <g id="line2d_9">
      <path clip-path="url(#p7b96e944b2)" d="M 193.552358 273.312 
L 193.552358 7.2 
" style="fill:none;stroke:#b0b0b0;stroke-dasharray:2.96,1.28;stroke-dashoffset:0;stroke-width:0.8;"/>
     </g>
     <g id="line2d_10">
      <g>
       <use style="stroke:#000000;stroke-width:0.8;" x="193.552358" xlink:href="#m62592b0b08" y="273.312"/>
      </g>
     </g>
     <g id="text_5">
      <!-- 0.4 -->
      <g transform="translate(186.052358 287.187)scale(0.1 -0.1)">
       <defs>
        <path d="M 31.25 17.1875 
L 1.171875 17.1875 
L 1.171875 23.828125 
L 32.8125 69.53125 
L 38.671875 69.53125 
L 38.671875 23.828125 
L 48.046875 23.828125 
L 48.046875 17.1875 
L 38.671875 17.1875 
L 38.671875 2.34375 
L 31.25 2.34375 
z
M 31.25 23.828125 
L 31.25 54.6875 
L 9.375 23.828125 
z
" id="SimHei-52"/>
       </defs>
       <use xlink:href="#SimHei-48"/>
       <use x="50" xlink:href="#SimHei-46"/>
       <use x="100" xlink:href="#SimHei-52"/>
      </g>
     </g>
    </g>
    <g id="xtick_6">
     <g id="line2d_11">
      <path clip-path="url(#p7b96e944b2)" d="M 226.017813 273.312 
L 226.017813 7.2 
" style="fill:none;stroke:#b0b0b0;stroke-dasharray:2.96,1.28;stroke-dashoffset:0;stroke-width:0.8;"/>
     </g>
     <g id="line2d_12">
      <g>
       <use style="stroke:#000000;stroke-width:0.8;" x="226.017813" xlink:href="#m62592b0b08" y="273.312"/>
      </g>
     </g>
     <g id="text_6">
      <!-- 0.5 -->
      <g transform="translate(218.517813 287.187)scale(0.1 -0.1)">
       <defs>
        <path d="M 8.59375 20.703125 
Q 11.328125 10.15625 17.96875 8.984375 
Q 24.609375 7.8125 28.703125 10.34375 
Q 32.8125 12.890625 34.5625 16.984375 
Q 36.328125 21.09375 36.125 26.171875 
Q 35.9375 31.25 33.390625 34.765625 
Q 30.859375 38.28125 26.953125 39.453125 
Q 23.046875 40.625 18.15625 39.453125 
Q 13.28125 38.28125 10.15625 33.984375 
L 3.515625 34.765625 
Q 4.296875 37.109375 10.9375 68.359375 
L 41.796875 68.359375 
L 41.796875 61.328125 
L 16.796875 61.328125 
Q 14.84375 50.78125 12.890625 44.53125 
Q 18.75 47.265625 23.828125 47.0625 
Q 28.90625 46.875 33.59375 44.71875 
Q 38.28125 42.578125 40.421875 38.859375 
Q 42.578125 35.15625 43.546875 31.4375 
Q 44.53125 27.734375 44.328125 23.4375 
Q 44.140625 19.140625 42.578125 14.640625 
Q 41.015625 10.15625 37.890625 7.21875 
Q 34.765625 4.296875 30.265625 2.53125 
Q 25.78125 0.78125 19.921875 1.171875 
Q 14.0625 1.5625 8.78125 5.46875 
Q 3.515625 9.375 1.5625 18.75 
z
" id="SimHei-53"/>
       </defs>
       <use xlink:href="#SimHei-48"/>
       <use x="50" xlink:href="#SimHei-46"/>
       <use x="100" xlink:href="#SimHei-53"/>
      </g>
     </g>
    </g>
    <g id="xtick_7">
     <g id="line2d_13">
      <path clip-path="url(#p7b96e944b2)" d="M 258.483267 273.312 
L 258.483267 7.2 
" style="fill:none;stroke:#b0b0b0;stroke-dasharray:2.96,1.28;stroke-dashoffset:0;stroke-width:0.8;"/>
     </g>
     <g id="line2d_14">
      <g>
       <use style="stroke:#000000;stroke-width:0.8;" x="258.483267" xlink:href="#m62592b0b08" y="273.312"/>
      </g>
     </g>
     <g id="text_7">
      <!-- 0.6 -->
      <g transform="translate(250.983267 287.187)scale(0.1 -0.1)">
       <defs>
        <path d="M 3.515625 19.53125 
Q 4.296875 30.859375 6.046875 34.765625 
Q 7.8125 38.671875 11.328125 44.53125 
L 27.34375 69.53125 
L 36.328125 69.53125 
L 19.921875 43.75 
Q 30.46875 46.484375 36.71875 42.96875 
Q 42.96875 39.453125 45.109375 34.953125 
Q 47.265625 30.46875 47.453125 25.1875 
Q 47.65625 19.921875 45.890625 14.84375 
Q 44.140625 9.765625 39.640625 5.65625 
Q 35.15625 1.5625 27.140625 1.171875 
Q 19.140625 0.78125 13.46875 4.09375 
Q 7.8125 7.421875 5.65625 13.46875 
Q 3.515625 19.53125 4.296875 30.859375 
z
M 12.5 16.015625 
Q 19.53125 8.59375 25.390625 8.203125 
Q 31.25 7.8125 35.15625 12.109375 
Q 39.0625 16.40625 39.0625 24.609375 
Q 39.0625 32.8125 34.171875 35.9375 
Q 29.296875 39.0625 23.234375 38.28125 
Q 17.1875 37.5 14.453125 32.421875 
Q 11.71875 27.34375 12.109375 21.671875 
Q 12.5 16.015625 19.53125 8.59375 
z
" id="SimHei-54"/>
       </defs>
       <use xlink:href="#SimHei-48"/>
       <use x="50" xlink:href="#SimHei-46"/>
       <use x="100" xlink:href="#SimHei-54"/>
      </g>
     </g>
    </g>
    <g id="xtick_8">
     <g id="line2d_15">
      <path clip-path="url(#p7b96e944b2)" d="M 290.948722 273.312 
L 290.948722 7.2 
" style="fill:none;stroke:#b0b0b0;stroke-dasharray:2.96,1.28;stroke-dashoffset:0;stroke-width:0.8;"/>
     </g>
     <g id="line2d_16">
      <g>
       <use style="stroke:#000000;stroke-width:0.8;" x="290.948722" xlink:href="#m62592b0b08" y="273.312"/>
      </g>
     </g>
     <g id="text_8">
      <!-- 0.7 -->
      <g transform="translate(283.448722 287.187)scale(0.1 -0.1)">
       <defs>
        <path d="M 13.28125 2.34375 
Q 20.3125 32.03125 37.890625 61.328125 
L 4.296875 61.328125 
L 4.296875 68.359375 
L 46.09375 68.359375 
L 46.09375 61.71875 
Q 27.734375 32.03125 21.875 2.34375 
L 13.28125 2.34375 
z
" id="SimHei-55"/>
       </defs>
       <use xlink:href="#SimHei-48"/>
       <use x="50" xlink:href="#SimHei-46"/>
       <use x="100" xlink:href="#SimHei-55"/>
      </g>
     </g>
    </g>
    <g id="xtick_9">
     <g id="line2d_17">
      <path clip-path="url(#p7b96e944b2)" d="M 323.414176 273.312 
L 323.414176 7.2 
" style="fill:none;stroke:#b0b0b0;stroke-dasharray:2.96,1.28;stroke-dashoffset:0;stroke-width:0.8;"/>
     </g>
     <g id="line2d_18">
      <g>
       <use style="stroke:#000000;stroke-width:0.8;" x="323.414176" xlink:href="#m62592b0b08" y="273.312"/>
      </g>
     </g>
     <g id="text_9">
      <!-- 0.8 -->
      <g transform="translate(315.914176 287.187)scale(0.1 -0.1)">
       <defs>
        <path d="M 2.734375 16.796875 
Q 2.734375 26.171875 5.078125 30.65625 
Q 7.421875 35.15625 12.890625 37.890625 
Q 8.203125 40.625 6.640625 43.9375 
Q 5.078125 47.265625 4.875 51.5625 
Q 4.6875 55.859375 6.046875 58.984375 
Q 7.421875 62.109375 10.15625 64.84375 
Q 12.890625 67.578125 16.203125 68.546875 
Q 19.53125 69.53125 23.4375 69.53125 
Q 27.34375 69.53125 30.46875 68.75 
Q 33.59375 67.96875 37.109375 65.421875 
Q 40.625 62.890625 42.1875 58.203125 
Q 43.75 53.515625 41.984375 47.265625 
Q 40.234375 41.015625 32.8125 37.5 
Q 39.453125 35.546875 42.1875 31.4375 
Q 44.921875 27.34375 44.921875 21.484375 
Q 44.921875 15.625 43.15625 12.109375 
Q 41.40625 8.59375 39.25 6.25 
Q 37.109375 3.90625 33.390625 2.53125 
Q 29.6875 1.171875 24.015625 1.171875 
Q 18.359375 1.171875 14.25 2.53125 
Q 10.15625 3.90625 7.421875 6.640625 
Q 4.6875 9.375 3.703125 13.078125 
Q 2.734375 16.796875 2.734375 26.171875 
z
M 10.9375 26.5625 
Q 10.546875 17.1875 12.296875 13.671875 
Q 14.0625 10.15625 18.75 9.171875 
Q 23.4375 8.203125 28.515625 9.375 
Q 33.59375 10.546875 35.546875 14.84375 
Q 37.5 19.140625 36.90625 23.4375 
Q 36.328125 27.734375 32.03125 30.65625 
Q 27.734375 33.59375 22.65625 33.203125 
Q 17.578125 32.8125 14.25 29.6875 
Q 10.9375 26.5625 10.546875 17.1875 
z
M 12.109375 56.25 
Q 12.109375 48.4375 14.84375 44.921875 
Q 17.578125 41.40625 23.4375 41.40625 
Q 29.296875 41.40625 32.21875 44.921875 
Q 35.15625 48.4375 34.953125 53.3125 
Q 34.765625 58.203125 31.4375 60.546875 
Q 28.125 62.890625 22.453125 62.5 
Q 16.796875 62.109375 14.453125 59.171875 
Q 12.109375 56.25 12.109375 48.4375 
z
" id="SimHei-56"/>
       </defs>
       <use xlink:href="#SimHei-48"/>
       <use x="50" xlink:href="#SimHei-46"/>
       <use x="100" xlink:href="#SimHei-56"/>
      </g>
     </g>
    </g>
    <g id="xtick_10">
     <g id="line2d_19">
      <path clip-path="url(#p7b96e944b2)" d="M 355.879631 273.312 
L 355.879631 7.2 
" style="fill:none;stroke:#b0b0b0;stroke-dasharray:2.96,1.28;stroke-dashoffset:0;stroke-width:0.8;"/>
     </g>
     <g id="line2d_20">
      <g>
       <use style="stroke:#000000;stroke-width:0.8;" x="355.879631" xlink:href="#m62592b0b08" y="273.312"/>
      </g>
     </g>
     <g id="text_10">
      <!-- 0.9 -->
      <g transform="translate(348.379631 287.187)scale(0.1 -0.1)">
       <defs>
        <path d="M 12.5 1.171875 
Q 21.09375 15.625 26.5625 27.34375 
Q 16.796875 25.78125 10.34375 29.875 
Q 3.90625 33.984375 2.53125 41.015625 
Q 1.171875 48.046875 2.734375 53.703125 
Q 4.296875 59.375 7.609375 63.078125 
Q 10.9375 66.796875 15.625 68.359375 
Q 20.3125 69.921875 24.015625 69.921875 
Q 27.734375 69.921875 31.640625 68.359375 
Q 35.546875 66.796875 38.671875 63.671875 
Q 41.796875 60.546875 42.96875 57.21875 
Q 44.140625 53.90625 44.140625 48.625 
Q 44.140625 43.359375 40.234375 35.15625 
Q 36.328125 26.953125 21.09375 1.171875 
z
M 9.765625 50 
Q 10.9375 39.84375 14.640625 36.515625 
Q 18.359375 33.203125 22.65625 33.59375 
Q 26.953125 33.984375 29.484375 35.9375 
Q 32.03125 37.890625 34.375 42.578125 
Q 35.9375 48.4375 35.15625 52.53125 
Q 34.375 56.640625 31.046875 59.375 
Q 27.734375 62.109375 23.828125 62.109375 
Q 21.484375 62.5 17.765625 60.9375 
Q 14.0625 59.375 11.90625 54.6875 
Q 9.765625 50 10.9375 39.84375 
z
" id="SimHei-57"/>
       </defs>
       <use xlink:href="#SimHei-48"/>
       <use x="50" xlink:href="#SimHei-46"/>
       <use x="100" xlink:href="#SimHei-57"/>
      </g>
     </g>
    </g>
    <g id="xtick_11">
     <g id="line2d_21">
      <path clip-path="url(#p7b96e944b2)" d="M 388.345085 273.312 
L 388.345085 7.2 
" style="fill:none;stroke:#b0b0b0;stroke-dasharray:2.96,1.28;stroke-dashoffset:0;stroke-width:0.8;"/>
     </g>
     <g id="line2d_22">
      <g>
       <use style="stroke:#000000;stroke-width:0.8;" x="388.345085" xlink:href="#m62592b0b08" y="273.312"/>
      </g>
     </g>
     <g id="text_11">
      <!-- 1.0 -->
      <g transform="translate(380.845085 287.187)scale(0.1 -0.1)">
       <use xlink:href="#SimHei-49"/>
       <use x="50" xlink:href="#SimHei-46"/>
       <use x="100" xlink:href="#SimHei-48"/>
      </g>
     </g>
    </g>
    <g id="text_12">
     <!-- 平滑参数的取值 -->
     <g transform="translate(191.017813 300.444812)scale(0.1 -0.1)">
      <defs>
       <path d="M 70.703125 75.390625 
Q 76.5625 75.390625 85.15625 75.78125 
L 85.15625 68.359375 
Q 76.953125 68.75 70.703125 68.75 
L 54.296875 68.75 
L 54.296875 31.640625 
L 78.125 31.640625 
Q 86.71875 31.640625 94.140625 32.03125 
L 94.140625 24.609375 
Q 86.71875 25 78.125 25 
L 54.296875 25 
L 54.296875 7.03125 
Q 54.296875 -1.5625 54.6875 -9.375 
L 45.703125 -9.375 
Q 46.09375 -1.5625 46.09375 7.03125 
L 46.09375 25 
L 17.578125 25 
Q 12.109375 25 5.859375 24.609375 
L 5.859375 32.03125 
Q 12.109375 31.640625 18.359375 31.640625 
L 46.09375 31.640625 
L 46.09375 68.75 
L 27.734375 68.75 
Q 21.875 68.75 13.671875 68.359375 
L 13.671875 75.78125 
Q 21.875 75.390625 27.34375 75.390625 
z
M 61.328125 40.625 
Q 70.3125 51.5625 76.5625 64.453125 
Q 80.46875 61.71875 84.375 59.765625 
Q 74.609375 44.53125 67.96875 35.9375 
Q 64.84375 38.671875 61.328125 40.625 
z
M 30.859375 36.71875 
Q 25 48.4375 16.40625 58.203125 
Q 19.53125 60.546875 22.65625 63.28125 
Q 32.421875 51.5625 38.28125 42.578125 
Q 33.59375 39.0625 30.859375 36.71875 
z
" id="SimHei-24179"/>
       <path d="M 83.59375 79.6875 
Q 83.203125 73.828125 83.203125 68.75 
L 83.203125 51.953125 
L 95.703125 51.953125 
Q 95.3125 47.65625 95.3125 43.359375 
Q 95.3125 39.0625 95.703125 35.546875 
L 88.28125 35.546875 
L 88.28125 45.703125 
L 33.59375 45.703125 
L 33.59375 35.546875 
L 26.5625 35.546875 
Q 26.953125 39.84375 26.953125 43.75 
Q 26.953125 48.046875 26.5625 51.953125 
L 38.671875 51.953125 
L 38.671875 68.359375 
Q 38.671875 73.046875 38.28125 79.6875 
L 83.59375 79.6875 
z
M 82.421875 39.0625 
Q 82.03125 33.59375 82.03125 26.953125 
L 82.03125 -1.171875 
Q 82.03125 -5.859375 78.515625 -7.421875 
Q 75 -8.984375 68.359375 -9.765625 
Q 68.359375 -6.25 66.015625 -1.171875 
Q 74.609375 -2.734375 74.609375 1.171875 
L 74.609375 6.640625 
L 46.875 6.640625 
L 46.875 -9.765625 
L 39.453125 -9.765625 
Q 39.84375 -1.953125 39.84375 3.515625 
L 39.84375 27.34375 
Q 39.84375 33.203125 39.453125 39.0625 
L 82.421875 39.0625 
z
M 67.1875 66.015625 
L 67.1875 51.953125 
L 76.5625 51.953125 
L 76.5625 73.4375 
L 45.703125 73.4375 
L 45.703125 66.015625 
z
M 26.171875 29.6875 
Q 23.828125 26.171875 21.484375 19.71875 
Q 19.140625 13.28125 16.59375 6.828125 
Q 14.0625 0.390625 12.109375 -4.6875 
Q 7.8125 -1.5625 3.125 0.78125 
Q 5.859375 3.90625 8.203125 8.203125 
Q 10.546875 12.5 13.671875 19.921875 
Q 16.796875 27.34375 18.359375 33.203125 
Q 21.484375 31.25 26.171875 29.6875 
z
M 74.609375 25.390625 
L 74.609375 33.203125 
L 46.875 33.203125 
L 46.875 25.390625 
z
M 74.609375 12.5 
L 74.609375 19.53125 
L 46.875 19.53125 
L 46.875 12.5 
z
M 14.84375 80.078125 
Q 17.1875 78.515625 21.28125 75.390625 
Q 25.390625 72.265625 28.90625 69.53125 
Q 26.5625 66.796875 24.21875 62.5 
Q 20.703125 66.015625 17.375 68.75 
Q 14.0625 71.484375 10.15625 73.828125 
Q 12.890625 77.34375 14.84375 80.078125 
z
M 15.625 52.734375 
Q 19.140625 50.390625 23.046875 47.265625 
Q 20.703125 44.921875 18.359375 41.015625 
Q 14.84375 43.75 11.71875 46.09375 
Q 8.59375 48.4375 3.90625 51.171875 
L 8.59375 57.421875 
z
M 60.9375 51.953125 
L 60.9375 59.765625 
L 45.703125 59.765625 
L 45.703125 51.953125 
z
" id="SimHei-28369"/>
       <path d="M 51.953125 75.78125 
Q 48.4375 73.828125 44.53125 70.3125 
Q 40.625 66.796875 33.984375 61.328125 
Q 44.53125 61.71875 51.171875 61.71875 
Q 57.8125 61.71875 65.625 62.109375 
Q 61.71875 65.625 56.25 69.53125 
Q 59.375 72.265625 61.328125 74.609375 
Q 76.5625 64.0625 83.203125 57.421875 
Q 79.6875 54.296875 76.953125 51.5625 
Q 74.21875 54.296875 71.09375 56.640625 
Q 56.640625 56.25 50 55.859375 
Q 47.265625 50.78125 45.703125 48.828125 
L 79.296875 48.828125 
Q 87.109375 48.828125 92.96875 49.21875 
L 92.96875 42.1875 
Q 87.5 42.578125 79.296875 42.578125 
L 67.578125 42.578125 
Q 73.046875 36.71875 81.046875 32.421875 
Q 89.0625 28.125 96.09375 26.5625 
Q 91.40625 24.21875 88.671875 19.140625 
Q 79.6875 23.828125 72.0625 29.6875 
Q 64.453125 35.546875 59.375 42.578125 
L 42.578125 42.578125 
Q 36.328125 35.9375 28.3125 30.65625 
Q 20.3125 25.390625 10.15625 20.703125 
Q 8.203125 23.828125 3.90625 26.5625 
Q 11.328125 28.515625 19.328125 32.8125 
Q 27.34375 37.109375 32.8125 42.578125 
L 23.046875 42.578125 
Q 14.84375 42.578125 5.859375 42.1875 
L 5.859375 49.21875 
Q 13.671875 48.828125 23.046875 48.828125 
L 37.5 48.828125 
L 39.84375 52.34375 
L 41.40625 55.46875 
Q 30.078125 54.6875 27.734375 54.296875 
Q 25.390625 53.90625 23.4375 53.515625 
Q 21.484375 58.203125 20.3125 60.546875 
Q 25 61.71875 32.03125 67.765625 
Q 39.0625 73.828125 44.140625 81.640625 
Q 47.265625 78.90625 51.953125 75.78125 
z
M 83.59375 12.5 
Q 78.515625 10.15625 72.0625 6.828125 
Q 65.625 3.515625 60.15625 1.171875 
Q 54.6875 -1.171875 47.84375 -3.3125 
Q 41.015625 -5.46875 33.59375 -7.03125 
Q 26.171875 -8.59375 19.140625 -9.375 
Q 17.96875 -5.46875 14.0625 -2.34375 
Q 26.171875 -1.953125 36.90625 0.390625 
Q 47.65625 2.734375 54.875 6.046875 
Q 62.109375 9.375 67.375 12.5 
Q 72.65625 15.625 76.5625 19.53125 
Q 79.6875 16.015625 83.59375 12.5 
z
M 71.09375 22.65625 
Q 67.96875 21.484375 63.078125 18.75 
Q 58.203125 16.015625 52.34375 13.46875 
Q 46.484375 10.9375 39.25 8.59375 
Q 32.03125 6.25 24.609375 5.078125 
Q 22.65625 8.984375 19.53125 12.109375 
Q 27.734375 12.5 33.984375 14.0625 
Q 40.234375 15.625 48.046875 18.9375 
Q 55.859375 22.265625 64.453125 28.90625 
Q 67.1875 26.171875 71.09375 22.65625 
z
M 60.9375 32.421875 
Q 55.859375 30.46875 52.34375 28.515625 
Q 48.828125 26.5625 41.984375 23.828125 
Q 35.15625 21.09375 27.34375 18.75 
Q 25.390625 22.265625 22.65625 25 
Q 31.640625 26.5625 40.421875 30.265625 
Q 49.21875 33.984375 54.6875 39.0625 
Q 57.8125 35.546875 60.9375 32.421875 
z
" id="SimHei-21442"/>
       <path d="M 70.703125 76.953125 
Q 69.921875 75 68.75 71.671875 
Q 67.578125 68.359375 65.234375 59.765625 
L 83.203125 59.765625 
Q 87.109375 59.765625 92.578125 60.15625 
L 92.578125 53.125 
Q 88.28125 53.515625 85.9375 53.515625 
Q 85.9375 47.265625 83.78125 33.78125 
Q 81.640625 20.3125 76.171875 10.546875 
Q 80.078125 5.859375 84.953125 2.140625 
Q 89.84375 -1.5625 94.140625 -3.125 
Q 89.453125 -6.640625 87.890625 -9.765625 
Q 83.203125 -7.03125 79.296875 -3.515625 
Q 75.390625 0 71.484375 5.078125 
Q 67.1875 0.390625 62.296875 -2.921875 
Q 57.421875 -6.25 50 -10.15625 
Q 48.046875 -6.640625 44.53125 -4.6875 
Q 50.390625 -2.34375 57.03125 1.953125 
Q 63.671875 6.25 67.1875 10.546875 
Q 64.453125 16.015625 61.90625 22.265625 
Q 59.375 28.515625 57.421875 38.671875 
Q 56.25 35.546875 53.515625 30.46875 
Q 50.78125 32.03125 46.875 33.59375 
Q 53.125 44.53125 57.03125 57.421875 
Q 60.9375 70.3125 62.109375 79.6875 
Q 66.796875 77.734375 70.703125 76.953125 
z
M 32.8125 35.15625 
Q 31.25 33.59375 29.296875 30.078125 
L 50.78125 30.078125 
Q 48.4375 20.3125 42.578125 10.546875 
Q 48.828125 8.203125 52.34375 6.25 
Q 50.390625 3.515625 48.828125 0.390625 
Q 45.3125 2.734375 38.28125 5.078125 
Q 30.46875 -3.515625 11.328125 -10.15625 
Q 9.375 -5.859375 6.25 -4.296875 
Q 24.609375 0 31.25 7.421875 
Q 20.3125 10.15625 13.28125 12.109375 
Q 15.625 15.625 19.53125 23.828125 
Q 15.625 23.828125 6.640625 23.4375 
L 6.640625 30.46875 
Q 14.0625 30.078125 21.875 30.078125 
Q 23.4375 33.59375 24.21875 37.890625 
Q 28.515625 36.328125 32.8125 35.15625 
z
M 27.734375 61.71875 
Q 27.734375 71.09375 27.34375 79.6875 
L 35.15625 79.6875 
Q 34.765625 71.484375 34.765625 61.71875 
Q 48.046875 61.71875 53.515625 62.109375 
L 53.515625 55.078125 
Q 48.046875 55.46875 34.765625 55.46875 
Q 34.765625 44.140625 35.15625 37.890625 
L 27.34375 37.890625 
Q 27.734375 43.359375 27.734375 51.5625 
Q 25.78125 48.4375 20.3125 43.546875 
Q 14.84375 38.671875 10.15625 35.9375 
Q 8.203125 39.453125 4.296875 41.015625 
Q 7.8125 42.1875 13.671875 46.484375 
Q 19.53125 50.78125 22.65625 55.46875 
Q 14.84375 55.46875 7.8125 55.078125 
L 7.8125 62.109375 
Q 14.453125 61.71875 27.734375 61.71875 
z
M 62.109375 49.609375 
Q 65.625 26.5625 71.875 17.578125 
Q 75.78125 26.5625 77.140625 35.734375 
Q 78.515625 44.921875 78.90625 53.515625 
L 63.671875 53.515625 
L 62.109375 49.609375 
z
M 22.65625 15.625 
Q 27.34375 14.453125 35.546875 12.5 
Q 38.671875 16.40625 41.40625 23.828125 
L 26.953125 23.828125 
Q 25 19.921875 22.65625 15.625 
z
M 51.953125 75.390625 
Q 50 72.265625 48.828125 69.53125 
Q 47.65625 66.796875 45.703125 62.890625 
Q 42.578125 64.453125 39.453125 65.234375 
Q 42.578125 70.3125 45.3125 78.125 
Q 49.21875 76.171875 51.953125 75.390625 
z
M 40.234375 52.734375 
Q 45.3125 47.65625 50 42.578125 
Q 47.65625 40.625 44.921875 37.890625 
Q 39.453125 44.53125 35.9375 48.4375 
Q 38.28125 50.390625 40.234375 52.734375 
z
M 14.453125 78.125 
Q 19.921875 72.65625 23.4375 67.1875 
L 17.578125 63.671875 
Q 14.84375 69.140625 9.375 73.828125 
Q 12.890625 76.171875 14.453125 78.125 
z
" id="SimHei-25968"/>
       <path d="M 32.8125 77.734375 
Q 30.859375 74.21875 27.34375 61.71875 
L 44.921875 61.71875 
Q 44.53125 55.078125 44.53125 44.921875 
L 44.53125 10.546875 
Q 44.53125 4.6875 44.921875 -6.25 
L 37.109375 -6.25 
L 37.109375 1.5625 
L 17.1875 1.5625 
L 17.1875 -7.03125 
L 9.375 -7.03125 
Q 9.765625 5.46875 9.765625 8.59375 
L 9.765625 44.53125 
Q 9.765625 55.078125 9.375 61.71875 
L 20.703125 61.71875 
Q 22.65625 70.703125 23.828125 80.46875 
Q 29.296875 78.515625 32.8125 77.734375 
z
M 91.015625 48.046875 
Q 90.625 24.21875 89.0625 2.734375 
Q 88.28125 -4.296875 81.640625 -6.640625 
Q 75 -8.984375 66.796875 -9.765625 
Q 66.40625 -5.46875 63.28125 -0.78125 
Q 71.09375 -1.171875 75.578125 -0.390625 
Q 80.078125 0.390625 81.25 3.125 
Q 82.421875 5.859375 83 19.140625 
Q 83.59375 32.421875 83.984375 56.25 
L 61.328125 56.25 
Q 58.203125 48.828125 52.34375 38.671875 
Q 49.609375 41.40625 45.703125 42.96875 
Q 49.21875 47.65625 52.34375 54.296875 
Q 55.46875 60.9375 57.8125 68.75 
Q 60.15625 76.5625 60.546875 80.859375 
Q 66.015625 78.515625 69.921875 77.34375 
Q 67.96875 74.21875 66.59375 70.5 
Q 65.234375 66.796875 63.671875 63.28125 
L 91.40625 63.28125 
Q 91.015625 55.078125 91.015625 48.046875 
z
M 37.109375 8.203125 
L 37.109375 28.90625 
L 17.1875 28.90625 
L 17.1875 8.203125 
z
M 37.109375 35.546875 
L 37.109375 55.078125 
L 17.1875 55.078125 
L 17.1875 35.546875 
z
M 67.96875 32.03125 
Q 70.3125 27.34375 73.4375 19.921875 
Q 70.703125 18.75 66.015625 16.015625 
Q 63.28125 23.4375 60.9375 28.703125 
Q 58.59375 33.984375 56.25 37.5 
Q 58.984375 39.0625 63.28125 41.40625 
z
" id="SimHei-30340"/>
       <path d="M 41.40625 76.171875 
Q 48.046875 76.171875 52.734375 76.5625 
L 52.734375 69.921875 
Q 49.609375 70.3125 46.484375 70.3125 
L 46.484375 17.578125 
Q 50.78125 18.75 56.25 20.3125 
L 56.25 13.671875 
Q 51.171875 12.5 46.484375 11.328125 
Q 46.484375 -3.90625 46.875 -10.9375 
L 39.0625 -10.9375 
Q 39.453125 -5.078125 39.453125 9.765625 
Q 30.078125 7.8125 22.265625 5.078125 
Q 14.453125 2.34375 8.984375 -0.390625 
L 5.859375 8.59375 
L 14.453125 10.15625 
L 14.453125 70.3125 
Q 11.328125 70.3125 6.640625 69.921875 
L 6.640625 76.5625 
Q 11.71875 76.171875 20.3125 76.171875 
z
M 49.609375 -1.953125 
Q 54.6875 1.171875 58.78125 5.65625 
Q 62.890625 10.15625 67.96875 17.96875 
Q 62.109375 28.90625 60.34375 40.234375 
Q 58.59375 51.5625 57.8125 66.40625 
L 54.6875 66.40625 
L 54.6875 73.046875 
Q 62.5 72.65625 68.75 72.65625 
L 90.625 72.65625 
Q 89.0625 53.515625 86.125 41.015625 
Q 83.203125 28.515625 76.953125 17.96875 
Q 80.078125 12.5 85.34375 7.8125 
Q 90.625 3.125 96.875 -0.390625 
Q 92.96875 -3.125 90.234375 -7.03125 
Q 82.03125 -1.5625 72.65625 11.328125 
Q 65.625 0 56.640625 -7.8125 
Q 54.296875 -4.6875 49.609375 -1.953125 
z
M 64.84375 66.40625 
Q 66.015625 50.78125 66.984375 42.96875 
Q 67.96875 35.15625 72.265625 25 
Q 78.515625 37.890625 80.265625 49.015625 
Q 82.03125 60.15625 82.421875 66.40625 
L 64.84375 66.40625 
z
M 39.453125 53.90625 
L 39.453125 70.3125 
L 21.484375 70.3125 
L 21.484375 53.90625 
z
M 21.484375 11.71875 
Q 30.859375 13.671875 39.453125 15.625 
L 39.453125 28.125 
L 21.484375 28.125 
L 21.484375 11.71875 
z
M 39.453125 34.375 
L 39.453125 48.046875 
L 21.484375 48.046875 
L 21.484375 34.375 
z
" id="SimHei-21462"/>
       <path d="M 57.421875 69.53125 
L 57.421875 79.6875 
Q 62.109375 79.296875 67.96875 78.90625 
Q 66.015625 76.171875 65.625 69.53125 
L 80.078125 69.53125 
Q 86.71875 69.53125 91.796875 69.921875 
L 91.796875 62.890625 
Q 86.328125 63.28125 80.078125 63.28125 
L 65.234375 63.28125 
L 64.453125 54.6875 
L 84.375 54.6875 
Q 83.984375 50 83.984375 42.1875 
L 83.984375 2.34375 
Q 91.796875 2.34375 95.3125 2.734375 
L 95.3125 -4.296875 
Q 90.234375 -3.90625 81.25 -3.90625 
L 44.53125 -3.90625 
Q 35.546875 -3.90625 29.6875 -4.296875 
L 29.6875 2.734375 
Q 33.203125 2.34375 40.625 2.34375 
L 40.625 42.1875 
Q 40.625 49.609375 40.234375 54.6875 
L 56.25 54.6875 
L 57.03125 63.28125 
L 50 63.28125 
Q 40.234375 63.28125 34.765625 62.890625 
L 34.765625 69.921875 
Q 39.84375 69.53125 50 69.53125 
z
M 34.765625 76.5625 
Q 31.640625 73.046875 25.78125 58.59375 
L 25.78125 7.03125 
Q 25.78125 -1.171875 26.171875 -8.59375 
L 17.96875 -8.59375 
Q 18.359375 -1.953125 18.359375 5.859375 
L 18.359375 46.09375 
Q 13.671875 38.28125 9.765625 33.59375 
Q 6.640625 37.890625 3.90625 40.234375 
Q 7.8125 44.140625 14.640625 55.265625 
Q 21.484375 66.40625 25.390625 80.46875 
Q 30.859375 77.734375 34.765625 76.5625 
z
M 76.953125 41.40625 
L 76.953125 49.21875 
L 48.046875 49.21875 
L 48.046875 41.40625 
z
M 76.953125 2.34375 
L 76.953125 9.765625 
L 48.046875 9.765625 
L 48.046875 2.34375 
z
M 76.953125 15.625 
L 76.953125 22.65625 
L 48.046875 22.65625 
L 48.046875 15.625 
z
M 76.953125 28.515625 
L 76.953125 35.546875 
L 48.046875 35.546875 
L 48.046875 28.515625 
z
" id="SimHei-20540"/>
      </defs>
      <use xlink:href="#SimHei-24179"/>
      <use x="100" xlink:href="#SimHei-28369"/>
      <use x="200" xlink:href="#SimHei-21442"/>
      <use x="300" xlink:href="#SimHei-25968"/>
      <use x="400" xlink:href="#SimHei-30340"/>
      <use x="500" xlink:href="#SimHei-21462"/>
      <use x="600" xlink:href="#SimHei-20540"/>
     </g>
    </g>
   </g>
   <g id="matplotlib.axis_2">
    <g id="ytick_1">
     <g id="line2d_23">
      <path clip-path="url(#p7b96e944b2)" d="M 47.457813 230.127475 
L 404.577813 230.127475 
" style="fill:none;stroke:#b0b0b0;stroke-dasharray:2.96,1.28;stroke-dashoffset:0;stroke-width:0.8;"/>
     </g>
     <g id="line2d_24">
      <defs>
       <path d="M 0 0 
L -3.5 0 
" id="ma483e81208" style="stroke:#000000;stroke-width:0.8;"/>
      </defs>
      <g>
       <use style="stroke:#000000;stroke-width:0.8;" x="47.457813" xlink:href="#ma483e81208" y="230.127475"/>
      </g>
     </g>
     <g id="text_13">
      <!-- 0.86 -->
      <g transform="translate(20.457813 233.564975)scale(0.1 -0.1)">
       <use xlink:href="#SimHei-48"/>
       <use x="50" xlink:href="#SimHei-46"/>
       <use x="100" xlink:href="#SimHei-56"/>
       <use x="150" xlink:href="#SimHei-54"/>
      </g>
     </g>
    </g>
    <g id="ytick_2">
     <g id="line2d_25">
      <path clip-path="url(#p7b96e944b2)" d="M 47.457813 179.089576 
L 404.577813 179.089576 
" style="fill:none;stroke:#b0b0b0;stroke-dasharray:2.96,1.28;stroke-dashoffset:0;stroke-width:0.8;"/>
     </g>
     <g id="line2d_26">
      <g>
       <use style="stroke:#000000;stroke-width:0.8;" x="47.457813" xlink:href="#ma483e81208" y="179.089576"/>
      </g>
     </g>
     <g id="text_14">
      <!-- 0.87 -->
      <g transform="translate(20.457813 182.527076)scale(0.1 -0.1)">
       <use xlink:href="#SimHei-48"/>
       <use x="50" xlink:href="#SimHei-46"/>
       <use x="100" xlink:href="#SimHei-56"/>
       <use x="150" xlink:href="#SimHei-55"/>
      </g>
     </g>
    </g>
    <g id="ytick_3">
     <g id="line2d_27">
      <path clip-path="url(#p7b96e944b2)" d="M 47.457813 128.051678 
L 404.577813 128.051678 
" style="fill:none;stroke:#b0b0b0;stroke-dasharray:2.96,1.28;stroke-dashoffset:0;stroke-width:0.8;"/>
     </g>
     <g id="line2d_28">
      <g>
       <use style="stroke:#000000;stroke-width:0.8;" x="47.457813" xlink:href="#ma483e81208" y="128.051678"/>
      </g>
     </g>
     <g id="text_15">
      <!-- 0.88 -->
      <g transform="translate(20.457813 131.489178)scale(0.1 -0.1)">
       <use xlink:href="#SimHei-48"/>
       <use x="50" xlink:href="#SimHei-46"/>
       <use x="100" xlink:href="#SimHei-56"/>
       <use x="150" xlink:href="#SimHei-56"/>
      </g>
     </g>
    </g>
    <g id="ytick_4">
     <g id="line2d_29">
      <path clip-path="url(#p7b96e944b2)" d="M 47.457813 77.013779 
L 404.577813 77.013779 
" style="fill:none;stroke:#b0b0b0;stroke-dasharray:2.96,1.28;stroke-dashoffset:0;stroke-width:0.8;"/>
     </g>
     <g id="line2d_30">
      <g>
       <use style="stroke:#000000;stroke-width:0.8;" x="47.457813" xlink:href="#ma483e81208" y="77.013779"/>
      </g>
     </g>
     <g id="text_16">
      <!-- 0.89 -->
      <g transform="translate(20.457813 80.451279)scale(0.1 -0.1)">
       <use xlink:href="#SimHei-48"/>
       <use x="50" xlink:href="#SimHei-46"/>
       <use x="100" xlink:href="#SimHei-56"/>
       <use x="150" xlink:href="#SimHei-57"/>
      </g>
     </g>
    </g>
    <g id="ytick_5">
     <g id="line2d_31">
      <path clip-path="url(#p7b96e944b2)" d="M 47.457813 25.975881 
L 404.577813 25.975881 
" style="fill:none;stroke:#b0b0b0;stroke-dasharray:2.96,1.28;stroke-dashoffset:0;stroke-width:0.8;"/>
     </g>
     <g id="line2d_32">
      <g>
       <use style="stroke:#000000;stroke-width:0.8;" x="47.457813" xlink:href="#ma483e81208" y="25.975881"/>
      </g>
     </g>
     <g id="text_17">
      <!-- 0.90 -->
      <g transform="translate(20.457813 29.413381)scale(0.1 -0.1)">
       <use xlink:href="#SimHei-48"/>
       <use x="50" xlink:href="#SimHei-46"/>
       <use x="100" xlink:href="#SimHei-57"/>
       <use x="150" xlink:href="#SimHei-48"/>
      </g>
     </g>
    </g>
    <g id="text_18">
     <!-- 精度 -->
     <g transform="translate(15.207813 150.256)rotate(-90)scale(0.1 -0.1)">
      <defs>
       <path d="M 87.5 35.9375 
Q 87.109375 28.515625 87.109375 21.875 
L 87.109375 -1.5625 
Q 87.109375 -7.421875 83.390625 -8.59375 
Q 79.6875 -9.765625 74.609375 -10.546875 
Q 73.4375 -5.859375 71.09375 -2.734375 
Q 76.5625 -2.734375 78.3125 -2.140625 
Q 80.078125 -1.5625 80.078125 1.171875 
L 80.078125 5.078125 
L 53.515625 5.078125 
L 53.515625 -9.765625 
L 46.484375 -9.765625 
Q 46.875 1.171875 46.875 14.453125 
Q 46.875 27.734375 46.484375 35.9375 
L 87.5 35.9375 
z
M 19.921875 69.53125 
Q 19.921875 76.171875 19.53125 80.078125 
L 27.34375 80.078125 
Q 26.953125 73.046875 26.953125 69.140625 
L 26.953125 49.609375 
Q 33.203125 49.609375 38.28125 50 
L 38.28125 42.96875 
Q 33.203125 43.359375 26.953125 43.359375 
L 26.953125 5.078125 
Q 26.953125 -1.171875 27.34375 -10.15625 
L 19.53125 -10.15625 
Q 19.921875 -1.171875 19.921875 5.078125 
L 19.921875 30.078125 
Q 16.40625 21.09375 8.984375 10.546875 
Q 6.25 12.890625 3.125 15.625 
Q 7.03125 19.921875 11.125 27.140625 
Q 15.234375 34.375 17.96875 43.359375 
Q 10.9375 43.359375 5.46875 42.96875 
L 5.46875 50 
Q 10.9375 49.609375 19.921875 49.609375 
z
M 63.28125 71.09375 
Q 63.28125 75.78125 62.890625 80.078125 
L 70.703125 80.078125 
Q 70.3125 75 70.3125 71.09375 
L 78.90625 71.09375 
Q 85.546875 71.09375 90.625 71.484375 
L 90.625 65.234375 
Q 85.15625 65.625 78.90625 65.625 
L 70.3125 65.625 
L 70.3125 58.203125 
L 75.78125 58.203125 
Q 82.03125 58.203125 87.890625 58.59375 
L 87.890625 52.34375 
Q 82.03125 52.734375 75.390625 52.734375 
L 70.3125 52.734375 
L 70.3125 46.09375 
L 79.6875 46.09375 
Q 86.71875 46.09375 94.921875 46.484375 
L 94.921875 40.234375 
Q 87.109375 40.625 79.6875 40.625 
L 56.25 40.625 
Q 50 40.625 41.015625 40.234375 
L 41.015625 46.484375 
Q 49.21875 46.09375 55.859375 46.09375 
L 63.28125 46.09375 
L 63.28125 52.734375 
L 57.421875 52.734375 
Q 51.5625 52.734375 46.484375 52.34375 
L 46.484375 58.59375 
Q 51.953125 58.203125 55.859375 58.203125 
L 63.28125 58.203125 
L 63.28125 65.625 
L 57.03125 65.625 
Q 50.78125 65.625 43.75 65.234375 
L 43.75 71.484375 
Q 50.78125 71.09375 57.03125 71.09375 
z
M 80.078125 10.546875 
L 80.078125 18.359375 
L 53.515625 18.359375 
L 53.515625 10.546875 
z
M 80.078125 23.828125 
L 80.078125 30.46875 
L 53.515625 30.46875 
L 53.515625 23.828125 
z
M 41.40625 68.359375 
Q 35.9375 57.03125 33.984375 52.734375 
Q 30.859375 54.296875 27.734375 55.078125 
Q 31.640625 63.28125 34.375 71.09375 
Q 38.671875 69.53125 41.40625 68.359375 
z
M 33.203125 36.71875 
Q 38.671875 29.6875 43.359375 23.046875 
Q 40.625 21.09375 37.5 18.75 
Q 33.203125 26.5625 27.734375 32.421875 
Q 30.859375 34.375 33.203125 36.71875 
z
M 10.15625 70.703125 
Q 14.0625 64.84375 18.359375 56.640625 
Q 16.015625 55.46875 12.5 53.125 
Q 9.375 59.375 4.296875 67.1875 
Q 7.8125 69.140625 10.15625 70.703125 
z
" id="SimHei-31934"/>
       <path d="M 27.34375 26.171875 
Q 38.28125 25.78125 44.921875 25.78125 
L 81.25 25.78125 
Q 77.734375 19.53125 72.65625 13.28125 
Q 67.578125 7.03125 62.890625 3.125 
Q 67.96875 0.78125 77.34375 -0.78125 
Q 86.71875 -2.34375 95.3125 -2.34375 
Q 92.96875 -4.6875 91.015625 -10.15625 
Q 79.6875 -8.59375 71.09375 -6.4375 
Q 62.5 -4.296875 56.640625 -1.5625 
Q 48.4375 -5.078125 40.421875 -7.21875 
Q 32.421875 -9.375 23.828125 -10.546875 
Q 22.65625 -7.421875 19.140625 -3.90625 
Q 26.171875 -3.90625 35.15625 -1.953125 
Q 44.140625 0 50.78125 3.125 
Q 44.140625 8.59375 37.5 19.921875 
L 27.34375 19.53125 
z
M 46.484375 79.296875 
Q 50.78125 80.46875 54.296875 82.03125 
Q 56.640625 77.734375 58.984375 70.703125 
L 73.4375 70.703125 
Q 77.734375 70.703125 89.0625 71.09375 
L 89.0625 64.0625 
Q 78.125 64.453125 72.65625 64.453125 
L 21.484375 64.453125 
Q 21.484375 46.875 21.09375 36.125 
Q 20.703125 25.390625 18.9375 14.84375 
Q 17.1875 4.296875 11.328125 -8.203125 
Q 7.8125 -5.859375 3.90625 -4.6875 
Q 10.15625 6.25 11.90625 16.796875 
Q 13.671875 27.34375 13.859375 43.75 
Q 14.0625 60.15625 13.671875 70.703125 
L 50 70.703125 
Q 48.4375 75.78125 46.484375 79.296875 
z
M 38.671875 51.5625 
Q 38.671875 57.8125 38.28125 61.328125 
L 46.484375 61.328125 
Q 46.09375 58.203125 46.09375 51.5625 
L 67.1875 51.5625 
Q 67.1875 57.8125 66.796875 61.71875 
L 75 61.71875 
Q 74.609375 57.03125 74.609375 51.5625 
Q 83.203125 51.5625 89.453125 51.953125 
L 89.453125 45.3125 
Q 83.59375 45.703125 74.609375 45.703125 
Q 74.609375 35.15625 75 30.46875 
L 38.28125 30.46875 
Q 38.671875 36.71875 38.671875 45.703125 
Q 33.984375 45.703125 25 45.3125 
L 25 51.953125 
Q 33.984375 51.5625 38.671875 51.5625 
z
M 67.1875 36.71875 
L 67.1875 45.703125 
L 46.09375 45.703125 
L 46.09375 36.71875 
z
M 44.921875 19.921875 
Q 50 12.109375 57.03125 6.640625 
Q 62.890625 10.9375 69.140625 19.921875 
L 45.3125 19.921875 
z
" id="SimHei-24230"/>
      </defs>
      <use xlink:href="#SimHei-31934"/>
      <use x="100" xlink:href="#SimHei-24230"/>
     </g>
    </g>
   </g>
   <g id="line2d_33">
    <path clip-path="url(#p7b96e944b2)" d="M 63.69054 71.651821 
L 96.155994 19.296 
L 128.621449 65.333015 
L 161.086903 101.440478 
L 193.552358 139.353313 
L 226.017813 162.823164 
L 258.483267 189.903761 
L 290.948722 211.568239 
L 323.414176 235.03809 
L 355.879631 249.481075 
L 388.345085 261.216 
" style="fill:none;stroke:#1f77b4;stroke-linecap:square;stroke-width:1.5;"/>
   </g>
   <g id="patch_3">
    <path d="M 47.457813 273.312 
L 47.457813 7.2 
" style="fill:none;stroke:#000000;stroke-linecap:square;stroke-linejoin:miter;stroke-width:0.8;"/>
   </g>
   <g id="patch_4">
    <path d="M 404.577813 273.312 
L 404.577813 7.2 
" style="fill:none;stroke:#000000;stroke-linecap:square;stroke-linejoin:miter;stroke-width:0.8;"/>
   </g>
   <g id="patch_5">
    <path d="M 47.457813 273.312 
L 404.577813 273.312 
" style="fill:none;stroke:#000000;stroke-linecap:square;stroke-linejoin:miter;stroke-width:0.8;"/>
   </g>
   <g id="patch_6">
    <path d="M 47.457813 7.2 
L 404.577813 7.2 
" style="fill:none;stroke:#000000;stroke-linecap:square;stroke-linejoin:miter;stroke-width:0.8;"/>
   </g>
  </g>
 </g>
 <defs>
  <clipPath id="p7b96e944b2">
   <rect height="266.112" width="357.12" x="47.457813" y="7.2"/>
  </clipPath>
 </defs>
</svg>
