<?xml version="1.0" encoding="utf-8" standalone="no"?>
<!DOCTYPE svg PUBLIC "-//W3C//DTD SVG 1.1//EN"
  "http://www.w3.org/Graphics/SVG/1.1/DTD/svg11.dtd">
<!-- Created with matplotlib (https://matplotlib.org/) -->
<svg height="345.6pt" version="1.1" viewBox="0 0 460.8 345.6" width="460.8pt" xmlns="http://www.w3.org/2000/svg" xmlns:xlink="http://www.w3.org/1999/xlink">
 <metadata>
  <rdf:RDF xmlns:cc="http://creativecommons.org/ns#" xmlns:dc="http://purl.org/dc/elements/1.1/" xmlns:rdf="http://www.w3.org/1999/02/22-rdf-syntax-ns#">
   <cc:Work>
    <dc:type rdf:resource="http://purl.org/dc/dcmitype/StillImage"/>
    <dc:date>2021-11-14T11:24:33.219252</dc:date>
    <dc:format>image/svg+xml</dc:format>
    <dc:creator>
     <cc:Agent>
      <dc:title>Matplotlib v3.3.2, https://matplotlib.org/</dc:title>
     </cc:Agent>
    </dc:creator>
   </cc:Work>
  </rdf:RDF>
 </metadata>
 <defs>
  <style type="text/css">*{stroke-linecap:butt;stroke-linejoin:round;}</style>
 </defs>
 <g id="figure_1">
  <g id="patch_1">
   <path d="M 0 345.6 
L 460.8 345.6 
L 460.8 0 
L 0 0 
z
" style="fill:#ffffff;"/>
  </g>
  <g id="axes_1">
   <g id="patch_2">
    <path d="M 57.6 307.584 
L 414.72 307.584 
L 414.72 41.472 
L 57.6 41.472 
z
" style="fill:#ffffff;"/>
   </g>
   <g id="matplotlib.axis_1">
    <g id="xtick_1">
     <g id="line2d_1">
      <path clip-path="url(#pfca019bd07)" d="M 73.832727 307.584 
L 73.832727 41.472 
" style="fill:none;stroke:#b0b0b0;stroke-dasharray:2.96,1.28;stroke-dashoffset:0;stroke-width:0.8;"/>
     </g>
     <g id="line2d_2">
      <defs>
       <path d="M 0 0 
L 0 3.5 
" id="m9c57e9f40d" style="stroke:#000000;stroke-width:0.8;"/>
      </defs>
      <g>
       <use style="stroke:#000000;stroke-width:0.8;" x="73.832727" xlink:href="#m9c57e9f40d" y="307.584"/>
      </g>
     </g>
     <g id="text_1">
      <!-- 1 -->
      <g transform="translate(71.332727 321.459)scale(0.1 -0.1)">
       <defs>
        <path d="M 21.875 56.25 
Q 16.796875 51.171875 8.984375 46.484375 
L 8.984375 53.90625 
Q 18.75 60.546875 25 69.53125 
L 29.6875 69.53125 
L 29.6875 2.34375 
L 21.875 2.34375 
z
" id="SimHei-49"/>
       </defs>
       <use xlink:href="#SimHei-49"/>
      </g>
     </g>
    </g>
    <g id="xtick_2">
     <g id="line2d_3">
      <path clip-path="url(#pfca019bd07)" d="M 109.905455 307.584 
L 109.905455 41.472 
" style="fill:none;stroke:#b0b0b0;stroke-dasharray:2.96,1.28;stroke-dashoffset:0;stroke-width:0.8;"/>
     </g>
     <g id="line2d_4">
      <g>
       <use style="stroke:#000000;stroke-width:0.8;" x="109.905455" xlink:href="#m9c57e9f40d" y="307.584"/>
      </g>
     </g>
     <g id="text_2">
      <!-- 2 -->
      <g transform="translate(107.405455 321.459)scale(0.1 -0.1)">
       <defs>
        <path d="M 4.6875 3.90625 
Q 5.078125 9.765625 10.15625 14.453125 
Q 15.234375 19.140625 23.046875 29.09375 
Q 30.859375 39.0625 33.203125 44.53125 
Q 35.546875 50 34.953125 53.90625 
Q 34.375 57.8125 31.25 60.34375 
Q 28.125 62.890625 24.015625 62.5 
Q 19.921875 62.109375 16.203125 59.375 
Q 12.5 56.640625 10.546875 51.171875 
L 3.125 52.34375 
Q 6.25 61.328125 11.125 65.421875 
Q 16.015625 69.53125 22.65625 69.921875 
Q 26.5625 70.3125 29.6875 69.71875 
Q 32.8125 69.140625 36.125 66.984375 
Q 39.453125 64.84375 41.59375 60.546875 
Q 43.75 56.25 43.15625 50.1875 
Q 42.578125 44.140625 37.109375 35.734375 
Q 31.640625 27.34375 16.015625 9.375 
L 44.140625 9.375 
L 44.140625 2.34375 
L 4.6875 2.34375 
z
" id="SimHei-50"/>
       </defs>
       <use xlink:href="#SimHei-50"/>
      </g>
     </g>
    </g>
    <g id="xtick_3">
     <g id="line2d_5">
      <path clip-path="url(#pfca019bd07)" d="M 145.978182 307.584 
L 145.978182 41.472 
" style="fill:none;stroke:#b0b0b0;stroke-dasharray:2.96,1.28;stroke-dashoffset:0;stroke-width:0.8;"/>
     </g>
     <g id="line2d_6">
      <g>
       <use style="stroke:#000000;stroke-width:0.8;" x="145.978182" xlink:href="#m9c57e9f40d" y="307.584"/>
      </g>
     </g>
     <g id="text_3">
      <!-- 3 -->
      <g transform="translate(143.478182 321.459)scale(0.1 -0.1)">
       <defs>
        <path d="M 3.90625 19.140625 
L 10.9375 20.3125 
Q 12.5 15.234375 16.015625 11.90625 
Q 19.53125 8.59375 24.796875 8.78125 
Q 30.078125 8.984375 33.203125 13.078125 
Q 36.328125 17.1875 35.9375 22.453125 
Q 35.546875 27.734375 31.828125 30.65625 
Q 28.125 33.59375 19.921875 34.765625 
L 19.921875 39.84375 
Q 28.125 40.625 31.828125 44.140625 
Q 35.546875 47.65625 35.15625 53.3125 
Q 34.765625 58.984375 30.078125 61.515625 
Q 25.390625 64.0625 20.109375 62.109375 
Q 14.84375 60.15625 11.71875 51.171875 
L 4.6875 52.34375 
Q 7.03125 59.375 11.125 64.0625 
Q 15.234375 68.75 22.265625 69.53125 
Q 29.296875 70.3125 34.5625 67.765625 
Q 39.84375 65.234375 41.984375 59.953125 
Q 44.140625 54.6875 42.578125 48.4375 
Q 41.015625 42.1875 33.59375 37.5 
Q 39.0625 35.15625 41.984375 30.46875 
Q 44.921875 25.78125 43.9375 18.15625 
Q 42.96875 10.546875 37.109375 5.859375 
Q 31.25 1.171875 23.828125 1.359375 
Q 16.40625 1.5625 10.9375 6.046875 
Q 5.46875 10.546875 3.90625 19.140625 
z
" id="SimHei-51"/>
       </defs>
       <use xlink:href="#SimHei-51"/>
      </g>
     </g>
    </g>
    <g id="xtick_4">
     <g id="line2d_7">
      <path clip-path="url(#pfca019bd07)" d="M 182.050909 307.584 
L 182.050909 41.472 
" style="fill:none;stroke:#b0b0b0;stroke-dasharray:2.96,1.28;stroke-dashoffset:0;stroke-width:0.8;"/>
     </g>
     <g id="line2d_8">
      <g>
       <use style="stroke:#000000;stroke-width:0.8;" x="182.050909" xlink:href="#m9c57e9f40d" y="307.584"/>
      </g>
     </g>
     <g id="text_4">
      <!-- 4 -->
      <g transform="translate(179.550909 321.459)scale(0.1 -0.1)">
       <defs>
        <path d="M 31.25 17.1875 
L 1.171875 17.1875 
L 1.171875 23.828125 
L 32.8125 69.53125 
L 38.671875 69.53125 
L 38.671875 23.828125 
L 48.046875 23.828125 
L 48.046875 17.1875 
L 38.671875 17.1875 
L 38.671875 2.34375 
L 31.25 2.34375 
z
M 31.25 23.828125 
L 31.25 54.6875 
L 9.375 23.828125 
z
" id="SimHei-52"/>
       </defs>
       <use xlink:href="#SimHei-52"/>
      </g>
     </g>
    </g>
    <g id="xtick_5">
     <g id="line2d_9">
      <path clip-path="url(#pfca019bd07)" d="M 218.123636 307.584 
L 218.123636 41.472 
" style="fill:none;stroke:#b0b0b0;stroke-dasharray:2.96,1.28;stroke-dashoffset:0;stroke-width:0.8;"/>
     </g>
     <g id="line2d_10">
      <g>
       <use style="stroke:#000000;stroke-width:0.8;" x="218.123636" xlink:href="#m9c57e9f40d" y="307.584"/>
      </g>
     </g>
     <g id="text_5">
      <!-- 5 -->
      <g transform="translate(215.623636 321.459)scale(0.1 -0.1)">
       <defs>
        <path d="M 8.59375 20.703125 
Q 11.328125 10.15625 17.96875 8.984375 
Q 24.609375 7.8125 28.703125 10.34375 
Q 32.8125 12.890625 34.5625 16.984375 
Q 36.328125 21.09375 36.125 26.171875 
Q 35.9375 31.25 33.390625 34.765625 
Q 30.859375 38.28125 26.953125 39.453125 
Q 23.046875 40.625 18.15625 39.453125 
Q 13.28125 38.28125 10.15625 33.984375 
L 3.515625 34.765625 
Q 4.296875 37.109375 10.9375 68.359375 
L 41.796875 68.359375 
L 41.796875 61.328125 
L 16.796875 61.328125 
Q 14.84375 50.78125 12.890625 44.53125 
Q 18.75 47.265625 23.828125 47.0625 
Q 28.90625 46.875 33.59375 44.71875 
Q 38.28125 42.578125 40.421875 38.859375 
Q 42.578125 35.15625 43.546875 31.4375 
Q 44.53125 27.734375 44.328125 23.4375 
Q 44.140625 19.140625 42.578125 14.640625 
Q 41.015625 10.15625 37.890625 7.21875 
Q 34.765625 4.296875 30.265625 2.53125 
Q 25.78125 0.78125 19.921875 1.171875 
Q 14.0625 1.5625 8.78125 5.46875 
Q 3.515625 9.375 1.5625 18.75 
z
" id="SimHei-53"/>
       </defs>
       <use xlink:href="#SimHei-53"/>
      </g>
     </g>
    </g>
    <g id="xtick_6">
     <g id="line2d_11">
      <path clip-path="url(#pfca019bd07)" d="M 254.196364 307.584 
L 254.196364 41.472 
" style="fill:none;stroke:#b0b0b0;stroke-dasharray:2.96,1.28;stroke-dashoffset:0;stroke-width:0.8;"/>
     </g>
     <g id="line2d_12">
      <g>
       <use style="stroke:#000000;stroke-width:0.8;" x="254.196364" xlink:href="#m9c57e9f40d" y="307.584"/>
      </g>
     </g>
     <g id="text_6">
      <!-- 6 -->
      <g transform="translate(251.696364 321.459)scale(0.1 -0.1)">
       <defs>
        <path d="M 3.515625 19.53125 
Q 4.296875 30.859375 6.046875 34.765625 
Q 7.8125 38.671875 11.328125 44.53125 
L 27.34375 69.53125 
L 36.328125 69.53125 
L 19.921875 43.75 
Q 30.46875 46.484375 36.71875 42.96875 
Q 42.96875 39.453125 45.109375 34.953125 
Q 47.265625 30.46875 47.453125 25.1875 
Q 47.65625 19.921875 45.890625 14.84375 
Q 44.140625 9.765625 39.640625 5.65625 
Q 35.15625 1.5625 27.140625 1.171875 
Q 19.140625 0.78125 13.46875 4.09375 
Q 7.8125 7.421875 5.65625 13.46875 
Q 3.515625 19.53125 4.296875 30.859375 
z
M 12.5 16.015625 
Q 19.53125 8.59375 25.390625 8.203125 
Q 31.25 7.8125 35.15625 12.109375 
Q 39.0625 16.40625 39.0625 24.609375 
Q 39.0625 32.8125 34.171875 35.9375 
Q 29.296875 39.0625 23.234375 38.28125 
Q 17.1875 37.5 14.453125 32.421875 
Q 11.71875 27.34375 12.109375 21.671875 
Q 12.5 16.015625 19.53125 8.59375 
z
" id="SimHei-54"/>
       </defs>
       <use xlink:href="#SimHei-54"/>
      </g>
     </g>
    </g>
    <g id="xtick_7">
     <g id="line2d_13">
      <path clip-path="url(#pfca019bd07)" d="M 290.269091 307.584 
L 290.269091 41.472 
" style="fill:none;stroke:#b0b0b0;stroke-dasharray:2.96,1.28;stroke-dashoffset:0;stroke-width:0.8;"/>
     </g>
     <g id="line2d_14">
      <g>
       <use style="stroke:#000000;stroke-width:0.8;" x="290.269091" xlink:href="#m9c57e9f40d" y="307.584"/>
      </g>
     </g>
     <g id="text_7">
      <!-- 7 -->
      <g transform="translate(287.769091 321.459)scale(0.1 -0.1)">
       <defs>
        <path d="M 13.28125 2.34375 
Q 20.3125 32.03125 37.890625 61.328125 
L 4.296875 61.328125 
L 4.296875 68.359375 
L 46.09375 68.359375 
L 46.09375 61.71875 
Q 27.734375 32.03125 21.875 2.34375 
L 13.28125 2.34375 
z
" id="SimHei-55"/>
       </defs>
       <use xlink:href="#SimHei-55"/>
      </g>
     </g>
    </g>
    <g id="xtick_8">
     <g id="line2d_15">
      <path clip-path="url(#pfca019bd07)" d="M 326.341818 307.584 
L 326.341818 41.472 
" style="fill:none;stroke:#b0b0b0;stroke-dasharray:2.96,1.28;stroke-dashoffset:0;stroke-width:0.8;"/>
     </g>
     <g id="line2d_16">
      <g>
       <use style="stroke:#000000;stroke-width:0.8;" x="326.341818" xlink:href="#m9c57e9f40d" y="307.584"/>
      </g>
     </g>
     <g id="text_8">
      <!-- 8 -->
      <g transform="translate(323.841818 321.459)scale(0.1 -0.1)">
       <defs>
        <path d="M 2.734375 16.796875 
Q 2.734375 26.171875 5.078125 30.65625 
Q 7.421875 35.15625 12.890625 37.890625 
Q 8.203125 40.625 6.640625 43.9375 
Q 5.078125 47.265625 4.875 51.5625 
Q 4.6875 55.859375 6.046875 58.984375 
Q 7.421875 62.109375 10.15625 64.84375 
Q 12.890625 67.578125 16.203125 68.546875 
Q 19.53125 69.53125 23.4375 69.53125 
Q 27.34375 69.53125 30.46875 68.75 
Q 33.59375 67.96875 37.109375 65.421875 
Q 40.625 62.890625 42.1875 58.203125 
Q 43.75 53.515625 41.984375 47.265625 
Q 40.234375 41.015625 32.8125 37.5 
Q 39.453125 35.546875 42.1875 31.4375 
Q 44.921875 27.34375 44.921875 21.484375 
Q 44.921875 15.625 43.15625 12.109375 
Q 41.40625 8.59375 39.25 6.25 
Q 37.109375 3.90625 33.390625 2.53125 
Q 29.6875 1.171875 24.015625 1.171875 
Q 18.359375 1.171875 14.25 2.53125 
Q 10.15625 3.90625 7.421875 6.640625 
Q 4.6875 9.375 3.703125 13.078125 
Q 2.734375 16.796875 2.734375 26.171875 
z
M 10.9375 26.5625 
Q 10.546875 17.1875 12.296875 13.671875 
Q 14.0625 10.15625 18.75 9.171875 
Q 23.4375 8.203125 28.515625 9.375 
Q 33.59375 10.546875 35.546875 14.84375 
Q 37.5 19.140625 36.90625 23.4375 
Q 36.328125 27.734375 32.03125 30.65625 
Q 27.734375 33.59375 22.65625 33.203125 
Q 17.578125 32.8125 14.25 29.6875 
Q 10.9375 26.5625 10.546875 17.1875 
z
M 12.109375 56.25 
Q 12.109375 48.4375 14.84375 44.921875 
Q 17.578125 41.40625 23.4375 41.40625 
Q 29.296875 41.40625 32.21875 44.921875 
Q 35.15625 48.4375 34.953125 53.3125 
Q 34.765625 58.203125 31.4375 60.546875 
Q 28.125 62.890625 22.453125 62.5 
Q 16.796875 62.109375 14.453125 59.171875 
Q 12.109375 56.25 12.109375 48.4375 
z
" id="SimHei-56"/>
       </defs>
       <use xlink:href="#SimHei-56"/>
      </g>
     </g>
    </g>
    <g id="xtick_9">
     <g id="line2d_17">
      <path clip-path="url(#pfca019bd07)" d="M 362.414545 307.584 
L 362.414545 41.472 
" style="fill:none;stroke:#b0b0b0;stroke-dasharray:2.96,1.28;stroke-dashoffset:0;stroke-width:0.8;"/>
     </g>
     <g id="line2d_18">
      <g>
       <use style="stroke:#000000;stroke-width:0.8;" x="362.414545" xlink:href="#m9c57e9f40d" y="307.584"/>
      </g>
     </g>
     <g id="text_9">
      <!-- 9 -->
      <g transform="translate(359.914545 321.459)scale(0.1 -0.1)">
       <defs>
        <path d="M 12.5 1.171875 
Q 21.09375 15.625 26.5625 27.34375 
Q 16.796875 25.78125 10.34375 29.875 
Q 3.90625 33.984375 2.53125 41.015625 
Q 1.171875 48.046875 2.734375 53.703125 
Q 4.296875 59.375 7.609375 63.078125 
Q 10.9375 66.796875 15.625 68.359375 
Q 20.3125 69.921875 24.015625 69.921875 
Q 27.734375 69.921875 31.640625 68.359375 
Q 35.546875 66.796875 38.671875 63.671875 
Q 41.796875 60.546875 42.96875 57.21875 
Q 44.140625 53.90625 44.140625 48.625 
Q 44.140625 43.359375 40.234375 35.15625 
Q 36.328125 26.953125 21.09375 1.171875 
z
M 9.765625 50 
Q 10.9375 39.84375 14.640625 36.515625 
Q 18.359375 33.203125 22.65625 33.59375 
Q 26.953125 33.984375 29.484375 35.9375 
Q 32.03125 37.890625 34.375 42.578125 
Q 35.9375 48.4375 35.15625 52.53125 
Q 34.375 56.640625 31.046875 59.375 
Q 27.734375 62.109375 23.828125 62.109375 
Q 21.484375 62.5 17.765625 60.9375 
Q 14.0625 59.375 11.90625 54.6875 
Q 9.765625 50 10.9375 39.84375 
z
" id="SimHei-57"/>
       </defs>
       <use xlink:href="#SimHei-57"/>
      </g>
     </g>
    </g>
    <g id="xtick_10">
     <g id="line2d_19">
      <path clip-path="url(#pfca019bd07)" d="M 398.487273 307.584 
L 398.487273 41.472 
" style="fill:none;stroke:#b0b0b0;stroke-dasharray:2.96,1.28;stroke-dashoffset:0;stroke-width:0.8;"/>
     </g>
     <g id="line2d_20">
      <g>
       <use style="stroke:#000000;stroke-width:0.8;" x="398.487273" xlink:href="#m9c57e9f40d" y="307.584"/>
      </g>
     </g>
     <g id="text_10">
      <!-- 10 -->
      <g transform="translate(393.487273 321.459)scale(0.1 -0.1)">
       <defs>
        <path d="M 3.125 29.296875 
Q 3.90625 50 6.4375 56.046875 
Q 8.984375 62.109375 13.671875 66.015625 
Q 18.359375 69.921875 25.1875 69.921875 
Q 32.03125 69.921875 37.109375 64.25 
Q 42.1875 58.59375 43.75 50 
Q 45.3125 41.40625 44.71875 30.265625 
Q 44.140625 19.140625 40.8125 12.109375 
Q 37.5 5.078125 30.859375 2.34375 
Q 24.21875 -0.390625 17.578125 2.921875 
Q 10.9375 6.25 8.203125 11.71875 
Q 5.46875 17.1875 4.296875 23.234375 
Q 3.125 29.296875 3.90625 50 
z
M 12.890625 52.734375 
Q 10.546875 31.25 12.5 22.84375 
Q 14.453125 14.453125 18.9375 10.9375 
Q 23.4375 7.421875 28.125 9.5625 
Q 32.8125 11.71875 34.953125 18.15625 
Q 37.109375 24.609375 37.109375 32.21875 
Q 37.109375 39.84375 36.515625 46.09375 
Q 35.9375 52.34375 33 57.421875 
Q 30.078125 62.5 25.1875 62.6875 
Q 20.3125 62.890625 16.59375 57.8125 
Q 12.890625 52.734375 10.546875 31.25 
z
" id="SimHei-48"/>
       </defs>
       <use xlink:href="#SimHei-49"/>
       <use x="50" xlink:href="#SimHei-48"/>
      </g>
     </g>
    </g>
    <g id="text_11">
     <!-- 决策树的深度 -->
     <g transform="translate(206.16 334.794937)scale(0.1 -0.1)">
      <defs>
       <path d="M 53.125 57.8125 
Q 41.796875 57.8125 34.765625 57.421875 
L 34.765625 64.84375 
Q 41.796875 64.453125 53.125 64.453125 
Q 53.125 75.390625 52.734375 81.25 
Q 57.03125 80.859375 61.71875 80.46875 
Q 60.9375 75 60.9375 64.453125 
L 83.984375 64.453125 
Q 83.59375 58.203125 83.59375 35.9375 
Q 89.84375 35.9375 94.53125 36.328125 
L 94.53125 28.90625 
Q 88.671875 29.296875 82.8125 29.296875 
L 62.890625 29.296875 
Q 74.21875 5.078125 96.875 0.78125 
Q 92.578125 -2.34375 91.015625 -8.203125 
Q 66.796875 0 57.8125 23.4375 
Q 49.21875 2.34375 28.125 -10.15625 
Q 25.78125 -6.25 21.484375 -3.90625 
Q 44.53125 7.8125 51.5625 29.296875 
L 45.3125 29.296875 
Q 38.28125 29.296875 31.25 28.90625 
L 31.25 36.328125 
Q 38.28125 35.9375 45.3125 35.9375 
L 52.34375 35.9375 
Q 53.125 48.828125 53.125 57.8125 
z
M 75.78125 35.9375 
L 75.78125 57.8125 
L 60.9375 57.8125 
Q 60.546875 44.53125 60.15625 35.9375 
z
M 28.515625 33.59375 
Q 24.21875 26.171875 19.53125 16.984375 
Q 14.84375 7.8125 12.5 2.34375 
Q 8.984375 5.46875 3.90625 8.203125 
Q 8.203125 13.28125 13.28125 21.875 
Q 18.359375 30.46875 21.484375 39.0625 
Q 24.21875 35.9375 28.515625 33.59375 
z
M 11.71875 73.828125 
Q 16.015625 69.140625 19.921875 64.453125 
Q 23.828125 59.765625 28.125 54.6875 
Q 25 52.34375 21.484375 48.828125 
Q 17.96875 53.90625 5.46875 67.96875 
Q 8.59375 70.703125 11.71875 73.828125 
z
" id="SimHei-20915"/>
       <path d="M 71.875 11.71875 
Q 70.703125 15.625 67.578125 19.921875 
Q 72.265625 19.921875 74.796875 20.3125 
Q 77.34375 20.703125 77.34375 23.4375 
L 77.34375 30.46875 
L 53.515625 30.46875 
L 53.515625 24.609375 
Q 56.640625 19.53125 61.71875 15.421875 
Q 66.796875 11.328125 72.265625 8.390625 
Q 77.734375 5.46875 83.203125 3.703125 
Q 88.671875 1.953125 96.09375 0.78125 
Q 91.40625 -3.125 89.453125 -8.203125 
Q 83.984375 -6.25 78.90625 -3.703125 
Q 73.828125 -1.171875 69.328125 1.5625 
Q 64.84375 4.296875 60.734375 7.609375 
Q 56.640625 10.9375 53.515625 14.84375 
L 53.515625 4.296875 
Q 53.515625 -1.171875 53.90625 -10.546875 
L 46.09375 -10.546875 
Q 46.484375 -1.171875 46.484375 4.296875 
L 46.484375 17.96875 
Q 42.1875 11.71875 35.546875 5.859375 
Q 28.90625 0 24.609375 -2.734375 
Q 20.3125 -5.46875 12.890625 -10.15625 
Q 11.328125 -7.421875 5.46875 -3.515625 
Q 10.546875 -1.5625 15.234375 0.78125 
Q 19.921875 3.125 25.78125 7.21875 
Q 31.640625 11.328125 37.296875 17.375 
Q 42.96875 23.4375 46.09375 30.46875 
L 23.4375 30.46875 
L 23.4375 12.890625 
L 15.625 12.890625 
Q 16.015625 20.703125 16.015625 26.171875 
Q 16.015625 31.640625 15.625 36.328125 
L 46.484375 36.328125 
L 46.484375 44.140625 
L 22.265625 44.140625 
Q 15.625 44.140625 8.59375 43.75 
L 8.59375 50.78125 
Q 15.625 50.390625 21.875 50.390625 
L 46.484375 50.390625 
Q 46.484375 54.296875 46.09375 57.03125 
L 53.90625 57.03125 
Q 53.515625 53.90625 53.515625 50.390625 
L 80.859375 50.390625 
Q 85.9375 50.390625 92.578125 50.78125 
L 92.578125 43.75 
Q 86.328125 44.140625 81.25 44.140625 
L 53.515625 44.140625 
L 53.515625 36.328125 
L 84.765625 36.328125 
Q 84.375 31.640625 84.375 26.953125 
Q 84.375 22.65625 83.984375 19.140625 
Q 83.59375 15.625 80.265625 14.0625 
Q 76.953125 12.5 71.875 11.71875 
z
M 70.703125 78.90625 
Q 67.1875 75.78125 65.625 73.046875 
L 80.859375 73.046875 
Q 87.5 73.046875 94.921875 73.4375 
L 94.921875 66.40625 
Q 87.5 66.796875 76.171875 66.796875 
Q 77.34375 62.890625 78.90625 57.421875 
Q 74.609375 56.640625 71.09375 55.46875 
Q 70.3125 62.109375 68.75 66.796875 
L 61.71875 66.796875 
Q 58.59375 62.5 55.078125 57.8125 
Q 51.5625 60.15625 48.046875 61.328125 
Q 52.734375 66.015625 56.4375 72.0625 
Q 60.15625 78.125 61.71875 82.8125 
Q 65.234375 80.46875 70.703125 78.90625 
z
M 30.46875 79.296875 
Q 26.5625 75.78125 24.21875 73.046875 
L 35.546875 73.046875 
Q 41.015625 73.046875 48.828125 73.4375 
L 48.828125 66.40625 
Q 41.015625 66.796875 34.375 66.796875 
Q 35.546875 62.5 37.109375 57.03125 
Q 33.59375 56.25 30.078125 54.6875 
Q 28.90625 60.15625 27.34375 66.796875 
L 20.3125 66.796875 
Q 16.015625 61.71875 10.15625 56.25 
Q 7.421875 58.59375 3.515625 60.9375 
Q 9.765625 65.234375 14.453125 71.28125 
Q 19.140625 77.34375 22.265625 82.8125 
Q 26.171875 80.859375 30.46875 79.296875 
z
" id="SimHei-31574"/>
       <path d="M 17.1875 69.921875 
Q 17.1875 75.390625 16.796875 80.078125 
L 25.390625 80.078125 
Q 24.21875 74.609375 24.21875 67.578125 
L 24.21875 60.15625 
Q 28.125 60.15625 33.203125 60.546875 
L 33.203125 53.515625 
Q 28.515625 53.90625 24.21875 53.90625 
L 24.21875 39.453125 
Q 26.171875 41.796875 27.734375 43.359375 
Q 33.59375 35.9375 38.28125 27.34375 
Q 34.375 25.78125 32.03125 23.828125 
Q 28.125 31.640625 24.21875 37.5 
L 24.21875 6.25 
Q 24.21875 -0.78125 24.609375 -8.984375 
L 16.796875 -8.984375 
Q 17.1875 -0.78125 17.1875 6.25 
L 17.1875 31.25 
Q 14.84375 23.828125 8.59375 13.28125 
Q 7.03125 16.796875 3.515625 20.3125 
Q 8.59375 26.953125 12.109375 36.90625 
Q 15.625 46.875 16.40625 53.90625 
Q 11.328125 53.90625 5.859375 53.515625 
L 5.859375 60.546875 
Q 11.71875 60.15625 17.1875 60.15625 
z
M 60.15625 67.578125 
Q 58.984375 55.078125 57.03125 46.09375 
Q 55.078125 37.109375 53.125 32.421875 
Q 58.984375 23.4375 65.625 12.5 
Q 62.109375 10.546875 58.984375 7.421875 
Q 56.25 14.0625 50 24.21875 
Q 47.265625 18.359375 43.546875 12.296875 
Q 39.84375 6.25 34.765625 0.78125 
Q 31.25 3.90625 27.734375 5.859375 
Q 33.984375 10.9375 38.28125 17.578125 
Q 42.578125 24.21875 45.3125 31.25 
Q 43.359375 35.9375 34.375 48.4375 
Q 37.5 49.609375 39.84375 51.953125 
Q 44.921875 45.703125 48.4375 39.453125 
Q 51.5625 50.390625 52.34375 61.328125 
L 43.75 61.328125 
Q 38.28125 61.328125 34.375 60.9375 
L 34.375 67.96875 
Q 37.890625 67.578125 43.75 67.578125 
z
M 78.90625 59.765625 
Q 78.515625 74.21875 78.515625 80.078125 
L 86.328125 80.078125 
Q 85.9375 74.21875 85.9375 59.765625 
Q 89.84375 59.765625 94.53125 60.546875 
L 94.53125 53.125 
Q 89.453125 53.515625 85.9375 53.515625 
L 85.9375 -1.5625 
Q 85.546875 -5.46875 82.8125 -7.21875 
Q 80.078125 -8.984375 73.046875 -9.765625 
Q 72.265625 -5.46875 69.53125 -1.171875 
Q 75.390625 -1.5625 77.34375 -0.96875 
Q 79.296875 -0.390625 78.90625 4.296875 
L 78.90625 53.515625 
Q 67.578125 53.515625 62.109375 53.125 
L 62.109375 60.15625 
Q 67.1875 59.765625 78.90625 59.765625 
z
M 67.578125 44.140625 
Q 73.046875 32.8125 77.34375 23.828125 
Q 72.265625 21.484375 70.703125 19.921875 
Q 66.796875 30.859375 60.9375 40.625 
Q 65.625 43.359375 67.578125 44.140625 
z
" id="SimHei-26641"/>
       <path d="M 32.8125 77.734375 
Q 30.859375 74.21875 27.34375 61.71875 
L 44.921875 61.71875 
Q 44.53125 55.078125 44.53125 44.921875 
L 44.53125 10.546875 
Q 44.53125 4.6875 44.921875 -6.25 
L 37.109375 -6.25 
L 37.109375 1.5625 
L 17.1875 1.5625 
L 17.1875 -7.03125 
L 9.375 -7.03125 
Q 9.765625 5.46875 9.765625 8.59375 
L 9.765625 44.53125 
Q 9.765625 55.078125 9.375 61.71875 
L 20.703125 61.71875 
Q 22.65625 70.703125 23.828125 80.46875 
Q 29.296875 78.515625 32.8125 77.734375 
z
M 91.015625 48.046875 
Q 90.625 24.21875 89.0625 2.734375 
Q 88.28125 -4.296875 81.640625 -6.640625 
Q 75 -8.984375 66.796875 -9.765625 
Q 66.40625 -5.46875 63.28125 -0.78125 
Q 71.09375 -1.171875 75.578125 -0.390625 
Q 80.078125 0.390625 81.25 3.125 
Q 82.421875 5.859375 83 19.140625 
Q 83.59375 32.421875 83.984375 56.25 
L 61.328125 56.25 
Q 58.203125 48.828125 52.34375 38.671875 
Q 49.609375 41.40625 45.703125 42.96875 
Q 49.21875 47.65625 52.34375 54.296875 
Q 55.46875 60.9375 57.8125 68.75 
Q 60.15625 76.5625 60.546875 80.859375 
Q 66.015625 78.515625 69.921875 77.34375 
Q 67.96875 74.21875 66.59375 70.5 
Q 65.234375 66.796875 63.671875 63.28125 
L 91.40625 63.28125 
Q 91.015625 55.078125 91.015625 48.046875 
z
M 37.109375 8.203125 
L 37.109375 28.90625 
L 17.1875 28.90625 
L 17.1875 8.203125 
z
M 37.109375 35.546875 
L 37.109375 55.078125 
L 17.1875 55.078125 
L 17.1875 35.546875 
z
M 67.96875 32.03125 
Q 70.3125 27.34375 73.4375 19.921875 
Q 70.703125 18.75 66.015625 16.015625 
Q 63.28125 23.4375 60.9375 28.703125 
Q 58.59375 33.984375 56.25 37.5 
Q 58.984375 39.0625 63.28125 41.40625 
z
" id="SimHei-30340"/>
       <path d="M 57.421875 -9.765625 
Q 57.8125 -2.734375 57.8125 0.390625 
L 57.8125 26.171875 
Q 52.34375 15.234375 45.703125 7.421875 
Q 39.0625 -0.390625 33.59375 -5.078125 
Q 31.25 -2.34375 26.5625 0 
Q 33.59375 4.296875 40.625 12.5 
Q 47.65625 20.703125 50.390625 28.515625 
Q 40.625 28.515625 33.203125 28.125 
L 33.203125 35.15625 
Q 39.453125 34.765625 57.8125 34.765625 
Q 57.8125 41.796875 57.421875 47.65625 
L 65.625 47.65625 
Q 65.234375 41.796875 65.234375 34.765625 
Q 84.375 34.765625 93.75 35.15625 
L 93.75 28.125 
Q 87.5 28.515625 71.484375 28.515625 
Q 74.21875 20.703125 80.859375 13.46875 
Q 87.5 6.25 95.703125 3.125 
Q 91.015625 1.171875 89.453125 -3.125 
Q 81.25 1.5625 75 8.78125 
Q 68.75 16.015625 65.234375 27.34375 
L 65.234375 0.390625 
Q 65.234375 -1.953125 66.015625 -9.765625 
z
M 91.796875 75.78125 
Q 91.40625 71.875 91.40625 67.1875 
Q 91.40625 62.890625 91.796875 58.203125 
L 83.984375 58.203125 
L 83.984375 69.53125 
L 39.84375 69.53125 
L 39.84375 57.03125 
L 32.421875 57.03125 
Q 32.8125 62.890625 32.8125 66.796875 
Q 32.8125 70.703125 32.421875 75.78125 
L 91.796875 75.78125 
z
M 28.90625 23.828125 
Q 25.390625 17.96875 21.28125 7.609375 
Q 17.1875 -2.734375 15.234375 -8.203125 
Q 11.328125 -5.46875 5.859375 -3.90625 
Q 9.765625 0.78125 14.84375 11.125 
Q 19.921875 21.484375 22.65625 28.90625 
Q 25.390625 25.78125 28.90625 23.828125 
z
M 72.265625 63.671875 
Q 79.6875 57.03125 89.0625 46.484375 
Q 85.15625 44.140625 82.8125 41.015625 
Q 74.609375 52.34375 66.40625 58.984375 
Q 69.53125 61.328125 72.265625 63.671875 
z
M 57.8125 58.59375 
Q 54.6875 57.03125 50 51.75 
Q 45.3125 46.484375 39.0625 40.625 
Q 36.328125 43.359375 32.03125 45.3125 
Q 37.890625 48.828125 43.359375 54.484375 
Q 48.828125 60.15625 50.78125 63.28125 
Q 53.515625 60.9375 57.8125 58.59375 
z
M 8.59375 57.03125 
Q 17.578125 51.5625 25 45.3125 
Q 22.65625 42.96875 20.3125 39.0625 
Q 13.28125 46.484375 4.296875 51.171875 
Q 6.25 53.90625 8.59375 57.03125 
z
M 15.625 80.46875 
Q 22.65625 75.78125 30.46875 68.75 
Q 27.734375 66.40625 25.390625 62.890625 
Q 18.359375 70.703125 10.546875 75.78125 
Q 13.28125 77.34375 15.625 80.46875 
z
" id="SimHei-28145"/>
       <path d="M 27.34375 26.171875 
Q 38.28125 25.78125 44.921875 25.78125 
L 81.25 25.78125 
Q 77.734375 19.53125 72.65625 13.28125 
Q 67.578125 7.03125 62.890625 3.125 
Q 67.96875 0.78125 77.34375 -0.78125 
Q 86.71875 -2.34375 95.3125 -2.34375 
Q 92.96875 -4.6875 91.015625 -10.15625 
Q 79.6875 -8.59375 71.09375 -6.4375 
Q 62.5 -4.296875 56.640625 -1.5625 
Q 48.4375 -5.078125 40.421875 -7.21875 
Q 32.421875 -9.375 23.828125 -10.546875 
Q 22.65625 -7.421875 19.140625 -3.90625 
Q 26.171875 -3.90625 35.15625 -1.953125 
Q 44.140625 0 50.78125 3.125 
Q 44.140625 8.59375 37.5 19.921875 
L 27.34375 19.53125 
z
M 46.484375 79.296875 
Q 50.78125 80.46875 54.296875 82.03125 
Q 56.640625 77.734375 58.984375 70.703125 
L 73.4375 70.703125 
Q 77.734375 70.703125 89.0625 71.09375 
L 89.0625 64.0625 
Q 78.125 64.453125 72.65625 64.453125 
L 21.484375 64.453125 
Q 21.484375 46.875 21.09375 36.125 
Q 20.703125 25.390625 18.9375 14.84375 
Q 17.1875 4.296875 11.328125 -8.203125 
Q 7.8125 -5.859375 3.90625 -4.6875 
Q 10.15625 6.25 11.90625 16.796875 
Q 13.671875 27.34375 13.859375 43.75 
Q 14.0625 60.15625 13.671875 70.703125 
L 50 70.703125 
Q 48.4375 75.78125 46.484375 79.296875 
z
M 38.671875 51.5625 
Q 38.671875 57.8125 38.28125 61.328125 
L 46.484375 61.328125 
Q 46.09375 58.203125 46.09375 51.5625 
L 67.1875 51.5625 
Q 67.1875 57.8125 66.796875 61.71875 
L 75 61.71875 
Q 74.609375 57.03125 74.609375 51.5625 
Q 83.203125 51.5625 89.453125 51.953125 
L 89.453125 45.3125 
Q 83.59375 45.703125 74.609375 45.703125 
Q 74.609375 35.15625 75 30.46875 
L 38.28125 30.46875 
Q 38.671875 36.71875 38.671875 45.703125 
Q 33.984375 45.703125 25 45.3125 
L 25 51.953125 
Q 33.984375 51.5625 38.671875 51.5625 
z
M 67.1875 36.71875 
L 67.1875 45.703125 
L 46.09375 45.703125 
L 46.09375 36.71875 
z
M 44.921875 19.921875 
Q 50 12.109375 57.03125 6.640625 
Q 62.890625 10.9375 69.140625 19.921875 
L 45.3125 19.921875 
z
" id="SimHei-24230"/>
      </defs>
      <use xlink:href="#SimHei-20915"/>
      <use x="100" xlink:href="#SimHei-31574"/>
      <use x="200" xlink:href="#SimHei-26641"/>
      <use x="300" xlink:href="#SimHei-30340"/>
      <use x="400" xlink:href="#SimHei-28145"/>
      <use x="500" xlink:href="#SimHei-24230"/>
     </g>
    </g>
   </g>
   <g id="matplotlib.axis_2">
    <g id="ytick_1">
     <g id="line2d_21">
      <path clip-path="url(#pfca019bd07)" d="M 57.6 269.568 
L 414.72 269.568 
" style="fill:none;stroke:#b0b0b0;stroke-dasharray:2.96,1.28;stroke-dashoffset:0;stroke-width:0.8;"/>
     </g>
     <g id="line2d_22">
      <defs>
       <path d="M 0 0 
L -3.5 0 
" id="md0cad5b120" style="stroke:#000000;stroke-width:0.8;"/>
      </defs>
      <g>
       <use style="stroke:#000000;stroke-width:0.8;" x="57.6" xlink:href="#md0cad5b120" y="269.568"/>
      </g>
     </g>
     <g id="text_12">
      <!-- 0.70 -->
      <g transform="translate(30.6 273.0055)scale(0.1 -0.1)">
       <defs>
        <path d="M 16.796875 1.953125 
L 7.8125 1.953125 
L 7.8125 10.546875 
L 16.796875 10.546875 
z
" id="SimHei-46"/>
       </defs>
       <use xlink:href="#SimHei-48"/>
       <use x="50" xlink:href="#SimHei-46"/>
       <use x="100" xlink:href="#SimHei-55"/>
       <use x="150" xlink:href="#SimHei-48"/>
      </g>
     </g>
    </g>
    <g id="ytick_2">
     <g id="line2d_23">
      <path clip-path="url(#pfca019bd07)" d="M 57.6 230.688 
L 414.72 230.688 
" style="fill:none;stroke:#b0b0b0;stroke-dasharray:2.96,1.28;stroke-dashoffset:0;stroke-width:0.8;"/>
     </g>
     <g id="line2d_24">
      <g>
       <use style="stroke:#000000;stroke-width:0.8;" x="57.6" xlink:href="#md0cad5b120" y="230.688"/>
      </g>
     </g>
     <g id="text_13">
      <!-- 0.75 -->
      <g transform="translate(30.6 234.1255)scale(0.1 -0.1)">
       <use xlink:href="#SimHei-48"/>
       <use x="50" xlink:href="#SimHei-46"/>
       <use x="100" xlink:href="#SimHei-55"/>
       <use x="150" xlink:href="#SimHei-53"/>
      </g>
     </g>
    </g>
    <g id="ytick_3">
     <g id="line2d_25">
      <path clip-path="url(#pfca019bd07)" d="M 57.6 191.808 
L 414.72 191.808 
" style="fill:none;stroke:#b0b0b0;stroke-dasharray:2.96,1.28;stroke-dashoffset:0;stroke-width:0.8;"/>
     </g>
     <g id="line2d_26">
      <g>
       <use style="stroke:#000000;stroke-width:0.8;" x="57.6" xlink:href="#md0cad5b120" y="191.808"/>
      </g>
     </g>
     <g id="text_14">
      <!-- 0.80 -->
      <g transform="translate(30.6 195.2455)scale(0.1 -0.1)">
       <use xlink:href="#SimHei-48"/>
       <use x="50" xlink:href="#SimHei-46"/>
       <use x="100" xlink:href="#SimHei-56"/>
       <use x="150" xlink:href="#SimHei-48"/>
      </g>
     </g>
    </g>
    <g id="ytick_4">
     <g id="line2d_27">
      <path clip-path="url(#pfca019bd07)" d="M 57.6 152.928 
L 414.72 152.928 
" style="fill:none;stroke:#b0b0b0;stroke-dasharray:2.96,1.28;stroke-dashoffset:0;stroke-width:0.8;"/>
     </g>
     <g id="line2d_28">
      <g>
       <use style="stroke:#000000;stroke-width:0.8;" x="57.6" xlink:href="#md0cad5b120" y="152.928"/>
      </g>
     </g>
     <g id="text_15">
      <!-- 0.85 -->
      <g transform="translate(30.6 156.3655)scale(0.1 -0.1)">
       <use xlink:href="#SimHei-48"/>
       <use x="50" xlink:href="#SimHei-46"/>
       <use x="100" xlink:href="#SimHei-56"/>
       <use x="150" xlink:href="#SimHei-53"/>
      </g>
     </g>
    </g>
    <g id="ytick_5">
     <g id="line2d_29">
      <path clip-path="url(#pfca019bd07)" d="M 57.6 114.048 
L 414.72 114.048 
" style="fill:none;stroke:#b0b0b0;stroke-dasharray:2.96,1.28;stroke-dashoffset:0;stroke-width:0.8;"/>
     </g>
     <g id="line2d_30">
      <g>
       <use style="stroke:#000000;stroke-width:0.8;" x="57.6" xlink:href="#md0cad5b120" y="114.048"/>
      </g>
     </g>
     <g id="text_16">
      <!-- 0.90 -->
      <g transform="translate(30.6 117.4855)scale(0.1 -0.1)">
       <use xlink:href="#SimHei-48"/>
       <use x="50" xlink:href="#SimHei-46"/>
       <use x="100" xlink:href="#SimHei-57"/>
       <use x="150" xlink:href="#SimHei-48"/>
      </g>
     </g>
    </g>
    <g id="ytick_6">
     <g id="line2d_31">
      <path clip-path="url(#pfca019bd07)" d="M 57.6 75.168 
L 414.72 75.168 
" style="fill:none;stroke:#b0b0b0;stroke-dasharray:2.96,1.28;stroke-dashoffset:0;stroke-width:0.8;"/>
     </g>
     <g id="line2d_32">
      <g>
       <use style="stroke:#000000;stroke-width:0.8;" x="57.6" xlink:href="#md0cad5b120" y="75.168"/>
      </g>
     </g>
     <g id="text_17">
      <!-- 0.95 -->
      <g transform="translate(30.6 78.6055)scale(0.1 -0.1)">
       <use xlink:href="#SimHei-48"/>
       <use x="50" xlink:href="#SimHei-46"/>
       <use x="100" xlink:href="#SimHei-57"/>
       <use x="150" xlink:href="#SimHei-53"/>
      </g>
     </g>
    </g>
    <g id="text_18">
     <!-- 精度 -->
     <g transform="translate(25.35 184.528)rotate(-90)scale(0.1 -0.1)">
      <defs>
       <path d="M 87.5 35.9375 
Q 87.109375 28.515625 87.109375 21.875 
L 87.109375 -1.5625 
Q 87.109375 -7.421875 83.390625 -8.59375 
Q 79.6875 -9.765625 74.609375 -10.546875 
Q 73.4375 -5.859375 71.09375 -2.734375 
Q 76.5625 -2.734375 78.3125 -2.140625 
Q 80.078125 -1.5625 80.078125 1.171875 
L 80.078125 5.078125 
L 53.515625 5.078125 
L 53.515625 -9.765625 
L 46.484375 -9.765625 
Q 46.875 1.171875 46.875 14.453125 
Q 46.875 27.734375 46.484375 35.9375 
L 87.5 35.9375 
z
M 19.921875 69.53125 
Q 19.921875 76.171875 19.53125 80.078125 
L 27.34375 80.078125 
Q 26.953125 73.046875 26.953125 69.140625 
L 26.953125 49.609375 
Q 33.203125 49.609375 38.28125 50 
L 38.28125 42.96875 
Q 33.203125 43.359375 26.953125 43.359375 
L 26.953125 5.078125 
Q 26.953125 -1.171875 27.34375 -10.15625 
L 19.53125 -10.15625 
Q 19.921875 -1.171875 19.921875 5.078125 
L 19.921875 30.078125 
Q 16.40625 21.09375 8.984375 10.546875 
Q 6.25 12.890625 3.125 15.625 
Q 7.03125 19.921875 11.125 27.140625 
Q 15.234375 34.375 17.96875 43.359375 
Q 10.9375 43.359375 5.46875 42.96875 
L 5.46875 50 
Q 10.9375 49.609375 19.921875 49.609375 
z
M 63.28125 71.09375 
Q 63.28125 75.78125 62.890625 80.078125 
L 70.703125 80.078125 
Q 70.3125 75 70.3125 71.09375 
L 78.90625 71.09375 
Q 85.546875 71.09375 90.625 71.484375 
L 90.625 65.234375 
Q 85.15625 65.625 78.90625 65.625 
L 70.3125 65.625 
L 70.3125 58.203125 
L 75.78125 58.203125 
Q 82.03125 58.203125 87.890625 58.59375 
L 87.890625 52.34375 
Q 82.03125 52.734375 75.390625 52.734375 
L 70.3125 52.734375 
L 70.3125 46.09375 
L 79.6875 46.09375 
Q 86.71875 46.09375 94.921875 46.484375 
L 94.921875 40.234375 
Q 87.109375 40.625 79.6875 40.625 
L 56.25 40.625 
Q 50 40.625 41.015625 40.234375 
L 41.015625 46.484375 
Q 49.21875 46.09375 55.859375 46.09375 
L 63.28125 46.09375 
L 63.28125 52.734375 
L 57.421875 52.734375 
Q 51.5625 52.734375 46.484375 52.34375 
L 46.484375 58.59375 
Q 51.953125 58.203125 55.859375 58.203125 
L 63.28125 58.203125 
L 63.28125 65.625 
L 57.03125 65.625 
Q 50.78125 65.625 43.75 65.234375 
L 43.75 71.484375 
Q 50.78125 71.09375 57.03125 71.09375 
z
M 80.078125 10.546875 
L 80.078125 18.359375 
L 53.515625 18.359375 
L 53.515625 10.546875 
z
M 80.078125 23.828125 
L 80.078125 30.46875 
L 53.515625 30.46875 
L 53.515625 23.828125 
z
M 41.40625 68.359375 
Q 35.9375 57.03125 33.984375 52.734375 
Q 30.859375 54.296875 27.734375 55.078125 
Q 31.640625 63.28125 34.375 71.09375 
Q 38.671875 69.53125 41.40625 68.359375 
z
M 33.203125 36.71875 
Q 38.671875 29.6875 43.359375 23.046875 
Q 40.625 21.09375 37.5 18.75 
Q 33.203125 26.5625 27.734375 32.421875 
Q 30.859375 34.375 33.203125 36.71875 
z
M 10.15625 70.703125 
Q 14.0625 64.84375 18.359375 56.640625 
Q 16.015625 55.46875 12.5 53.125 
Q 9.375 59.375 4.296875 67.1875 
Q 7.8125 69.140625 10.15625 70.703125 
z
" id="SimHei-31934"/>
      </defs>
      <use xlink:href="#SimHei-31934"/>
      <use x="100" xlink:href="#SimHei-24230"/>
     </g>
    </g>
   </g>
   <g id="line2d_33">
    <path clip-path="url(#pfca019bd07)" d="M 73.832727 295.488 
L 109.905455 70.848 
L 145.978182 53.568 
L 182.050909 70.848 
L 218.123636 70.848 
L 254.196364 70.848 
L 290.269091 70.848 
L 326.341818 70.848 
L 362.414545 70.848 
L 398.487273 70.848 
" style="fill:none;stroke:#1f77b4;stroke-linecap:square;stroke-width:1.5;"/>
   </g>
   <g id="patch_3">
    <path d="M 57.6 307.584 
L 57.6 41.472 
" style="fill:none;stroke:#000000;stroke-linecap:square;stroke-linejoin:miter;stroke-width:0.8;"/>
   </g>
   <g id="patch_4">
    <path d="M 414.72 307.584 
L 414.72 41.472 
" style="fill:none;stroke:#000000;stroke-linecap:square;stroke-linejoin:miter;stroke-width:0.8;"/>
   </g>
   <g id="patch_5">
    <path d="M 57.6 307.584 
L 414.72 307.584 
" style="fill:none;stroke:#000000;stroke-linecap:square;stroke-linejoin:miter;stroke-width:0.8;"/>
   </g>
   <g id="patch_6">
    <path d="M 57.6 41.472 
L 414.72 41.472 
" style="fill:none;stroke:#000000;stroke-linecap:square;stroke-linejoin:miter;stroke-width:0.8;"/>
   </g>
  </g>
 </g>
 <defs>
  <clipPath id="pfca019bd07">
   <rect height="266.112" width="357.12" x="57.6" y="41.472"/>
  </clipPath>
 </defs>
</svg>
