<?xml version="1.0" encoding="utf-8" standalone="no"?>
<!DOCTYPE svg PUBLIC "-//W3C//DTD SVG 1.1//EN"
  "http://www.w3.org/Graphics/SVG/1.1/DTD/svg11.dtd">
<svg height="345.6pt" version="1.1" viewBox="0 0 460.8 345.6" width="460.8pt" xmlns="http://www.w3.org/2000/svg" xmlns:xlink="http://www.w3.org/1999/xlink">
 <metadata>
  <rdf:RDF xmlns:cc="http://creativecommons.org/ns#" xmlns:dc="http://purl.org/dc/elements/1.1/" xmlns:rdf="http://www.w3.org/1999/02/22-rdf-syntax-ns#">
   <cc:Work>
    <dc:type rdf:resource="http://purl.org/dc/dcmitype/StillImage"/>
    <dc:date>2022-01-11T21:37:04.423857</dc:date>
    <dc:format>image/svg+xml</dc:format>
    <dc:creator>
     <cc:Agent>
      <dc:title>Matplotlib v3.4.3, https://matplotlib.org/</dc:title>
     </cc:Agent>
    </dc:creator>
   </cc:Work>
  </rdf:RDF>
 </metadata>
 <defs>
  <style type="text/css">*{stroke-linecap:butt;stroke-linejoin:round;}</style>
 </defs>
 <g id="figure_1">
  <g id="patch_1">
   <path d="M 0 345.6 
L 460.8 345.6 
L 460.8 0 
L 0 0 
z
" style="fill:#ffffff;"/>
  </g>
  <g id="axes_1">
   <g id="patch_2">
    <path d="M 57.6 307.584 
L 414.72 307.584 
L 414.72 41.472 
L 57.6 41.472 
z
" style="fill:#ffffff;"/>
   </g>
   <g id="PathCollection_1">
    <defs>
     <path d="M 0 3 
C 0.795609 3 1.55874 2.683901 2.12132 2.12132 
C 2.683901 1.55874 3 0.795609 3 0 
C 3 -0.795609 2.683901 -1.55874 2.12132 -2.12132 
C 1.55874 -2.683901 0.795609 -3 0 -3 
C -0.795609 -3 -1.55874 -2.683901 -2.12132 -2.12132 
C -2.683901 -1.55874 -3 -0.795609 -3 0 
C -3 0.795609 -2.683901 1.55874 -2.12132 2.12132 
C -1.55874 2.683901 -0.795609 3 0 3 
z
" id="m13e38ad870" style="stroke:#4169e1;"/>
    </defs>
    <g clip-path="url(#pc9407b4660)">
     <use style="fill:#4169e1;stroke:#4169e1;" x="97.303677" xlink:href="#m13e38ad870" y="278.002863"/>
     <use style="fill:#4169e1;stroke:#4169e1;" x="118.8489" xlink:href="#m13e38ad870" y="271.642668"/>
     <use style="fill:#4169e1;stroke:#4169e1;" x="116.214418" xlink:href="#m13e38ad870" y="283.801615"/>
     <use style="fill:#4169e1;stroke:#4169e1;" x="120.301645" xlink:href="#m13e38ad870" y="280.458338"/>
     <use style="fill:#4169e1;stroke:#4169e1;" x="96.649009" xlink:href="#m13e38ad870" y="282.279768"/>
     <use style="fill:#4169e1;stroke:#4169e1;" x="80.706394" xlink:href="#m13e38ad870" y="272.354004"/>
     <use style="fill:#4169e1;stroke:#4169e1;" x="113.92541" xlink:href="#m13e38ad870" y="287.72138"/>
     <use style="fill:#4169e1;stroke:#4169e1;" x="102.927753" xlink:href="#m13e38ad870" y="275.122496"/>
     <use style="fill:#4169e1;stroke:#4169e1;" x="126.103745" xlink:href="#m13e38ad870" y="282.392204"/>
     <use style="fill:#4169e1;stroke:#4169e1;" x="114.595994" xlink:href="#m13e38ad870" y="272.535627"/>
     <use style="fill:#4169e1;stroke:#4169e1;" x="85.251837" xlink:href="#m13e38ad870" y="273.377297"/>
     <use style="fill:#4169e1;stroke:#4169e1;" x="108.335451" xlink:href="#m13e38ad870" y="273.064158"/>
     <use style="fill:#4169e1;stroke:#4169e1;" x="120.619599" xlink:href="#m13e38ad870" y="274.77988"/>
     <use style="fill:#4169e1;stroke:#4169e1;" x="126.055589" xlink:href="#m13e38ad870" y="289.070349"/>
     <use style="fill:#4169e1;stroke:#4169e1;" x="74.544765" xlink:href="#m13e38ad870" y="276.088364"/>
     <use style="fill:#4169e1;stroke:#4169e1;" x="73.832727" xlink:href="#m13e38ad870" y="279.557082"/>
     <use style="fill:#4169e1;stroke:#4169e1;" x="80.827699" xlink:href="#m13e38ad870" y="278.470329"/>
     <use style="fill:#4169e1;stroke:#4169e1;" x="96.933906" xlink:href="#m13e38ad870" y="276.514754"/>
     <use style="fill:#4169e1;stroke:#4169e1;" x="78.245382" xlink:href="#m13e38ad870" y="270.023858"/>
     <use style="fill:#4169e1;stroke:#4169e1;" x="88.527568" xlink:href="#m13e38ad870" y="281.270001"/>
     <use style="fill:#4169e1;stroke:#4169e1;" x="91.037749" xlink:href="#m13e38ad870" y="264.087933"/>
     <use style="fill:#4169e1;stroke:#4169e1;" x="90.840813" xlink:href="#m13e38ad870" y="278.301631"/>
     <use style="fill:#4169e1;stroke:#4169e1;" x="110.509493" xlink:href="#m13e38ad870" y="295.488"/>
     <use style="fill:#4169e1;stroke:#4169e1;" x="101.157644" xlink:href="#m13e38ad870" y="262.025762"/>
     <use style="fill:#4169e1;stroke:#4169e1;" x="108.929845" xlink:href="#m13e38ad870" y="262.252299"/>
     <use style="fill:#4169e1;stroke:#4169e1;" x="115.953123" xlink:href="#m13e38ad870" y="266.556439"/>
     <use style="fill:#4169e1;stroke:#4169e1;" x="101.946068" xlink:href="#m13e38ad870" y="267.54918"/>
     <use style="fill:#4169e1;stroke:#4169e1;" x="94.237047" xlink:href="#m13e38ad870" y="273.062018"/>
     <use style="fill:#4169e1;stroke:#4169e1;" x="97.010187" xlink:href="#m13e38ad870" y="273.236771"/>
     <use style="fill:#4169e1;stroke:#4169e1;" x="115.161763" xlink:href="#m13e38ad870" y="277.470653"/>
     <use style="fill:#4169e1;stroke:#4169e1;" x="116.042188" xlink:href="#m13e38ad870" y="272.009808"/>
     <use style="fill:#4169e1;stroke:#4169e1;" x="91.706577" xlink:href="#m13e38ad870" y="265.86295"/>
     <use style="fill:#4169e1;stroke:#4169e1;" x="81.207849" xlink:href="#m13e38ad870" y="284.107936"/>
     <use style="fill:#4169e1;stroke:#4169e1;" x="76.699442" xlink:href="#m13e38ad870" y="280.682118"/>
     <use style="fill:#4169e1;stroke:#4169e1;" x="114.064432" xlink:href="#m13e38ad870" y="272.778396"/>
     <use style="fill:#4169e1;stroke:#4169e1;" x="108.885486" xlink:href="#m13e38ad870" y="282.041596"/>
     <use style="fill:#4169e1;stroke:#4169e1;" x="87.431991" xlink:href="#m13e38ad870" y="268.647002"/>
     <use style="fill:#4169e1;stroke:#4169e1;" x="99.705262" xlink:href="#m13e38ad870" y="285.381112"/>
     <use style="fill:#4169e1;stroke:#4169e1;" x="124.700155" xlink:href="#m13e38ad870" y="285.350697"/>
     <use style="fill:#4169e1;stroke:#4169e1;" x="100.193872" xlink:href="#m13e38ad870" y="273.579499"/>
     <use style="fill:#4169e1;stroke:#4169e1;" x="100.09399" xlink:href="#m13e38ad870" y="281.743644"/>
     <use style="fill:#4169e1;stroke:#4169e1;" x="130.609807" xlink:href="#m13e38ad870" y="276.83619"/>
     <use style="fill:#4169e1;stroke:#4169e1;" x="121.224114" xlink:href="#m13e38ad870" y="289.168005"/>
     <use style="fill:#4169e1;stroke:#4169e1;" x="98.784079" xlink:href="#m13e38ad870" y="262.632695"/>
     <use style="fill:#4169e1;stroke:#4169e1;" x="83.900185" xlink:href="#m13e38ad870" y="263.33972"/>
     <use style="fill:#4169e1;stroke:#4169e1;" x="120.479231" xlink:href="#m13e38ad870" y="274.741698"/>
     <use style="fill:#4169e1;stroke:#4169e1;" x="87.973675" xlink:href="#m13e38ad870" y="281.387217"/>
     <use style="fill:#4169e1;stroke:#4169e1;" x="118.171735" xlink:href="#m13e38ad870" y="283.960468"/>
     <use style="fill:#4169e1;stroke:#4169e1;" x="87.285753" xlink:href="#m13e38ad870" y="275.20204"/>
     <use style="fill:#4169e1;stroke:#4169e1;" x="105.870521" xlink:href="#m13e38ad870" y="277.073445"/>
     <use style="fill:#4169e1;stroke:#4169e1;" x="348.600467" xlink:href="#m13e38ad870" y="77.927909"/>
     <use style="fill:#4169e1;stroke:#4169e1;" x="335.127278" xlink:href="#m13e38ad870" y="83.406509"/>
     <use style="fill:#4169e1;stroke:#4169e1;" x="350.441308" xlink:href="#m13e38ad870" y="82.531958"/>
     <use style="fill:#4169e1;stroke:#4169e1;" x="296.984459" xlink:href="#m13e38ad870" y="63.108981"/>
     <use style="fill:#4169e1;stroke:#4169e1;" x="339.101494" xlink:href="#m13e38ad870" y="83.454028"/>
     <use style="fill:#4169e1;stroke:#4169e1;" x="313.408314" xlink:href="#m13e38ad870" y="73.01547"/>
     <use style="fill:#4169e1;stroke:#4169e1;" x="333.901769" xlink:href="#m13e38ad870" y="91.11497"/>
     <use style="fill:#4169e1;stroke:#4169e1;" x="285.224306" xlink:href="#m13e38ad870" y="59.709409"/>
     <use style="fill:#4169e1;stroke:#4169e1;" x="340.38988" xlink:href="#m13e38ad870" y="79.337953"/>
     <use style="fill:#4169e1;stroke:#4169e1;" x="298.644226" xlink:href="#m13e38ad870" y="59.267578"/>
     <use style="fill:#4169e1;stroke:#4169e1;" x="287.133421" xlink:href="#m13e38ad870" y="57.848636"/>
     <use style="fill:#4169e1;stroke:#4169e1;" x="313.411137" xlink:href="#m13e38ad870" y="80.666761"/>
     <use style="fill:#4169e1;stroke:#4169e1;" x="294.304854" xlink:href="#m13e38ad870" y="79.662936"/>
     <use style="fill:#4169e1;stroke:#4169e1;" x="328.310119" xlink:href="#m13e38ad870" y="87.694667"/>
     <use style="fill:#4169e1;stroke:#4169e1;" x="293.19919" xlink:href="#m13e38ad870" y="73.050656"/>
     <use style="fill:#4169e1;stroke:#4169e1;" x="341.154178" xlink:href="#m13e38ad870" y="76.239565"/>
     <use style="fill:#4169e1;stroke:#4169e1;" x="314.823151" xlink:href="#m13e38ad870" y="73.768892"/>
     <use style="fill:#4169e1;stroke:#4169e1;" x="300.876604" xlink:href="#m13e38ad870" y="76.337159"/>
     <use style="fill:#4169e1;stroke:#4169e1;" x="328.944295" xlink:href="#m13e38ad870" y="64.685552"/>
     <use style="fill:#4169e1;stroke:#4169e1;" x="296.13153" xlink:href="#m13e38ad870" y="68.770203"/>
     <use style="fill:#4169e1;stroke:#4169e1;" x="329.256897" xlink:href="#m13e38ad870" y="104.397716"/>
     <use style="fill:#4169e1;stroke:#4169e1;" x="306.259986" xlink:href="#m13e38ad870" y="82.605896"/>
     <use style="fill:#4169e1;stroke:#4169e1;" x="343.694557" xlink:href="#m13e38ad870" y="99.68855"/>
     <use style="fill:#4169e1;stroke:#4169e1;" x="326.920114" xlink:href="#m13e38ad870" y="83.356871"/>
     <use style="fill:#4169e1;stroke:#4169e1;" x="331.7252" xlink:href="#m13e38ad870" y="76.429189"/>
     <use style="fill:#4169e1;stroke:#4169e1;" x="338.468151" xlink:href="#m13e38ad870" y="77.256395"/>
     <use style="fill:#4169e1;stroke:#4169e1;" x="346.881252" xlink:href="#m13e38ad870" y="82.416016"/>
     <use style="fill:#4169e1;stroke:#4169e1;" x="352.588852" xlink:href="#m13e38ad870" y="91.593027"/>
     <use style="fill:#4169e1;stroke:#4169e1;" x="322.42768" xlink:href="#m13e38ad870" y="84.454683"/>
     <use style="fill:#4169e1;stroke:#4169e1;" x="290.013132" xlink:href="#m13e38ad870" y="70.636063"/>
     <use style="fill:#4169e1;stroke:#4169e1;" x="293.525088" xlink:href="#m13e38ad870" y="65.525999"/>
     <use style="fill:#4169e1;stroke:#4169e1;" x="291.460284" xlink:href="#m13e38ad870" y="65.935061"/>
     <use style="fill:#4169e1;stroke:#4169e1;" x="299.165527" xlink:href="#m13e38ad870" y="74.438163"/>
     <use style="fill:#4169e1;stroke:#4169e1;" x="341.03173" xlink:href="#m13e38ad870" y="110.400097"/>
     <use style="fill:#4169e1;stroke:#4169e1;" x="313.282778" xlink:href="#m13e38ad870" y="67.289973"/>
     <use style="fill:#4169e1;stroke:#4169e1;" x="324.154587" xlink:href="#m13e38ad870" y="94.403615"/>
     <use style="fill:#4169e1;stroke:#4169e1;" x="344.989558" xlink:href="#m13e38ad870" y="81.579229"/>
     <use style="fill:#4169e1;stroke:#4169e1;" x="328.356372" xlink:href="#m13e38ad870" y="65.355965"/>
     <use style="fill:#4169e1;stroke:#4169e1;" x="306.678049" xlink:href="#m13e38ad870" y="72.492801"/>
     <use style="fill:#4169e1;stroke:#4169e1;" x="299.101083" xlink:href="#m13e38ad870" y="65.040644"/>
     <use style="fill:#4169e1;stroke:#4169e1;" x="306.479254" xlink:href="#m13e38ad870" y="64.588039"/>
     <use style="fill:#4169e1;stroke:#4169e1;" x="326.863501" xlink:href="#m13e38ad870" y="86.157603"/>
     <use style="fill:#4169e1;stroke:#4169e1;" x="299.812025" xlink:href="#m13e38ad870" y="73.380653"/>
     <use style="fill:#4169e1;stroke:#4169e1;" x="285.541003" xlink:href="#m13e38ad870" y="60.002347"/>
     <use style="fill:#4169e1;stroke:#4169e1;" x="304.91622" xlink:href="#m13e38ad870" y="68.219575"/>
     <use style="fill:#4169e1;stroke:#4169e1;" x="308.118052" xlink:href="#m13e38ad870" y="75.297283"/>
     <use style="fill:#4169e1;stroke:#4169e1;" x="308.073744" xlink:href="#m13e38ad870" y="73.827887"/>
     <use style="fill:#4169e1;stroke:#4169e1;" x="323.961559" xlink:href="#m13e38ad870" y="78.124373"/>
     <use style="fill:#4169e1;stroke:#4169e1;" x="283.853115" xlink:href="#m13e38ad870" y="60.950387"/>
     <use style="fill:#4169e1;stroke:#4169e1;" x="304.574938" xlink:href="#m13e38ad870" y="72.769939"/>
     <use style="fill:#4169e1;stroke:#4169e1;" x="373.941435" xlink:href="#m13e38ad870" y="145.530658"/>
     <use style="fill:#4169e1;stroke:#4169e1;" x="337.299731" xlink:href="#m13e38ad870" y="118.229718"/>
     <use style="fill:#4169e1;stroke:#4169e1;" x="384.527066" xlink:href="#m13e38ad870" y="130.70046"/>
     <use style="fill:#4169e1;stroke:#4169e1;" x="365.075004" xlink:href="#m13e38ad870" y="116.303095"/>
     <use style="fill:#4169e1;stroke:#4169e1;" x="374.697718" xlink:href="#m13e38ad870" y="127.630621"/>
     <use style="fill:#4169e1;stroke:#4169e1;" x="395.573711" xlink:href="#m13e38ad870" y="134.250571"/>
     <use style="fill:#4169e1;stroke:#4169e1;" x="307.466521" xlink:href="#m13e38ad870" y="53.568"/>
     <use style="fill:#4169e1;stroke:#4169e1;" x="391.896514" xlink:href="#m13e38ad870" y="128.904608"/>
     <use style="fill:#4169e1;stroke:#4169e1;" x="376.30618" xlink:href="#m13e38ad870" y="115.825232"/>
     <use style="fill:#4169e1;stroke:#4169e1;" x="386.839236" xlink:href="#m13e38ad870" y="141.890703"/>
     <use style="fill:#4169e1;stroke:#4169e1;" x="359.909213" xlink:href="#m13e38ad870" y="127.664262"/>
     <use style="fill:#4169e1;stroke:#4169e1;" x="358.556517" xlink:href="#m13e38ad870" y="116.168475"/>
     <use style="fill:#4169e1;stroke:#4169e1;" x="373.008315" xlink:href="#m13e38ad870" y="128.538992"/>
     <use style="fill:#4169e1;stroke:#4169e1;" x="336.068836" xlink:href="#m13e38ad870" y="121.358231"/>
     <use style="fill:#4169e1;stroke:#4169e1;" x="338.175928" xlink:href="#m13e38ad870" y="126.959607"/>
     <use style="fill:#4169e1;stroke:#4169e1;" x="364.621228" xlink:href="#m13e38ad870" y="135.559402"/>
     <use style="fill:#4169e1;stroke:#4169e1;" x="365.953765" xlink:href="#m13e38ad870" y="119.073595"/>
     <use style="fill:#4169e1;stroke:#4169e1;" x="394.959786" xlink:href="#m13e38ad870" y="142.238301"/>
     <use style="fill:#4169e1;stroke:#4169e1;" x="398.487273" xlink:href="#m13e38ad870" y="132.566508"/>
     <use style="fill:#4169e1;stroke:#4169e1;" x="344.806567" xlink:href="#m13e38ad870" y="110.266339"/>
     <use style="fill:#4169e1;stroke:#4169e1;" x="378.60655" xlink:href="#m13e38ad870" y="135.105206"/>
     <use style="fill:#4169e1;stroke:#4169e1;" x="332.920818" xlink:href="#m13e38ad870" y="119.873587"/>
     <use style="fill:#4169e1;stroke:#4169e1;" x="396.937013" xlink:href="#m13e38ad870" y="132.595572"/>
     <use style="fill:#4169e1;stroke:#4169e1;" x="342.879478" xlink:href="#m13e38ad870" y="104.457827"/>
     <use style="fill:#4169e1;stroke:#4169e1;" x="376.186357" xlink:href="#m13e38ad870" y="133.586973"/>
     <use style="fill:#4169e1;stroke:#4169e1;" x="387.799853" xlink:href="#m13e38ad870" y="129.050419"/>
     <use style="fill:#4169e1;stroke:#4169e1;" x="338.396798" xlink:href="#m13e38ad870" y="103.091036"/>
     <use style="fill:#4169e1;stroke:#4169e1;" x="335.110485" xlink:href="#m13e38ad870" y="105.373389"/>
     <use style="fill:#4169e1;stroke:#4169e1;" x="369.506011" xlink:href="#m13e38ad870" y="121.149403"/>
     <use style="fill:#4169e1;stroke:#4169e1;" x="387.133294" xlink:href="#m13e38ad870" y="124.24639"/>
     <use style="fill:#4169e1;stroke:#4169e1;" x="391.180853" xlink:href="#m13e38ad870" y="128.433381"/>
     <use style="fill:#4169e1;stroke:#4169e1;" x="394.84836" xlink:href="#m13e38ad870" y="142.127808"/>
     <use style="fill:#4169e1;stroke:#4169e1;" x="370.135807" xlink:href="#m13e38ad870" y="122.90744"/>
     <use style="fill:#4169e1;stroke:#4169e1;" x="346.24298" xlink:href="#m13e38ad870" y="102.11706"/>
     <use style="fill:#4169e1;stroke:#4169e1;" x="355.120403" xlink:href="#m13e38ad870" y="109.410669"/>
     <use style="fill:#4169e1;stroke:#4169e1;" x="392.60576" xlink:href="#m13e38ad870" y="134.909308"/>
     <use style="fill:#4169e1;stroke:#4169e1;" x="369.12841" xlink:href="#m13e38ad870" y="142.929061"/>
     <use style="fill:#4169e1;stroke:#4169e1;" x="364.972671" xlink:href="#m13e38ad870" y="119.4984"/>
     <use style="fill:#4169e1;stroke:#4169e1;" x="332.476687" xlink:href="#m13e38ad870" y="104.741397"/>
     <use style="fill:#4169e1;stroke:#4169e1;" x="372.214187" xlink:href="#m13e38ad870" y="130.909776"/>
     <use style="fill:#4169e1;stroke:#4169e1;" x="373.516095" xlink:href="#m13e38ad870" y="135.870054"/>
     <use style="fill:#4169e1;stroke:#4169e1;" x="366.413759" xlink:href="#m13e38ad870" y="133.445121"/>
     <use style="fill:#4169e1;stroke:#4169e1;" x="337.299221" xlink:href="#m13e38ad870" y="118.258192"/>
     <use style="fill:#4169e1;stroke:#4169e1;" x="379.79216" xlink:href="#m13e38ad870" y="136.365749"/>
     <use style="fill:#4169e1;stroke:#4169e1;" x="375.694176" xlink:href="#m13e38ad870" y="140.342271"/>
     <use style="fill:#4169e1;stroke:#4169e1;" x="366.120821" xlink:href="#m13e38ad870" y="131.876607"/>
     <use style="fill:#4169e1;stroke:#4169e1;" x="346.245424" xlink:href="#m13e38ad870" y="110.218494"/>
     <use style="fill:#4169e1;stroke:#4169e1;" x="361.222846" xlink:href="#m13e38ad870" y="124.567979"/>
     <use style="fill:#4169e1;stroke:#4169e1;" x="364.828006" xlink:href="#m13e38ad870" y="141.740466"/>
     <use style="fill:#4169e1;stroke:#4169e1;" x="334.992977" xlink:href="#m13e38ad870" y="112.617915"/>
    </g>
   </g>
   <g id="matplotlib.axis_1">
    <g id="xtick_1">
     <g id="line2d_1">
      <defs>
       <path d="M 0 0 
L 0 3.5 
" id="m3fb3414152" style="stroke:#000000;stroke-width:0.8;"/>
      </defs>
      <g>
       <use style="stroke:#000000;stroke-width:0.8;" x="127.671351" xlink:href="#m3fb3414152" y="307.584"/>
      </g>
     </g>
     <g id="text_1">
      <!-- -20 -->
      <g transform="translate(120.171351 321.459)scale(0.1 -0.1)">
       <defs>
        <path d="M 2975 2125 
L 125 2125 
L 125 2525 
L 2975 2525 
L 2975 2125 
z
" id="SimHei-2d" transform="scale(0.015625)"/>
        <path d="M 300 250 
Q 325 625 650 925 
Q 975 1225 1475 1862 
Q 1975 2500 2125 2850 
Q 2275 3200 2237 3450 
Q 2200 3700 2000 3862 
Q 1800 4025 1537 4000 
Q 1275 3975 1037 3800 
Q 800 3625 675 3275 
L 200 3350 
Q 400 3925 712 4187 
Q 1025 4450 1450 4475 
Q 1700 4500 1900 4462 
Q 2100 4425 2312 4287 
Q 2525 4150 2662 3875 
Q 2800 3600 2762 3212 
Q 2725 2825 2375 2287 
Q 2025 1750 1025 600 
L 2825 600 
L 2825 150 
L 300 150 
L 300 250 
z
" id="SimHei-32" transform="scale(0.015625)"/>
        <path d="M 225 2537 
Q 250 3200 412 3587 
Q 575 3975 875 4225 
Q 1175 4475 1612 4475 
Q 2050 4475 2375 4112 
Q 2700 3750 2800 3200 
Q 2900 2650 2862 1937 
Q 2825 1225 2612 775 
Q 2400 325 1975 150 
Q 1550 -25 1125 187 
Q 700 400 525 750 
Q 350 1100 275 1487 
Q 200 1875 225 2537 
z
M 750 2687 
Q 675 2000 800 1462 
Q 925 925 1212 700 
Q 1500 475 1800 612 
Q 2100 750 2237 1162 
Q 2375 1575 2375 2062 
Q 2375 2550 2337 2950 
Q 2300 3350 2112 3675 
Q 1925 4000 1612 4012 
Q 1300 4025 1062 3700 
Q 825 3375 750 2687 
z
" id="SimHei-30" transform="scale(0.015625)"/>
       </defs>
       <use xlink:href="#SimHei-2d"/>
       <use x="50" xlink:href="#SimHei-32"/>
       <use x="100" xlink:href="#SimHei-30"/>
      </g>
     </g>
    </g>
    <g id="xtick_2">
     <g id="line2d_2">
      <g>
       <use style="stroke:#000000;stroke-width:0.8;" x="206.991602" xlink:href="#m3fb3414152" y="307.584"/>
      </g>
     </g>
     <g id="text_2">
      <!-- -10 -->
      <g transform="translate(199.491602 321.459)scale(0.1 -0.1)">
       <defs>
        <path d="M 1400 3600 
Q 1075 3275 575 2975 
L 575 3450 
Q 1200 3875 1600 4450 
L 1900 4450 
L 1900 150 
L 1400 150 
L 1400 3600 
z
" id="SimHei-31" transform="scale(0.015625)"/>
       </defs>
       <use xlink:href="#SimHei-2d"/>
       <use x="50" xlink:href="#SimHei-31"/>
       <use x="100" xlink:href="#SimHei-30"/>
      </g>
     </g>
    </g>
    <g id="xtick_3">
     <g id="line2d_3">
      <g>
       <use style="stroke:#000000;stroke-width:0.8;" x="286.311853" xlink:href="#m3fb3414152" y="307.584"/>
      </g>
     </g>
     <g id="text_3">
      <!-- 0 -->
      <g transform="translate(283.811853 321.459)scale(0.1 -0.1)">
       <use xlink:href="#SimHei-30"/>
      </g>
     </g>
    </g>
    <g id="xtick_4">
     <g id="line2d_4">
      <g>
       <use style="stroke:#000000;stroke-width:0.8;" x="365.632104" xlink:href="#m3fb3414152" y="307.584"/>
      </g>
     </g>
     <g id="text_4">
      <!-- 10 -->
      <g transform="translate(360.632104 321.459)scale(0.1 -0.1)">
       <use xlink:href="#SimHei-31"/>
       <use x="50" xlink:href="#SimHei-30"/>
      </g>
     </g>
    </g>
   </g>
   <g id="matplotlib.axis_2">
    <g id="ytick_1">
     <g id="line2d_5">
      <defs>
       <path d="M 0 0 
L -3.5 0 
" id="mdea231d67b" style="stroke:#000000;stroke-width:0.8;"/>
      </defs>
      <g>
       <use style="stroke:#000000;stroke-width:0.8;" x="57.6" xlink:href="#mdea231d67b" y="288.483893"/>
      </g>
     </g>
     <g id="text_5">
      <!-- -10 -->
      <g transform="translate(35.6 291.921393)scale(0.1 -0.1)">
       <use xlink:href="#SimHei-2d"/>
       <use x="50" xlink:href="#SimHei-31"/>
       <use x="100" xlink:href="#SimHei-30"/>
      </g>
     </g>
    </g>
    <g id="ytick_2">
     <g id="line2d_6">
      <g>
       <use style="stroke:#000000;stroke-width:0.8;" x="57.6" xlink:href="#mdea231d67b" y="235.044951"/>
      </g>
     </g>
     <g id="text_6">
      <!-- -5 -->
      <g transform="translate(40.6 238.482451)scale(0.1 -0.1)">
       <defs>
        <path d="M 550 1325 
Q 725 650 1150 575 
Q 1575 500 1837 662 
Q 2100 825 2212 1087 
Q 2325 1350 2312 1675 
Q 2300 2000 2137 2225 
Q 1975 2450 1725 2525 
Q 1475 2600 1162 2525 
Q 850 2450 650 2175 
L 225 2225 
Q 275 2375 700 4375 
L 2675 4375 
L 2675 3925 
L 1075 3925 
Q 950 3250 825 2850 
Q 1200 3025 1525 3012 
Q 1850 3000 2150 2862 
Q 2450 2725 2587 2487 
Q 2725 2250 2787 2012 
Q 2850 1775 2837 1500 
Q 2825 1225 2725 937 
Q 2625 650 2425 462 
Q 2225 275 1937 162 
Q 1650 50 1275 75 
Q 900 100 562 350 
Q 225 600 100 1200 
L 550 1325 
z
" id="SimHei-35" transform="scale(0.015625)"/>
       </defs>
       <use xlink:href="#SimHei-2d"/>
       <use x="50" xlink:href="#SimHei-35"/>
      </g>
     </g>
    </g>
    <g id="ytick_3">
     <g id="line2d_7">
      <g>
       <use style="stroke:#000000;stroke-width:0.8;" x="57.6" xlink:href="#mdea231d67b" y="181.606009"/>
      </g>
     </g>
     <g id="text_7">
      <!-- 0 -->
      <g transform="translate(45.6 185.043509)scale(0.1 -0.1)">
       <use xlink:href="#SimHei-30"/>
      </g>
     </g>
    </g>
    <g id="ytick_4">
     <g id="line2d_8">
      <g>
       <use style="stroke:#000000;stroke-width:0.8;" x="57.6" xlink:href="#mdea231d67b" y="128.167066"/>
      </g>
     </g>
     <g id="text_8">
      <!-- 5 -->
      <g transform="translate(45.6 131.604566)scale(0.1 -0.1)">
       <use xlink:href="#SimHei-35"/>
      </g>
     </g>
    </g>
    <g id="ytick_5">
     <g id="line2d_9">
      <g>
       <use style="stroke:#000000;stroke-width:0.8;" x="57.6" xlink:href="#mdea231d67b" y="74.728124"/>
      </g>
     </g>
     <g id="text_9">
      <!-- 10 -->
      <g transform="translate(40.6 78.165624)scale(0.1 -0.1)">
       <use xlink:href="#SimHei-31"/>
       <use x="50" xlink:href="#SimHei-30"/>
      </g>
     </g>
    </g>
   </g>
   <g id="patch_3">
    <path d="M 57.6 307.584 
L 57.6 41.472 
" style="fill:none;stroke:#000000;stroke-linecap:square;stroke-linejoin:miter;stroke-width:0.8;"/>
   </g>
   <g id="patch_4">
    <path d="M 414.72 307.584 
L 414.72 41.472 
" style="fill:none;stroke:#000000;stroke-linecap:square;stroke-linejoin:miter;stroke-width:0.8;"/>
   </g>
   <g id="patch_5">
    <path d="M 57.6 307.584 
L 414.72 307.584 
" style="fill:none;stroke:#000000;stroke-linecap:square;stroke-linejoin:miter;stroke-width:0.8;"/>
   </g>
   <g id="patch_6">
    <path d="M 57.6 41.472 
L 414.72 41.472 
" style="fill:none;stroke:#000000;stroke-linecap:square;stroke-linejoin:miter;stroke-width:0.8;"/>
   </g>
  </g>
 </g>
 <defs>
  <clipPath id="pc9407b4660">
   <rect height="266.112" width="357.12" x="57.6" y="41.472"/>
  </clipPath>
 </defs>
</svg>
