<?xml version="1.0" encoding="utf-8" standalone="no"?>
<!DOCTYPE svg PUBLIC "-//W3C//DTD SVG 1.1//EN"
  "http://www.w3.org/Graphics/SVG/1.1/DTD/svg11.dtd">
<!-- Created with matplotlib (https://matplotlib.org/) -->
<svg height="345.6pt" version="1.1" viewBox="0 0 460.8 345.6" width="460.8pt" xmlns="http://www.w3.org/2000/svg" xmlns:xlink="http://www.w3.org/1999/xlink">
 <metadata>
  <rdf:RDF xmlns:cc="http://creativecommons.org/ns#" xmlns:dc="http://purl.org/dc/elements/1.1/" xmlns:rdf="http://www.w3.org/1999/02/22-rdf-syntax-ns#">
   <cc:Work>
    <dc:type rdf:resource="http://purl.org/dc/dcmitype/StillImage"/>
    <dc:date>2021-12-07T16:43:41.627739</dc:date>
    <dc:format>image/svg+xml</dc:format>
    <dc:creator>
     <cc:Agent>
      <dc:title>Matplotlib v3.3.2, https://matplotlib.org/</dc:title>
     </cc:Agent>
    </dc:creator>
   </cc:Work>
  </rdf:RDF>
 </metadata>
 <defs>
  <style type="text/css">*{stroke-linecap:butt;stroke-linejoin:round;}</style>
 </defs>
 <g id="figure_1">
  <g id="patch_1">
   <path d="M 0 345.6 
L 460.8 345.6 
L 460.8 0 
L 0 0 
z
" style="fill:#ffffff;"/>
  </g>
  <g id="axes_1">
   <g id="patch_2">
    <path d="M 57.6 307.584 
L 414.72 307.584 
L 414.72 41.472 
L 57.6 41.472 
z
" style="fill:#ffffff;"/>
   </g>
   <g id="PathCollection_1">
    <defs>
     <path d="M -3 3 
L 3 3 
L 3 -3 
L -3 -3 
z
" id="m0dd54d7936" style="stroke:#008000;"/>
    </defs>
    <g clip-path="url(#pdcdbad242b)">
     <use style="fill:#008000;stroke:#008000;" x="145.978182" xlink:href="#m0dd54d7936" y="144.288"/>
     <use style="fill:#008000;stroke:#008000;" x="127.941818" xlink:href="#m0dd54d7936" y="194.688"/>
     <use style="fill:#008000;stroke:#008000;" x="109.905455" xlink:href="#m0dd54d7936" y="174.528"/>
     <use style="fill:#008000;stroke:#008000;" x="100.887273" xlink:href="#m0dd54d7936" y="184.608"/>
     <use style="fill:#008000;stroke:#008000;" x="136.96" xlink:href="#m0dd54d7936" y="134.208"/>
     <use style="fill:#008000;stroke:#008000;" x="173.032727" xlink:href="#m0dd54d7936" y="103.968"/>
     <use style="fill:#008000;stroke:#008000;" x="100.887273" xlink:href="#m0dd54d7936" y="154.368"/>
     <use style="fill:#008000;stroke:#008000;" x="136.96" xlink:href="#m0dd54d7936" y="154.368"/>
     <use style="fill:#008000;stroke:#008000;" x="82.850909" xlink:href="#m0dd54d7936" y="204.768"/>
     <use style="fill:#008000;stroke:#008000;" x="127.941818" xlink:href="#m0dd54d7936" y="184.608"/>
     <use style="fill:#008000;stroke:#008000;" x="173.032727" xlink:href="#m0dd54d7936" y="124.128"/>
     <use style="fill:#008000;stroke:#008000;" x="118.923636" xlink:href="#m0dd54d7936" y="154.368"/>
     <use style="fill:#008000;stroke:#008000;" x="118.923636" xlink:href="#m0dd54d7936" y="194.688"/>
     <use style="fill:#008000;stroke:#008000;" x="73.832727" xlink:href="#m0dd54d7936" y="194.688"/>
     <use style="fill:#008000;stroke:#008000;" x="209.105455" xlink:href="#m0dd54d7936" y="93.888"/>
     <use style="fill:#008000;stroke:#008000;" x="200.087273" xlink:href="#m0dd54d7936" y="53.568"/>
     <use style="fill:#008000;stroke:#008000;" x="173.032727" xlink:href="#m0dd54d7936" y="103.968"/>
     <use style="fill:#008000;stroke:#008000;" x="145.978182" xlink:href="#m0dd54d7936" y="144.288"/>
     <use style="fill:#008000;stroke:#008000;" x="200.087273" xlink:href="#m0dd54d7936" y="114.048"/>
     <use style="fill:#008000;stroke:#008000;" x="145.978182" xlink:href="#m0dd54d7936" y="114.048"/>
     <use style="fill:#008000;stroke:#008000;" x="173.032727" xlink:href="#m0dd54d7936" y="154.368"/>
     <use style="fill:#008000;stroke:#008000;" x="145.978182" xlink:href="#m0dd54d7936" y="124.128"/>
     <use style="fill:#008000;stroke:#008000;" x="100.887273" xlink:href="#m0dd54d7936" y="134.208"/>
     <use style="fill:#008000;stroke:#008000;" x="145.978182" xlink:href="#m0dd54d7936" y="164.448"/>
     <use style="fill:#008000;stroke:#008000;" x="118.923636" xlink:href="#m0dd54d7936" y="154.368"/>
     <use style="fill:#008000;stroke:#008000;" x="136.96" xlink:href="#m0dd54d7936" y="194.688"/>
     <use style="fill:#008000;stroke:#008000;" x="136.96" xlink:href="#m0dd54d7936" y="154.368"/>
     <use style="fill:#008000;stroke:#008000;" x="154.996364" xlink:href="#m0dd54d7936" y="144.288"/>
     <use style="fill:#008000;stroke:#008000;" x="154.996364" xlink:href="#m0dd54d7936" y="154.368"/>
     <use style="fill:#008000;stroke:#008000;" x="109.905455" xlink:href="#m0dd54d7936" y="174.528"/>
     <use style="fill:#008000;stroke:#008000;" x="118.923636" xlink:href="#m0dd54d7936" y="184.608"/>
     <use style="fill:#008000;stroke:#008000;" x="173.032727" xlink:href="#m0dd54d7936" y="154.368"/>
     <use style="fill:#008000;stroke:#008000;" x="154.996364" xlink:href="#m0dd54d7936" y="83.808"/>
     <use style="fill:#008000;stroke:#008000;" x="182.050909" xlink:href="#m0dd54d7936" y="73.728"/>
     <use style="fill:#008000;stroke:#008000;" x="127.941818" xlink:href="#m0dd54d7936" y="184.608"/>
     <use style="fill:#008000;stroke:#008000;" x="136.96" xlink:href="#m0dd54d7936" y="174.528"/>
     <use style="fill:#008000;stroke:#008000;" x="182.050909" xlink:href="#m0dd54d7936" y="144.288"/>
     <use style="fill:#008000;stroke:#008000;" x="127.941818" xlink:href="#m0dd54d7936" y="134.208"/>
     <use style="fill:#008000;stroke:#008000;" x="82.850909" xlink:href="#m0dd54d7936" y="194.688"/>
     <use style="fill:#008000;stroke:#008000;" x="145.978182" xlink:href="#m0dd54d7936" y="154.368"/>
     <use style="fill:#008000;stroke:#008000;" x="136.96" xlink:href="#m0dd54d7936" y="144.288"/>
     <use style="fill:#008000;stroke:#008000;" x="91.869091" xlink:href="#m0dd54d7936" y="265.248"/>
     <use style="fill:#008000;stroke:#008000;" x="82.850909" xlink:href="#m0dd54d7936" y="174.528"/>
     <use style="fill:#008000;stroke:#008000;" x="136.96" xlink:href="#m0dd54d7936" y="144.288"/>
     <use style="fill:#008000;stroke:#008000;" x="145.978182" xlink:href="#m0dd54d7936" y="114.048"/>
     <use style="fill:#008000;stroke:#008000;" x="118.923636" xlink:href="#m0dd54d7936" y="194.688"/>
     <use style="fill:#008000;stroke:#008000;" x="145.978182" xlink:href="#m0dd54d7936" y="114.048"/>
     <use style="fill:#008000;stroke:#008000;" x="100.887273" xlink:href="#m0dd54d7936" y="174.528"/>
     <use style="fill:#008000;stroke:#008000;" x="164.014545" xlink:href="#m0dd54d7936" y="124.128"/>
     <use style="fill:#008000;stroke:#008000;" x="136.96" xlink:href="#m0dd54d7936" y="164.448"/>
    </g>
   </g>
   <g id="PathCollection_2">
    <defs>
     <path d="M 0 3 
C 0.795609 3 1.55874 2.683901 2.12132 2.12132 
C 2.683901 1.55874 3 0.795609 3 0 
C 3 -0.795609 2.683901 -1.55874 2.12132 -2.12132 
C 1.55874 -2.683901 0.795609 -3 0 -3 
C -0.795609 -3 -1.55874 -2.683901 -2.12132 -2.12132 
C -2.683901 -1.55874 -3 -0.795609 -3 0 
C -3 0.795609 -2.683901 1.55874 -2.12132 2.12132 
C -1.55874 2.683901 -0.795609 3 0 3 
z
" id="mac883bc561" style="stroke:#ff0000;"/>
    </defs>
    <g clip-path="url(#pdcdbad242b)">
     <use style="fill:#ff0000;stroke:#ff0000;" x="317.323636" xlink:href="#mac883bc561" y="174.528"/>
     <use style="fill:#ff0000;stroke:#ff0000;" x="263.214545" xlink:href="#mac883bc561" y="174.528"/>
     <use style="fill:#ff0000;stroke:#ff0000;" x="308.305455" xlink:href="#mac883bc561" y="184.608"/>
     <use style="fill:#ff0000;stroke:#ff0000;" x="182.050909" xlink:href="#mac883bc561" y="265.248"/>
     <use style="fill:#ff0000;stroke:#ff0000;" x="272.232727" xlink:href="#mac883bc561" y="214.848"/>
     <use style="fill:#ff0000;stroke:#ff0000;" x="200.087273" xlink:href="#mac883bc561" y="214.848"/>
     <use style="fill:#ff0000;stroke:#ff0000;" x="254.196364" xlink:href="#mac883bc561" y="164.448"/>
     <use style="fill:#ff0000;stroke:#ff0000;" x="127.941818" xlink:href="#mac883bc561" y="255.168"/>
     <use style="fill:#ff0000;stroke:#ff0000;" x="281.250909" xlink:href="#mac883bc561" y="204.768"/>
     <use style="fill:#ff0000;stroke:#ff0000;" x="154.996364" xlink:href="#mac883bc561" y="224.928"/>
     <use style="fill:#ff0000;stroke:#ff0000;" x="136.96" xlink:href="#mac883bc561" y="295.488"/>
     <use style="fill:#ff0000;stroke:#ff0000;" x="218.123636" xlink:href="#mac883bc561" y="194.688"/>
     <use style="fill:#ff0000;stroke:#ff0000;" x="227.141818" xlink:href="#mac883bc561" y="275.328"/>
     <use style="fill:#ff0000;stroke:#ff0000;" x="236.16" xlink:href="#mac883bc561" y="204.768"/>
     <use style="fill:#ff0000;stroke:#ff0000;" x="191.069091" xlink:href="#mac883bc561" y="204.768"/>
     <use style="fill:#ff0000;stroke:#ff0000;" x="290.269091" xlink:href="#mac883bc561" y="184.608"/>
     <use style="fill:#ff0000;stroke:#ff0000;" x="191.069091" xlink:href="#mac883bc561" y="194.688"/>
     <use style="fill:#ff0000;stroke:#ff0000;" x="209.105455" xlink:href="#mac883bc561" y="224.928"/>
     <use style="fill:#ff0000;stroke:#ff0000;" x="245.178182" xlink:href="#mac883bc561" y="275.328"/>
     <use style="fill:#ff0000;stroke:#ff0000;" x="191.069091" xlink:href="#mac883bc561" y="245.088"/>
     <use style="fill:#ff0000;stroke:#ff0000;" x="218.123636" xlink:href="#mac883bc561" y="174.528"/>
     <use style="fill:#ff0000;stroke:#ff0000;" x="236.16" xlink:href="#mac883bc561" y="214.848"/>
     <use style="fill:#ff0000;stroke:#ff0000;" x="254.196364" xlink:href="#mac883bc561" y="245.088"/>
     <use style="fill:#ff0000;stroke:#ff0000;" x="236.16" xlink:href="#mac883bc561" y="214.848"/>
     <use style="fill:#ff0000;stroke:#ff0000;" x="263.214545" xlink:href="#mac883bc561" y="204.768"/>
     <use style="fill:#ff0000;stroke:#ff0000;" x="281.250909" xlink:href="#mac883bc561" y="194.688"/>
     <use style="fill:#ff0000;stroke:#ff0000;" x="299.287273" xlink:href="#mac883bc561" y="214.848"/>
     <use style="fill:#ff0000;stroke:#ff0000;" x="290.269091" xlink:href="#mac883bc561" y="194.688"/>
     <use style="fill:#ff0000;stroke:#ff0000;" x="227.141818" xlink:href="#mac883bc561" y="204.768"/>
     <use style="fill:#ff0000;stroke:#ff0000;" x="200.087273" xlink:href="#mac883bc561" y="235.008"/>
     <use style="fill:#ff0000;stroke:#ff0000;" x="182.050909" xlink:href="#mac883bc561" y="255.168"/>
     <use style="fill:#ff0000;stroke:#ff0000;" x="182.050909" xlink:href="#mac883bc561" y="255.168"/>
     <use style="fill:#ff0000;stroke:#ff0000;" x="209.105455" xlink:href="#mac883bc561" y="224.928"/>
     <use style="fill:#ff0000;stroke:#ff0000;" x="227.141818" xlink:href="#mac883bc561" y="224.928"/>
     <use style="fill:#ff0000;stroke:#ff0000;" x="173.032727" xlink:href="#mac883bc561" y="194.688"/>
     <use style="fill:#ff0000;stroke:#ff0000;" x="227.141818" xlink:href="#mac883bc561" y="154.368"/>
     <use style="fill:#ff0000;stroke:#ff0000;" x="290.269091" xlink:href="#mac883bc561" y="184.608"/>
     <use style="fill:#ff0000;stroke:#ff0000;" x="254.196364" xlink:href="#mac883bc561" y="265.248"/>
     <use style="fill:#ff0000;stroke:#ff0000;" x="191.069091" xlink:href="#mac883bc561" y="194.688"/>
     <use style="fill:#ff0000;stroke:#ff0000;" x="182.050909" xlink:href="#mac883bc561" y="245.088"/>
     <use style="fill:#ff0000;stroke:#ff0000;" x="182.050909" xlink:href="#mac883bc561" y="235.008"/>
     <use style="fill:#ff0000;stroke:#ff0000;" x="236.16" xlink:href="#mac883bc561" y="194.688"/>
     <use style="fill:#ff0000;stroke:#ff0000;" x="209.105455" xlink:href="#mac883bc561" y="235.008"/>
     <use style="fill:#ff0000;stroke:#ff0000;" x="136.96" xlink:href="#mac883bc561" y="265.248"/>
     <use style="fill:#ff0000;stroke:#ff0000;" x="191.069091" xlink:href="#mac883bc561" y="224.928"/>
     <use style="fill:#ff0000;stroke:#ff0000;" x="200.087273" xlink:href="#mac883bc561" y="194.688"/>
     <use style="fill:#ff0000;stroke:#ff0000;" x="200.087273" xlink:href="#mac883bc561" y="204.768"/>
     <use style="fill:#ff0000;stroke:#ff0000;" x="245.178182" xlink:href="#mac883bc561" y="204.768"/>
     <use style="fill:#ff0000;stroke:#ff0000;" x="145.978182" xlink:href="#mac883bc561" y="245.088"/>
     <use style="fill:#ff0000;stroke:#ff0000;" x="200.087273" xlink:href="#mac883bc561" y="214.848"/>
    </g>
   </g>
   <g id="PathCollection_3">
    <defs>
     <path d="M -0 3 
L 3 -3 
L -3 -3 
z
" id="m5b51db3a83" style="stroke:#0000ff;"/>
    </defs>
    <g clip-path="url(#pdcdbad242b)">
     <use style="fill:#0000ff;stroke:#0000ff;" x="254.196364" xlink:href="#m5b51db3a83" y="164.448"/>
     <use style="fill:#0000ff;stroke:#0000ff;" x="209.105455" xlink:href="#m5b51db3a83" y="224.928"/>
     <use style="fill:#0000ff;stroke:#0000ff;" x="326.341818" xlink:href="#m5b51db3a83" y="194.688"/>
     <use style="fill:#0000ff;stroke:#0000ff;" x="254.196364" xlink:href="#m5b51db3a83" y="204.768"/>
     <use style="fill:#0000ff;stroke:#0000ff;" x="272.232727" xlink:href="#m5b51db3a83" y="194.688"/>
     <use style="fill:#0000ff;stroke:#0000ff;" x="371.432727" xlink:href="#m5b51db3a83" y="194.688"/>
     <use style="fill:#0000ff;stroke:#0000ff;" x="127.941818" xlink:href="#m5b51db3a83" y="245.088"/>
     <use style="fill:#0000ff;stroke:#0000ff;" x="344.378182" xlink:href="#m5b51db3a83" y="204.768"/>
     <use style="fill:#0000ff;stroke:#0000ff;" x="290.269091" xlink:href="#m5b51db3a83" y="245.088"/>
     <use style="fill:#0000ff;stroke:#0000ff;" x="335.36" xlink:href="#m5b51db3a83" y="134.208"/>
     <use style="fill:#0000ff;stroke:#0000ff;" x="272.232727" xlink:href="#m5b51db3a83" y="174.528"/>
     <use style="fill:#0000ff;stroke:#0000ff;" x="263.214545" xlink:href="#m5b51db3a83" y="224.928"/>
     <use style="fill:#0000ff;stroke:#0000ff;" x="299.287273" xlink:href="#m5b51db3a83" y="194.688"/>
     <use style="fill:#0000ff;stroke:#0000ff;" x="200.087273" xlink:href="#m5b51db3a83" y="245.088"/>
     <use style="fill:#0000ff;stroke:#0000ff;" x="209.105455" xlink:href="#m5b51db3a83" y="214.848"/>
     <use style="fill:#0000ff;stroke:#0000ff;" x="263.214545" xlink:href="#m5b51db3a83" y="174.528"/>
     <use style="fill:#0000ff;stroke:#0000ff;" x="272.232727" xlink:href="#m5b51db3a83" y="194.688"/>
     <use style="fill:#0000ff;stroke:#0000ff;" x="380.450909" xlink:href="#m5b51db3a83" y="114.048"/>
     <use style="fill:#0000ff;stroke:#0000ff;" x="380.450909" xlink:href="#m5b51db3a83" y="235.008"/>
     <use style="fill:#0000ff;stroke:#0000ff;" x="227.141818" xlink:href="#m5b51db3a83" y="275.328"/>
     <use style="fill:#0000ff;stroke:#0000ff;" x="308.305455" xlink:href="#m5b51db3a83" y="174.528"/>
     <use style="fill:#0000ff;stroke:#0000ff;" x="191.069091" xlink:href="#m5b51db3a83" y="214.848"/>
     <use style="fill:#0000ff;stroke:#0000ff;" x="380.450909" xlink:href="#m5b51db3a83" y="214.848"/>
     <use style="fill:#0000ff;stroke:#0000ff;" x="254.196364" xlink:href="#m5b51db3a83" y="224.928"/>
     <use style="fill:#0000ff;stroke:#0000ff;" x="290.269091" xlink:href="#m5b51db3a83" y="164.448"/>
     <use style="fill:#0000ff;stroke:#0000ff;" x="335.36" xlink:href="#m5b51db3a83" y="174.528"/>
     <use style="fill:#0000ff;stroke:#0000ff;" x="245.178182" xlink:href="#m5b51db3a83" y="214.848"/>
     <use style="fill:#0000ff;stroke:#0000ff;" x="236.16" xlink:href="#m5b51db3a83" y="194.688"/>
     <use style="fill:#0000ff;stroke:#0000ff;" x="263.214545" xlink:href="#m5b51db3a83" y="214.848"/>
     <use style="fill:#0000ff;stroke:#0000ff;" x="335.36" xlink:href="#m5b51db3a83" y="194.688"/>
     <use style="fill:#0000ff;stroke:#0000ff;" x="353.396364" xlink:href="#m5b51db3a83" y="214.848"/>
     <use style="fill:#0000ff;stroke:#0000ff;" x="398.487273" xlink:href="#m5b51db3a83" y="114.048"/>
     <use style="fill:#0000ff;stroke:#0000ff;" x="263.214545" xlink:href="#m5b51db3a83" y="214.848"/>
     <use style="fill:#0000ff;stroke:#0000ff;" x="254.196364" xlink:href="#m5b51db3a83" y="214.848"/>
     <use style="fill:#0000ff;stroke:#0000ff;" x="236.16" xlink:href="#m5b51db3a83" y="235.008"/>
     <use style="fill:#0000ff;stroke:#0000ff;" x="380.450909" xlink:href="#m5b51db3a83" y="194.688"/>
     <use style="fill:#0000ff;stroke:#0000ff;" x="254.196364" xlink:href="#m5b51db3a83" y="154.368"/>
     <use style="fill:#0000ff;stroke:#0000ff;" x="263.214545" xlink:href="#m5b51db3a83" y="184.608"/>
     <use style="fill:#0000ff;stroke:#0000ff;" x="227.141818" xlink:href="#m5b51db3a83" y="194.688"/>
     <use style="fill:#0000ff;stroke:#0000ff;" x="308.305455" xlink:href="#m5b51db3a83" y="184.608"/>
     <use style="fill:#0000ff;stroke:#0000ff;" x="290.269091" xlink:href="#m5b51db3a83" y="184.608"/>
     <use style="fill:#0000ff;stroke:#0000ff;" x="308.305455" xlink:href="#m5b51db3a83" y="184.608"/>
     <use style="fill:#0000ff;stroke:#0000ff;" x="209.105455" xlink:href="#m5b51db3a83" y="224.928"/>
     <use style="fill:#0000ff;stroke:#0000ff;" x="299.287273" xlink:href="#m5b51db3a83" y="174.528"/>
     <use style="fill:#0000ff;stroke:#0000ff;" x="290.269091" xlink:href="#m5b51db3a83" y="164.448"/>
     <use style="fill:#0000ff;stroke:#0000ff;" x="290.269091" xlink:href="#m5b51db3a83" y="194.688"/>
     <use style="fill:#0000ff;stroke:#0000ff;" x="254.196364" xlink:href="#m5b51db3a83" y="245.088"/>
     <use style="fill:#0000ff;stroke:#0000ff;" x="272.232727" xlink:href="#m5b51db3a83" y="194.688"/>
     <use style="fill:#0000ff;stroke:#0000ff;" x="245.178182" xlink:href="#m5b51db3a83" y="154.368"/>
     <use style="fill:#0000ff;stroke:#0000ff;" x="218.123636" xlink:href="#m5b51db3a83" y="194.688"/>
    </g>
   </g>
   <g id="matplotlib.axis_1">
    <g id="xtick_1">
     <g id="line2d_1">
      <defs>
       <path d="M 0 0 
L 0 3.5 
" id="m6cdc3c04ad" style="stroke:#000000;stroke-width:0.8;"/>
      </defs>
      <g>
       <use style="stroke:#000000;stroke-width:0.8;" x="91.869091" xlink:href="#m6cdc3c04ad" y="307.584"/>
      </g>
     </g>
     <g id="text_1">
      <!-- 4.5 -->
      <g transform="translate(84.369091 321.459)scale(0.1 -0.1)">
       <defs>
        <path d="M 31.25 17.1875 
L 1.171875 17.1875 
L 1.171875 23.828125 
L 32.8125 69.53125 
L 38.671875 69.53125 
L 38.671875 23.828125 
L 48.046875 23.828125 
L 48.046875 17.1875 
L 38.671875 17.1875 
L 38.671875 2.34375 
L 31.25 2.34375 
z
M 31.25 23.828125 
L 31.25 54.6875 
L 9.375 23.828125 
z
" id="SimHei-52"/>
        <path d="M 16.796875 1.953125 
L 7.8125 1.953125 
L 7.8125 10.546875 
L 16.796875 10.546875 
z
" id="SimHei-46"/>
        <path d="M 8.59375 20.703125 
Q 11.328125 10.15625 17.96875 8.984375 
Q 24.609375 7.8125 28.703125 10.34375 
Q 32.8125 12.890625 34.5625 16.984375 
Q 36.328125 21.09375 36.125 26.171875 
Q 35.9375 31.25 33.390625 34.765625 
Q 30.859375 38.28125 26.953125 39.453125 
Q 23.046875 40.625 18.15625 39.453125 
Q 13.28125 38.28125 10.15625 33.984375 
L 3.515625 34.765625 
Q 4.296875 37.109375 10.9375 68.359375 
L 41.796875 68.359375 
L 41.796875 61.328125 
L 16.796875 61.328125 
Q 14.84375 50.78125 12.890625 44.53125 
Q 18.75 47.265625 23.828125 47.0625 
Q 28.90625 46.875 33.59375 44.71875 
Q 38.28125 42.578125 40.421875 38.859375 
Q 42.578125 35.15625 43.546875 31.4375 
Q 44.53125 27.734375 44.328125 23.4375 
Q 44.140625 19.140625 42.578125 14.640625 
Q 41.015625 10.15625 37.890625 7.21875 
Q 34.765625 4.296875 30.265625 2.53125 
Q 25.78125 0.78125 19.921875 1.171875 
Q 14.0625 1.5625 8.78125 5.46875 
Q 3.515625 9.375 1.5625 18.75 
z
" id="SimHei-53"/>
       </defs>
       <use xlink:href="#SimHei-52"/>
       <use x="50" xlink:href="#SimHei-46"/>
       <use x="100" xlink:href="#SimHei-53"/>
      </g>
     </g>
    </g>
    <g id="xtick_2">
     <g id="line2d_2">
      <g>
       <use style="stroke:#000000;stroke-width:0.8;" x="136.96" xlink:href="#m6cdc3c04ad" y="307.584"/>
      </g>
     </g>
     <g id="text_2">
      <!-- 5.0 -->
      <g transform="translate(129.46 321.459)scale(0.1 -0.1)">
       <defs>
        <path d="M 3.125 29.296875 
Q 3.90625 50 6.4375 56.046875 
Q 8.984375 62.109375 13.671875 66.015625 
Q 18.359375 69.921875 25.1875 69.921875 
Q 32.03125 69.921875 37.109375 64.25 
Q 42.1875 58.59375 43.75 50 
Q 45.3125 41.40625 44.71875 30.265625 
Q 44.140625 19.140625 40.8125 12.109375 
Q 37.5 5.078125 30.859375 2.34375 
Q 24.21875 -0.390625 17.578125 2.921875 
Q 10.9375 6.25 8.203125 11.71875 
Q 5.46875 17.1875 4.296875 23.234375 
Q 3.125 29.296875 3.90625 50 
z
M 12.890625 52.734375 
Q 10.546875 31.25 12.5 22.84375 
Q 14.453125 14.453125 18.9375 10.9375 
Q 23.4375 7.421875 28.125 9.5625 
Q 32.8125 11.71875 34.953125 18.15625 
Q 37.109375 24.609375 37.109375 32.21875 
Q 37.109375 39.84375 36.515625 46.09375 
Q 35.9375 52.34375 33 57.421875 
Q 30.078125 62.5 25.1875 62.6875 
Q 20.3125 62.890625 16.59375 57.8125 
Q 12.890625 52.734375 10.546875 31.25 
z
" id="SimHei-48"/>
       </defs>
       <use xlink:href="#SimHei-53"/>
       <use x="50" xlink:href="#SimHei-46"/>
       <use x="100" xlink:href="#SimHei-48"/>
      </g>
     </g>
    </g>
    <g id="xtick_3">
     <g id="line2d_3">
      <g>
       <use style="stroke:#000000;stroke-width:0.8;" x="182.050909" xlink:href="#m6cdc3c04ad" y="307.584"/>
      </g>
     </g>
     <g id="text_3">
      <!-- 5.5 -->
      <g transform="translate(174.550909 321.459)scale(0.1 -0.1)">
       <use xlink:href="#SimHei-53"/>
       <use x="50" xlink:href="#SimHei-46"/>
       <use x="100" xlink:href="#SimHei-53"/>
      </g>
     </g>
    </g>
    <g id="xtick_4">
     <g id="line2d_4">
      <g>
       <use style="stroke:#000000;stroke-width:0.8;" x="227.141818" xlink:href="#m6cdc3c04ad" y="307.584"/>
      </g>
     </g>
     <g id="text_4">
      <!-- 6.0 -->
      <g transform="translate(219.641818 321.459)scale(0.1 -0.1)">
       <defs>
        <path d="M 3.515625 19.53125 
Q 4.296875 30.859375 6.046875 34.765625 
Q 7.8125 38.671875 11.328125 44.53125 
L 27.34375 69.53125 
L 36.328125 69.53125 
L 19.921875 43.75 
Q 30.46875 46.484375 36.71875 42.96875 
Q 42.96875 39.453125 45.109375 34.953125 
Q 47.265625 30.46875 47.453125 25.1875 
Q 47.65625 19.921875 45.890625 14.84375 
Q 44.140625 9.765625 39.640625 5.65625 
Q 35.15625 1.5625 27.140625 1.171875 
Q 19.140625 0.78125 13.46875 4.09375 
Q 7.8125 7.421875 5.65625 13.46875 
Q 3.515625 19.53125 4.296875 30.859375 
z
M 12.5 16.015625 
Q 19.53125 8.59375 25.390625 8.203125 
Q 31.25 7.8125 35.15625 12.109375 
Q 39.0625 16.40625 39.0625 24.609375 
Q 39.0625 32.8125 34.171875 35.9375 
Q 29.296875 39.0625 23.234375 38.28125 
Q 17.1875 37.5 14.453125 32.421875 
Q 11.71875 27.34375 12.109375 21.671875 
Q 12.5 16.015625 19.53125 8.59375 
z
" id="SimHei-54"/>
       </defs>
       <use xlink:href="#SimHei-54"/>
       <use x="50" xlink:href="#SimHei-46"/>
       <use x="100" xlink:href="#SimHei-48"/>
      </g>
     </g>
    </g>
    <g id="xtick_5">
     <g id="line2d_5">
      <g>
       <use style="stroke:#000000;stroke-width:0.8;" x="272.232727" xlink:href="#m6cdc3c04ad" y="307.584"/>
      </g>
     </g>
     <g id="text_5">
      <!-- 6.5 -->
      <g transform="translate(264.732727 321.459)scale(0.1 -0.1)">
       <use xlink:href="#SimHei-54"/>
       <use x="50" xlink:href="#SimHei-46"/>
       <use x="100" xlink:href="#SimHei-53"/>
      </g>
     </g>
    </g>
    <g id="xtick_6">
     <g id="line2d_6">
      <g>
       <use style="stroke:#000000;stroke-width:0.8;" x="317.323636" xlink:href="#m6cdc3c04ad" y="307.584"/>
      </g>
     </g>
     <g id="text_6">
      <!-- 7.0 -->
      <g transform="translate(309.823636 321.459)scale(0.1 -0.1)">
       <defs>
        <path d="M 13.28125 2.34375 
Q 20.3125 32.03125 37.890625 61.328125 
L 4.296875 61.328125 
L 4.296875 68.359375 
L 46.09375 68.359375 
L 46.09375 61.71875 
Q 27.734375 32.03125 21.875 2.34375 
L 13.28125 2.34375 
z
" id="SimHei-55"/>
       </defs>
       <use xlink:href="#SimHei-55"/>
       <use x="50" xlink:href="#SimHei-46"/>
       <use x="100" xlink:href="#SimHei-48"/>
      </g>
     </g>
    </g>
    <g id="xtick_7">
     <g id="line2d_7">
      <g>
       <use style="stroke:#000000;stroke-width:0.8;" x="362.414545" xlink:href="#m6cdc3c04ad" y="307.584"/>
      </g>
     </g>
     <g id="text_7">
      <!-- 7.5 -->
      <g transform="translate(354.914545 321.459)scale(0.1 -0.1)">
       <use xlink:href="#SimHei-55"/>
       <use x="50" xlink:href="#SimHei-46"/>
       <use x="100" xlink:href="#SimHei-53"/>
      </g>
     </g>
    </g>
    <g id="xtick_8">
     <g id="line2d_8">
      <g>
       <use style="stroke:#000000;stroke-width:0.8;" x="407.505455" xlink:href="#m6cdc3c04ad" y="307.584"/>
      </g>
     </g>
     <g id="text_8">
      <!-- 8.0 -->
      <g transform="translate(400.005455 321.459)scale(0.1 -0.1)">
       <defs>
        <path d="M 2.734375 16.796875 
Q 2.734375 26.171875 5.078125 30.65625 
Q 7.421875 35.15625 12.890625 37.890625 
Q 8.203125 40.625 6.640625 43.9375 
Q 5.078125 47.265625 4.875 51.5625 
Q 4.6875 55.859375 6.046875 58.984375 
Q 7.421875 62.109375 10.15625 64.84375 
Q 12.890625 67.578125 16.203125 68.546875 
Q 19.53125 69.53125 23.4375 69.53125 
Q 27.34375 69.53125 30.46875 68.75 
Q 33.59375 67.96875 37.109375 65.421875 
Q 40.625 62.890625 42.1875 58.203125 
Q 43.75 53.515625 41.984375 47.265625 
Q 40.234375 41.015625 32.8125 37.5 
Q 39.453125 35.546875 42.1875 31.4375 
Q 44.921875 27.34375 44.921875 21.484375 
Q 44.921875 15.625 43.15625 12.109375 
Q 41.40625 8.59375 39.25 6.25 
Q 37.109375 3.90625 33.390625 2.53125 
Q 29.6875 1.171875 24.015625 1.171875 
Q 18.359375 1.171875 14.25 2.53125 
Q 10.15625 3.90625 7.421875 6.640625 
Q 4.6875 9.375 3.703125 13.078125 
Q 2.734375 16.796875 2.734375 26.171875 
z
M 10.9375 26.5625 
Q 10.546875 17.1875 12.296875 13.671875 
Q 14.0625 10.15625 18.75 9.171875 
Q 23.4375 8.203125 28.515625 9.375 
Q 33.59375 10.546875 35.546875 14.84375 
Q 37.5 19.140625 36.90625 23.4375 
Q 36.328125 27.734375 32.03125 30.65625 
Q 27.734375 33.59375 22.65625 33.203125 
Q 17.578125 32.8125 14.25 29.6875 
Q 10.9375 26.5625 10.546875 17.1875 
z
M 12.109375 56.25 
Q 12.109375 48.4375 14.84375 44.921875 
Q 17.578125 41.40625 23.4375 41.40625 
Q 29.296875 41.40625 32.21875 44.921875 
Q 35.15625 48.4375 34.953125 53.3125 
Q 34.765625 58.203125 31.4375 60.546875 
Q 28.125 62.890625 22.453125 62.5 
Q 16.796875 62.109375 14.453125 59.171875 
Q 12.109375 56.25 12.109375 48.4375 
z
" id="SimHei-56"/>
       </defs>
       <use xlink:href="#SimHei-56"/>
       <use x="50" xlink:href="#SimHei-46"/>
       <use x="100" xlink:href="#SimHei-48"/>
      </g>
     </g>
    </g>
    <g id="text_9">
     <!-- 花萼长度 -->
     <g transform="translate(216.16 334.716812)scale(0.1 -0.1)">
      <defs>
       <path d="M 61.71875 51.171875 
Q 61.328125 46.484375 61.328125 39.84375 
L 61.328125 28.90625 
Q 65.625 31.25 71.671875 36.90625 
Q 77.734375 42.578125 80.46875 46.875 
Q 83.984375 43.75 89.0625 41.40625 
Q 84.375 38.671875 79.6875 34.171875 
Q 75 29.6875 61.328125 20.3125 
L 61.328125 4.296875 
Q 61.328125 0 66.40625 0 
L 78.515625 0 
Q 82.421875 0 83.984375 1.75 
Q 85.546875 3.515625 86.71875 10.546875 
Q 90.625 7.8125 94.921875 7.03125 
Q 92.1875 -2.34375 89.640625 -4.296875 
Q 87.109375 -6.25 82.03125 -6.25 
L 62.890625 -6.25 
Q 53.90625 -6.25 53.90625 0 
L 53.90625 16.015625 
Q 50 13.671875 40.234375 8.59375 
Q 38.28125 12.109375 34.765625 15.234375 
Q 42.96875 17.578125 53.90625 24.21875 
L 53.90625 39.84375 
Q 53.90625 46.484375 53.515625 51.171875 
L 61.71875 51.171875 
z
M 38.28125 62.890625 
Q 38.28125 58.59375 38.671875 53.90625 
L 30.078125 53.90625 
Q 30.46875 58.59375 30.46875 62.890625 
L 19.53125 62.890625 
Q 12.890625 62.890625 6.25 62.5 
L 6.25 69.53125 
Q 12.890625 69.140625 19.53125 69.140625 
L 30.46875 69.140625 
Q 30.46875 75.390625 30.078125 80.078125 
L 39.0625 80.078125 
Q 38.28125 75.390625 38.28125 69.140625 
L 58.203125 69.140625 
L 58.203125 80.859375 
L 66.40625 80.859375 
Q 66.015625 76.171875 66.015625 69.140625 
L 81.640625 69.140625 
Q 88.671875 69.140625 93.75 69.53125 
L 93.75 62.5 
Q 88.671875 62.890625 81.640625 62.890625 
L 66.015625 62.890625 
Q 66.015625 59.375 66.40625 53.90625 
L 58.203125 53.90625 
L 58.203125 62.890625 
z
M 41.40625 48.046875 
Q 36.71875 44.921875 31.25 39.0625 
L 31.25 5.078125 
Q 31.25 -1.171875 31.640625 -8.984375 
L 23.4375 -8.984375 
Q 23.828125 -1.5625 23.828125 5.078125 
L 23.828125 31.640625 
Q 17.1875 25.390625 9.375 19.921875 
Q 7.421875 23.4375 4.6875 26.5625 
Q 11.328125 30.078125 20.5 38.859375 
Q 29.6875 47.65625 32.03125 52.734375 
Q 35.546875 50 41.40625 48.046875 
z
" id="SimHei-33457"/>
       <path d="M 56.640625 -1.953125 
Q 68.75 -2.34375 70.890625 -1.359375 
Q 73.046875 -0.390625 73.4375 6.640625 
L 24.609375 6.640625 
Q 26.171875 14.84375 26.5625 19.140625 
L 19.140625 19.140625 
Q 13.671875 19.140625 6.640625 18.75 
L 6.640625 25 
Q 13.671875 24.609375 19.140625 24.609375 
L 78.515625 24.609375 
Q 87.5 24.609375 94.921875 25 
L 94.921875 18.75 
Q 87.5 19.140625 78.515625 19.140625 
L 33.59375 19.140625 
Q 33.203125 16.015625 32.8125 12.109375 
L 82.03125 12.109375 
Q 81.640625 6.25 81.25 3.515625 
Q 80.859375 0.78125 79.484375 -2.734375 
Q 78.125 -6.25 74.40625 -7.609375 
Q 70.703125 -8.984375 60.15625 -10.15625 
Q 58.59375 -5.46875 56.640625 -1.953125 
z
M 33.59375 72.65625 
Q 33.59375 75.390625 33.203125 81.25 
L 41.015625 81.25 
Q 40.625 75.390625 40.625 72.65625 
L 58.59375 72.65625 
Q 58.59375 77.734375 58.203125 81.640625 
L 66.015625 81.640625 
Q 65.625 77.34375 65.625 72.65625 
L 82.421875 72.65625 
Q 87.5 72.65625 93.359375 73.046875 
L 93.359375 66.796875 
Q 87.5 67.1875 82.421875 67.1875 
L 65.625 67.1875 
L 65.625 62.5 
L 58.59375 62.5 
L 58.59375 67.1875 
L 40.625 67.1875 
L 40.625 62.5 
L 33.59375 62.5 
L 33.59375 67.1875 
L 18.75 67.1875 
Q 13.671875 67.1875 7.421875 66.796875 
L 7.421875 73.046875 
Q 13.671875 72.65625 18.75 72.65625 
z
M 47.265625 59.375 
Q 46.875 55.078125 46.875 50.78125 
Q 46.875 46.484375 47.265625 41.796875 
L 14.453125 41.796875 
Q 14.84375 46.484375 14.84375 50.78125 
Q 14.84375 55.078125 14.453125 59.375 
L 47.265625 59.375 
z
M 87.5 59.375 
Q 87.109375 55.859375 87.109375 51.171875 
Q 87.109375 46.875 87.5 41.796875 
L 55.078125 41.796875 
Q 55.46875 46.484375 55.46875 51.171875 
Q 55.46875 55.859375 55.078125 59.375 
L 87.5 59.375 
z
M 68.359375 36.328125 
Q 75 36.328125 82.421875 36.71875 
L 82.421875 30.46875 
Q 75 30.859375 68.75 30.859375 
L 34.765625 30.859375 
Q 26.171875 30.859375 18.75 30.46875 
L 18.75 36.71875 
Q 26.171875 36.328125 34.765625 36.328125 
z
M 39.84375 47.265625 
L 39.84375 53.90625 
L 21.484375 53.90625 
L 21.484375 47.265625 
z
M 80.46875 47.265625 
L 80.46875 53.90625 
L 62.109375 53.90625 
L 62.109375 47.265625 
z
" id="SimHei-33852"/>
       <path d="M 27.34375 43.75 
L 27.34375 69.53125 
Q 27.34375 73.046875 26.953125 79.6875 
L 35.546875 79.6875 
Q 35.15625 72.265625 35.15625 69.921875 
L 35.15625 43.75 
L 82.421875 43.75 
Q 87.5 43.75 93.359375 44.140625 
L 93.359375 36.328125 
Q 85.9375 36.71875 79.6875 36.71875 
L 57.03125 36.71875 
Q 59.765625 28.90625 65.421875 21.484375 
Q 71.09375 14.0625 78.90625 9.171875 
Q 86.71875 4.296875 92.96875 2.34375 
Q 87.890625 -0.78125 85.15625 -5.46875 
Q 76.953125 -1.171875 69.921875 4.6875 
Q 62.890625 10.546875 57.421875 18.9375 
Q 51.953125 27.34375 49.21875 36.71875 
L 35.15625 36.71875 
L 35.15625 5.859375 
Q 46.484375 12.890625 50.390625 16.40625 
Q 53.125 12.109375 55.859375 8.59375 
Q 48.4375 5.078125 41.015625 -0.1875 
Q 33.59375 -5.46875 30.078125 -8.984375 
Q 26.953125 -4.6875 24.21875 -1.5625 
Q 27.34375 1.5625 27.34375 6.640625 
L 27.34375 36.71875 
L 18.359375 36.71875 
Q 12.890625 36.71875 5.859375 36.328125 
L 5.859375 44.140625 
Q 12.890625 43.75 17.578125 43.75 
z
M 76.5625 73.4375 
Q 72.265625 69.921875 63.859375 61.515625 
Q 55.46875 53.125 47.265625 45.3125 
Q 43.75 50 41.40625 51.5625 
Q 48.046875 56.25 56.25 64.84375 
Q 64.453125 73.4375 68.75 79.6875 
Q 71.875 76.953125 76.5625 73.4375 
z
" id="SimHei-38271"/>
       <path d="M 27.34375 26.171875 
Q 38.28125 25.78125 44.921875 25.78125 
L 81.25 25.78125 
Q 77.734375 19.53125 72.65625 13.28125 
Q 67.578125 7.03125 62.890625 3.125 
Q 67.96875 0.78125 77.34375 -0.78125 
Q 86.71875 -2.34375 95.3125 -2.34375 
Q 92.96875 -4.6875 91.015625 -10.15625 
Q 79.6875 -8.59375 71.09375 -6.4375 
Q 62.5 -4.296875 56.640625 -1.5625 
Q 48.4375 -5.078125 40.421875 -7.21875 
Q 32.421875 -9.375 23.828125 -10.546875 
Q 22.65625 -7.421875 19.140625 -3.90625 
Q 26.171875 -3.90625 35.15625 -1.953125 
Q 44.140625 0 50.78125 3.125 
Q 44.140625 8.59375 37.5 19.921875 
L 27.34375 19.53125 
z
M 46.484375 79.296875 
Q 50.78125 80.46875 54.296875 82.03125 
Q 56.640625 77.734375 58.984375 70.703125 
L 73.4375 70.703125 
Q 77.734375 70.703125 89.0625 71.09375 
L 89.0625 64.0625 
Q 78.125 64.453125 72.65625 64.453125 
L 21.484375 64.453125 
Q 21.484375 46.875 21.09375 36.125 
Q 20.703125 25.390625 18.9375 14.84375 
Q 17.1875 4.296875 11.328125 -8.203125 
Q 7.8125 -5.859375 3.90625 -4.6875 
Q 10.15625 6.25 11.90625 16.796875 
Q 13.671875 27.34375 13.859375 43.75 
Q 14.0625 60.15625 13.671875 70.703125 
L 50 70.703125 
Q 48.4375 75.78125 46.484375 79.296875 
z
M 38.671875 51.5625 
Q 38.671875 57.8125 38.28125 61.328125 
L 46.484375 61.328125 
Q 46.09375 58.203125 46.09375 51.5625 
L 67.1875 51.5625 
Q 67.1875 57.8125 66.796875 61.71875 
L 75 61.71875 
Q 74.609375 57.03125 74.609375 51.5625 
Q 83.203125 51.5625 89.453125 51.953125 
L 89.453125 45.3125 
Q 83.59375 45.703125 74.609375 45.703125 
Q 74.609375 35.15625 75 30.46875 
L 38.28125 30.46875 
Q 38.671875 36.71875 38.671875 45.703125 
Q 33.984375 45.703125 25 45.3125 
L 25 51.953125 
Q 33.984375 51.5625 38.671875 51.5625 
z
M 67.1875 36.71875 
L 67.1875 45.703125 
L 46.09375 45.703125 
L 46.09375 36.71875 
z
M 44.921875 19.921875 
Q 50 12.109375 57.03125 6.640625 
Q 62.890625 10.9375 69.140625 19.921875 
L 45.3125 19.921875 
z
" id="SimHei-24230"/>
      </defs>
      <use xlink:href="#SimHei-33457"/>
      <use x="100" xlink:href="#SimHei-33852"/>
      <use x="200" xlink:href="#SimHei-38271"/>
      <use x="300" xlink:href="#SimHei-24230"/>
     </g>
    </g>
   </g>
   <g id="matplotlib.axis_2">
    <g id="ytick_1">
     <g id="line2d_9">
      <defs>
       <path d="M 0 0 
L -3.5 0 
" id="m10d178f218" style="stroke:#000000;stroke-width:0.8;"/>
      </defs>
      <g>
       <use style="stroke:#000000;stroke-width:0.8;" x="57.6" xlink:href="#m10d178f218" y="295.488"/>
      </g>
     </g>
     <g id="text_10">
      <!-- 2.0 -->
      <g transform="translate(35.6 298.9255)scale(0.1 -0.1)">
       <defs>
        <path d="M 4.6875 3.90625 
Q 5.078125 9.765625 10.15625 14.453125 
Q 15.234375 19.140625 23.046875 29.09375 
Q 30.859375 39.0625 33.203125 44.53125 
Q 35.546875 50 34.953125 53.90625 
Q 34.375 57.8125 31.25 60.34375 
Q 28.125 62.890625 24.015625 62.5 
Q 19.921875 62.109375 16.203125 59.375 
Q 12.5 56.640625 10.546875 51.171875 
L 3.125 52.34375 
Q 6.25 61.328125 11.125 65.421875 
Q 16.015625 69.53125 22.65625 69.921875 
Q 26.5625 70.3125 29.6875 69.71875 
Q 32.8125 69.140625 36.125 66.984375 
Q 39.453125 64.84375 41.59375 60.546875 
Q 43.75 56.25 43.15625 50.1875 
Q 42.578125 44.140625 37.109375 35.734375 
Q 31.640625 27.34375 16.015625 9.375 
L 44.140625 9.375 
L 44.140625 2.34375 
L 4.6875 2.34375 
z
" id="SimHei-50"/>
       </defs>
       <use xlink:href="#SimHei-50"/>
       <use x="50" xlink:href="#SimHei-46"/>
       <use x="100" xlink:href="#SimHei-48"/>
      </g>
     </g>
    </g>
    <g id="ytick_2">
     <g id="line2d_10">
      <g>
       <use style="stroke:#000000;stroke-width:0.8;" x="57.6" xlink:href="#m10d178f218" y="245.088"/>
      </g>
     </g>
     <g id="text_11">
      <!-- 2.5 -->
      <g transform="translate(35.6 248.5255)scale(0.1 -0.1)">
       <use xlink:href="#SimHei-50"/>
       <use x="50" xlink:href="#SimHei-46"/>
       <use x="100" xlink:href="#SimHei-53"/>
      </g>
     </g>
    </g>
    <g id="ytick_3">
     <g id="line2d_11">
      <g>
       <use style="stroke:#000000;stroke-width:0.8;" x="57.6" xlink:href="#m10d178f218" y="194.688"/>
      </g>
     </g>
     <g id="text_12">
      <!-- 3.0 -->
      <g transform="translate(35.6 198.1255)scale(0.1 -0.1)">
       <defs>
        <path d="M 3.90625 19.140625 
L 10.9375 20.3125 
Q 12.5 15.234375 16.015625 11.90625 
Q 19.53125 8.59375 24.796875 8.78125 
Q 30.078125 8.984375 33.203125 13.078125 
Q 36.328125 17.1875 35.9375 22.453125 
Q 35.546875 27.734375 31.828125 30.65625 
Q 28.125 33.59375 19.921875 34.765625 
L 19.921875 39.84375 
Q 28.125 40.625 31.828125 44.140625 
Q 35.546875 47.65625 35.15625 53.3125 
Q 34.765625 58.984375 30.078125 61.515625 
Q 25.390625 64.0625 20.109375 62.109375 
Q 14.84375 60.15625 11.71875 51.171875 
L 4.6875 52.34375 
Q 7.03125 59.375 11.125 64.0625 
Q 15.234375 68.75 22.265625 69.53125 
Q 29.296875 70.3125 34.5625 67.765625 
Q 39.84375 65.234375 41.984375 59.953125 
Q 44.140625 54.6875 42.578125 48.4375 
Q 41.015625 42.1875 33.59375 37.5 
Q 39.0625 35.15625 41.984375 30.46875 
Q 44.921875 25.78125 43.9375 18.15625 
Q 42.96875 10.546875 37.109375 5.859375 
Q 31.25 1.171875 23.828125 1.359375 
Q 16.40625 1.5625 10.9375 6.046875 
Q 5.46875 10.546875 3.90625 19.140625 
z
" id="SimHei-51"/>
       </defs>
       <use xlink:href="#SimHei-51"/>
       <use x="50" xlink:href="#SimHei-46"/>
       <use x="100" xlink:href="#SimHei-48"/>
      </g>
     </g>
    </g>
    <g id="ytick_4">
     <g id="line2d_12">
      <g>
       <use style="stroke:#000000;stroke-width:0.8;" x="57.6" xlink:href="#m10d178f218" y="144.288"/>
      </g>
     </g>
     <g id="text_13">
      <!-- 3.5 -->
      <g transform="translate(35.6 147.7255)scale(0.1 -0.1)">
       <use xlink:href="#SimHei-51"/>
       <use x="50" xlink:href="#SimHei-46"/>
       <use x="100" xlink:href="#SimHei-53"/>
      </g>
     </g>
    </g>
    <g id="ytick_5">
     <g id="line2d_13">
      <g>
       <use style="stroke:#000000;stroke-width:0.8;" x="57.6" xlink:href="#m10d178f218" y="93.888"/>
      </g>
     </g>
     <g id="text_14">
      <!-- 4.0 -->
      <g transform="translate(35.6 97.3255)scale(0.1 -0.1)">
       <use xlink:href="#SimHei-52"/>
       <use x="50" xlink:href="#SimHei-46"/>
       <use x="100" xlink:href="#SimHei-48"/>
      </g>
     </g>
    </g>
    <g id="ytick_6">
     <g id="line2d_14">
      <g>
       <use style="stroke:#000000;stroke-width:0.8;" x="57.6" xlink:href="#m10d178f218" y="43.488"/>
      </g>
     </g>
     <g id="text_15">
      <!-- 4.5 -->
      <g transform="translate(35.6 46.9255)scale(0.1 -0.1)">
       <use xlink:href="#SimHei-52"/>
       <use x="50" xlink:href="#SimHei-46"/>
       <use x="100" xlink:href="#SimHei-53"/>
      </g>
     </g>
    </g>
    <g id="text_16">
     <!-- 花萼宽度 -->
     <g transform="translate(30.35 194.528)rotate(-90)scale(0.1 -0.1)">
      <defs>
       <path d="M 34.765625 55.078125 
Q 34.765625 57.8125 34.375 61.328125 
L 42.1875 61.328125 
Q 41.796875 57.8125 41.796875 55.078125 
L 57.03125 55.078125 
Q 57.03125 57.421875 56.640625 61.71875 
L 64.453125 61.71875 
Q 64.0625 57.421875 64.0625 55.078125 
Q 72.265625 55.078125 79.6875 55.46875 
L 79.6875 48.046875 
Q 71.484375 48.828125 64.0625 48.828125 
L 64.0625 38.671875 
L 78.515625 38.671875 
Q 78.125 33.984375 78.125 29.296875 
L 78.125 23.046875 
Q 78.125 19.140625 78.515625 12.890625 
L 70.703125 12.890625 
L 70.703125 32.8125 
L 28.125 32.8125 
L 28.125 11.71875 
L 20.3125 11.71875 
Q 20.703125 18.75 20.703125 22.65625 
L 20.703125 28.90625 
Q 20.703125 33.984375 20.3125 38.671875 
L 34.765625 38.671875 
L 34.765625 48.828125 
L 29.296875 48.828125 
Q 26.5625 48.828125 19.140625 47.65625 
L 19.140625 55.46875 
Q 26.5625 55.078125 29.296875 55.078125 
L 34.765625 55.078125 
z
M 83.984375 54.6875 
L 83.984375 65.234375 
L 14.84375 65.234375 
L 14.84375 53.125 
L 6.640625 53.125 
Q 7.03125 58.203125 7.03125 61.71875 
Q 7.03125 65.625 6.640625 71.484375 
L 47.265625 71.484375 
Q 46.484375 73.4375 42.578125 80.078125 
Q 47.65625 81.25 51.5625 82.8125 
Q 54.6875 76.5625 56.640625 71.484375 
L 92.1875 71.484375 
Q 91.796875 66.40625 91.796875 62.109375 
Q 91.796875 57.8125 92.1875 54.6875 
z
M 51.953125 28.515625 
Q 48.4375 14.0625 44.53125 7.21875 
Q 40.625 0.390625 33 -3.703125 
Q 25.390625 -7.8125 10.15625 -10.9375 
Q 8.59375 -5.46875 6.25 -1.5625 
Q 16.015625 -1.171875 22.65625 0.578125 
Q 29.296875 2.34375 33.59375 6.046875 
Q 37.890625 9.765625 39.84375 15.421875 
Q 41.796875 21.09375 42.578125 30.46875 
Q 48.4375 28.90625 51.953125 28.515625 
z
M 62.109375 19.53125 
Q 61.71875 14.453125 61.71875 10.546875 
L 61.71875 2.34375 
Q 61.71875 -1.171875 65.625 -1.5625 
L 77.34375 -1.5625 
Q 82.03125 -1.5625 84.375 0 
Q 86.71875 1.5625 88.28125 8.59375 
Q 91.796875 6.25 95.703125 4.6875 
Q 92.578125 -7.8125 80.859375 -8.203125 
L 62.890625 -8.203125 
Q 54.6875 -7.8125 53.90625 -0.390625 
L 53.90625 11.328125 
Q 53.90625 14.453125 53.515625 19.53125 
L 62.109375 19.53125 
z
M 57.03125 38.671875 
L 57.03125 48.828125 
L 41.796875 48.828125 
L 41.796875 38.671875 
z
" id="SimHei-23485"/>
      </defs>
      <use xlink:href="#SimHei-33457"/>
      <use x="100" xlink:href="#SimHei-33852"/>
      <use x="200" xlink:href="#SimHei-23485"/>
      <use x="300" xlink:href="#SimHei-24230"/>
     </g>
    </g>
   </g>
   <g id="patch_3">
    <path d="M 57.6 307.584 
L 57.6 41.472 
" style="fill:none;stroke:#000000;stroke-linecap:square;stroke-linejoin:miter;stroke-width:0.8;"/>
   </g>
   <g id="patch_4">
    <path d="M 414.72 307.584 
L 414.72 41.472 
" style="fill:none;stroke:#000000;stroke-linecap:square;stroke-linejoin:miter;stroke-width:0.8;"/>
   </g>
   <g id="patch_5">
    <path d="M 57.6 307.584 
L 414.72 307.584 
" style="fill:none;stroke:#000000;stroke-linecap:square;stroke-linejoin:miter;stroke-width:0.8;"/>
   </g>
   <g id="patch_6">
    <path d="M 57.6 41.472 
L 414.72 41.472 
" style="fill:none;stroke:#000000;stroke-linecap:square;stroke-linejoin:miter;stroke-width:0.8;"/>
   </g>
   <g id="legend_1">
    <g id="patch_7">
     <path d="M 64.6 92.011063 
L 121.6 92.011063 
Q 123.6 92.011063 123.6 90.011063 
L 123.6 48.472 
Q 123.6 46.472 121.6 46.472 
L 64.6 46.472 
Q 62.6 46.472 62.6 48.472 
L 62.6 90.011063 
Q 62.6 92.011063 64.6 92.011063 
z
" style="fill:#ffffff;opacity:0.8;stroke:#cccccc;stroke-linejoin:miter;"/>
    </g>
    <g id="PathCollection_4">
     <g>
      <use style="fill:#008000;stroke:#008000;" x="76.6" xlink:href="#m0dd54d7936" y="55.776688"/>
     </g>
    </g>
    <g id="text_17">
     <!-- 类别1 -->
     <g transform="translate(94.6 58.401688)scale(0.1 -0.1)">
      <defs>
       <path d="M 33.203125 60.546875 
Q 27.34375 68.359375 20.703125 73.828125 
Q 23.828125 76.171875 26.171875 78.90625 
L 39.453125 66.015625 
Q 37.5 64.453125 34.375 60.546875 
L 47.265625 60.546875 
L 47.265625 71.09375 
Q 47.265625 76.5625 46.875 80.078125 
L 55.078125 80.078125 
Q 54.6875 75.78125 54.6875 71.09375 
L 54.6875 60.546875 
L 67.578125 60.546875 
Q 64.453125 63.28125 62.5 64.84375 
Q 69.53125 71.484375 75 80.859375 
Q 78.125 78.125 82.421875 75.390625 
Q 79.6875 73.046875 76.75 69.921875 
Q 73.828125 66.796875 68.75 60.546875 
L 78.515625 60.546875 
Q 84.765625 60.546875 92.1875 60.9375 
L 92.1875 53.90625 
Q 84.765625 54.296875 78.515625 54.296875 
L 54.6875 54.296875 
L 54.6875 47.65625 
Q 54.6875 41.40625 55.078125 33.984375 
L 49.609375 33.984375 
Q 54.296875 32.421875 57.421875 31.25 
Q 55.859375 29.296875 55.078125 24.609375 
L 78.515625 24.609375 
Q 86.328125 24.609375 94.140625 25 
L 94.140625 17.96875 
Q 86.71875 18.359375 78.90625 18.359375 
L 57.421875 18.359375 
Q 63.28125 9.375 73.625 4.296875 
Q 83.984375 -0.78125 94.53125 -2.734375 
Q 91.40625 -5.46875 89.453125 -10.546875 
Q 77.734375 -7.03125 67.96875 -0.578125 
Q 58.203125 5.859375 51.5625 14.84375 
Q 47.65625 5.46875 37.890625 -0.78125 
Q 28.125 -7.03125 12.109375 -10.9375 
Q 10.15625 -6.640625 7.421875 -3.515625 
Q 21.484375 -1.5625 31.4375 3.515625 
Q 41.40625 8.59375 45.3125 18.359375 
L 25.390625 18.359375 
Q 16.015625 18.359375 8.203125 17.96875 
L 8.203125 25 
Q 14.84375 24.609375 25 24.609375 
L 47.265625 24.609375 
Q 48.046875 28.515625 48.4375 33.984375 
L 46.875 33.984375 
Q 47.265625 41.796875 47.265625 47.65625 
L 47.265625 51.953125 
Q 42.578125 45.3125 34.953125 39.84375 
Q 27.34375 34.375 14.453125 28.515625 
Q 13.28125 31.640625 9.765625 35.546875 
Q 18.359375 37.5 26.953125 42.765625 
Q 35.546875 48.046875 40.625 54.296875 
L 24.21875 54.296875 
Q 16.40625 54.296875 9.375 53.515625 
L 9.375 60.9375 
Q 16.796875 60.546875 24.21875 60.546875 
z
M 64.0625 53.90625 
Q 75.78125 46.875 90.625 36.71875 
Q 87.109375 33.203125 84.765625 30.078125 
Q 73.4375 39.84375 59.765625 48.046875 
Q 62.109375 50.78125 64.0625 53.90625 
z
" id="SimHei-31867"/>
       <path d="M 51.171875 77.34375 
Q 50.78125 71.875 50.78125 61.328125 
Q 50.78125 50.78125 51.171875 46.484375 
L 12.5 46.484375 
Q 12.890625 51.171875 12.890625 62.109375 
Q 12.890625 73.4375 12.5 77.34375 
L 51.171875 77.34375 
z
M 25.78125 33.203125 
Q 25.78125 37.5 25.390625 45.703125 
Q 30.46875 44.921875 34.765625 44.53125 
Q 33.59375 41.015625 33.203125 33.203125 
L 56.25 33.203125 
Q 55.859375 28.90625 55.859375 21.484375 
L 55.078125 1.953125 
Q 54.6875 -4.296875 50 -6.25 
Q 45.3125 -8.203125 38.671875 -9.375 
Q 37.109375 -4.296875 35.15625 -0.390625 
Q 42.578125 -0.390625 45.3125 0.390625 
Q 48.046875 1.171875 48.046875 5.078125 
L 48.828125 26.171875 
L 32.8125 26.171875 
Q 31.640625 13.671875 27.140625 6.25 
Q 22.65625 -1.171875 10.15625 -10.546875 
Q 7.421875 -6.25 3.90625 -3.515625 
Q 14.0625 1.953125 19.328125 8.984375 
Q 24.609375 16.015625 25 26.171875 
L 17.578125 26.171875 
Q 12.890625 26.171875 7.03125 25.78125 
L 7.03125 33.59375 
Q 12.5 33.203125 17.578125 33.203125 
z
M 90.625 80.078125 
Q 90.234375 76.171875 90.234375 68.359375 
L 90.234375 2.734375 
Q 90.234375 -5.46875 86.328125 -7.03125 
Q 82.421875 -8.59375 73.4375 -10.15625 
Q 72.265625 -5.46875 69.921875 -1.171875 
Q 78.125 -1.171875 80.46875 -0.1875 
Q 82.8125 0.78125 82.8125 5.078125 
L 82.8125 68.359375 
Q 82.8125 75.390625 82.421875 80.078125 
L 90.625 80.078125 
z
M 71.875 68.75 
Q 71.484375 64.0625 71.484375 57.8125 
L 71.484375 25 
Q 71.484375 17.578125 71.875 11.328125 
L 63.671875 11.328125 
Q 64.0625 17.578125 64.0625 25 
L 64.0625 57.8125 
Q 64.0625 64.0625 63.671875 68.75 
L 71.875 68.75 
z
M 43.359375 53.515625 
L 43.359375 70.3125 
L 20.3125 70.3125 
L 20.3125 53.515625 
z
" id="SimHei-21035"/>
       <path d="M 21.875 56.25 
Q 16.796875 51.171875 8.984375 46.484375 
L 8.984375 53.90625 
Q 18.75 60.546875 25 69.53125 
L 29.6875 69.53125 
L 29.6875 2.34375 
L 21.875 2.34375 
z
" id="SimHei-49"/>
      </defs>
      <use xlink:href="#SimHei-31867"/>
      <use x="100" xlink:href="#SimHei-21035"/>
      <use x="200" xlink:href="#SimHei-49"/>
     </g>
    </g>
    <g id="PathCollection_5">
     <g>
      <use style="fill:#ff0000;stroke:#ff0000;" x="76.6" xlink:href="#mac883bc561" y="69.956375"/>
     </g>
    </g>
    <g id="text_18">
     <!-- 类别2 -->
     <g transform="translate(94.6 72.581375)scale(0.1 -0.1)">
      <use xlink:href="#SimHei-31867"/>
      <use x="100" xlink:href="#SimHei-21035"/>
      <use x="200" xlink:href="#SimHei-50"/>
     </g>
    </g>
    <g id="PathCollection_6">
     <g>
      <use style="fill:#0000ff;stroke:#0000ff;" x="76.6" xlink:href="#m5b51db3a83" y="84.136063"/>
     </g>
    </g>
    <g id="text_19">
     <!-- 类别3 -->
     <g transform="translate(94.6 86.761063)scale(0.1 -0.1)">
      <use xlink:href="#SimHei-31867"/>
      <use x="100" xlink:href="#SimHei-21035"/>
      <use x="200" xlink:href="#SimHei-51"/>
     </g>
    </g>
   </g>
  </g>
 </g>
 <defs>
  <clipPath id="pdcdbad242b">
   <rect height="266.112" width="357.12" x="57.6" y="41.472"/>
  </clipPath>
 </defs>
</svg>
